<?xml version="1.0" encoding="UTF-8" standalone="no"?>
<!-- Created with Inkscape (http://www.inkscape.org/) -->

<svg
   xmlns:dc="http://purl.org/dc/elements/1.1/"
   xmlns:cc="http://creativecommons.org/ns#"
   xmlns:rdf="http://www.w3.org/1999/02/22-rdf-syntax-ns#"
   xmlns:svg="http://www.w3.org/2000/svg"
   xmlns="http://www.w3.org/2000/svg"
   xmlns:xlink="http://www.w3.org/1999/xlink"
   xmlns:sodipodi="http://sodipodi.sourceforge.net/DTD/sodipodi-0.dtd"
   xmlns:inkscape="http://www.inkscape.org/namespaces/inkscape"
   width="512.5733mm"
   height="355.47833mm"
   viewBox="0 0 512.5733 355.47833"
   version="1.1"
   id="svg8"
   inkscape:export-filename="/home/mconsonni/Desktop/NSS/TDC-US/Summary/figure/subint no/Hist (no subint).png"
   inkscape:export-xdpi="96"
   inkscape:export-ydpi="96"
   inkscape:version="0.92.5 (2060ec1f9f, 2020-04-08)"
   sodipodi:docname="drawing.svg">
  <defs
     id="defs2"
     style="stroke-linecap:butt;stroke-linejoin:round">
    <style
       id="style12"
       type="text/css">*{stroke-linecap:butt;stroke-linejoin:round;}</style>
    <path
       style="stroke:#000000;stroke-width:0.80000001;stroke-linecap:butt;stroke-linejoin:round"
       id="m59dcbf7ece"
       d="M 0,0 V 3.5"
       inkscape:connector-curvature="0" />
    <path
       transform="scale(0.015625)"
       id="DejaVuSans-32"
       d="M 1228,531 H 3431 V 0 H 469 v 531 q 359,372 979,998 621,627 780,809 303,340 423,576 121,236 121,464 0,372 -261,606 -261,235 -680,235 -297,0 -627,-103 -329,-103 -704,-313 v 638 q 381,153 712,231 332,78 607,78 725,0 1156,-363 431,-362 431,-968 0,-288 -108,-546 -107,-257 -392,-607 -78,-91 -497,-524 Q 1991,1309 1228,531 Z"
       inkscape:connector-curvature="0"
       style="stroke-linecap:butt;stroke-linejoin:round" />
    <path
       transform="scale(0.015625)"
       id="DejaVuSans-35"
       d="M 691,4666 H 3169 V 4134 H 1269 V 2991 q 137,47 274,70 138,23 276,23 781,0 1237,-428 457,-428 457,-1159 Q 3513,744 3044,326 2575,-91 1722,-91 1428,-91 1123,-41 819,9 494,109 v 635 q 281,-153 581,-228 300,-75 634,-75 541,0 856,284 316,284 316,772 0,487 -316,771 -315,285 -856,285 -253,0 -505,-56 -251,-56 -513,-175 z"
       inkscape:connector-curvature="0"
       style="stroke-linecap:butt;stroke-linejoin:round" />
    <path
       transform="scale(0.015625)"
       id="DejaVuSans-30"
       d="m 2034,4250 q -487,0 -733,-480 -245,-479 -245,-1442 0,-959 245,-1439 246,-480 733,-480 491,0 736,480 246,480 246,1439 0,963 -246,1442 -245,480 -736,480 z m 0,500 q 785,0 1199,-621 414,-620 414,-1801 0,-1178 -414,-1799 -414,-620 -1199,-620 -784,0 -1198,620 -414,621 -414,1799 0,1181 414,1801 414,621 1198,621 z"
       inkscape:connector-curvature="0"
       style="stroke-linecap:butt;stroke-linejoin:round" />
    <path
       transform="scale(0.015625)"
       id="DejaVuSans-36"
       d="m 2113,2584 q -425,0 -674,-291 -248,-290 -248,-796 0,-503 248,-796 249,-292 674,-292 425,0 673,292 248,293 248,796 0,506 -248,796 -248,291 -673,291 z m 1253,1979 v -575 q -238,112 -480,171 -242,60 -480,60 -625,0 -955,-422 -329,-422 -376,-1275 184,272 462,417 279,145 613,145 703,0 1111,-427 408,-426 408,-1160 0,-719 -425,-1154 -425,-434 -1131,-434 -810,0 -1238,620 -428,621 -428,1799 0,1106 525,1764 525,658 1409,658 238,0 480,-47 242,-47 505,-140 z"
       inkscape:connector-curvature="0"
       style="stroke-linecap:butt;stroke-linejoin:round" />
    <path
       transform="scale(0.015625)"
       id="DejaVuSans-37"
       d="M 525,4666 H 3525 V 4397 L 1831,0 H 1172 L 2766,4134 H 525 Z"
       inkscape:connector-curvature="0"
       style="stroke-linecap:butt;stroke-linejoin:round" />
    <path
       transform="scale(0.015625)"
       id="DejaVuSans-38"
       d="m 2034,2216 q -450,0 -708,-241 -257,-241 -257,-662 0,-422 257,-663 258,-241 708,-241 450,0 709,242 260,243 260,662 0,421 -258,662 -257,241 -711,241 z m -631,268 q -406,100 -633,378 -226,279 -226,679 0,559 398,884 399,325 1092,325 697,0 1094,-325 397,-325 397,-884 0,-400 -227,-679 -226,-278 -629,-378 456,-106 710,-416 255,-309 255,-755 Q 3634,634 3220,271 2806,-91 2034,-91 1263,-91 848,271 434,634 434,1313 q 0,446 256,755 257,310 713,416 z m -231,997 q 0,-362 226,-565 227,-203 636,-203 407,0 636,203 230,203 230,565 0,363 -230,566 -229,203 -636,203 -409,0 -636,-203 -226,-203 -226,-566 z"
       inkscape:connector-curvature="0"
       style="stroke-linecap:butt;stroke-linejoin:round" />
    <path
       transform="scale(0.015625)"
       id="DejaVuSans-39"
       d="m 703,97 v 575 q 238,-113 481,-172 244,-59 479,-59 625,0 954,420 330,420 377,1277 -181,-269 -460,-413 -278,-144 -615,-144 -700,0 -1108,423 -408,424 -408,1159 0,718 425,1152 425,435 1131,435 810,0 1236,-621 427,-620 427,-1801 Q 3622,1225 3098,567 2575,-91 1691,-91 1453,-91 1209,-44 966,3 703,97 Z m 1256,1978 q 425,0 673,290 249,291 249,798 0,503 -249,795 -248,292 -673,292 -425,0 -673,-292 -248,-292 -248,-795 0,-507 248,-798 248,-290 673,-290 z"
       inkscape:connector-curvature="0"
       style="stroke-linecap:butt;stroke-linejoin:round" />
    <path
       style="stroke:#000000;stroke-width:0.80000001;stroke-linecap:butt;stroke-linejoin:round"
       id="ma2d838a7e8"
       d="M 0,0 H -3.5"
       inkscape:connector-curvature="0" />
    <path
       transform="scale(0.015625)"
       id="DejaVuSans-31"
       d="M 794,531 H 1825 V 4091 L 703,3866 v 575 l 1116,225 h 631 V 531 H 3481 V 0 H 794 Z"
       inkscape:connector-curvature="0"
       style="stroke-linecap:butt;stroke-linejoin:round" />
    <path
       transform="scale(0.015625)"
       id="DejaVuSans-33"
       d="m 2597,2516 q 453,-97 707,-404 255,-306 255,-756 0,-690 -475,-1069 -475,-378 -1350,-378 -293,0 -604,58 -311,58 -642,174 v 609 q 262,-153 574,-231 313,-78 654,-78 593,0 904,234 311,234 311,681 0,413 -289,645 -289,233 -804,233 h -544 v 519 h 569 q 465,0 712,186 247,186 247,536 0,359 -255,551 -254,193 -729,193 -260,0 -557,-57 -297,-56 -653,-174 v 562 q 360,100 674,150 314,50 592,50 719,0 1137,-327 419,-326 419,-882 0,-388 -222,-655 -222,-267 -631,-370 z"
       inkscape:connector-curvature="0"
       style="stroke-linecap:butt;stroke-linejoin:round" />
    <path
       transform="scale(0.015625)"
       id="DejaVuSans-34"
       d="M 2419,4116 825,1625 h 1594 z m -166,550 h 794 V 1625 h 666 V 1100 H 3047 V 0 H 2419 V 1100 H 313 v 609 z"
       inkscape:connector-curvature="0"
       style="stroke-linecap:butt;stroke-linejoin:round" />
    <clipPath
       id="pf27e50f978"
       style="stroke-linecap:butt;stroke-linejoin:round">
      <rect
         id="rect346"
         y="115.2576"
         x="223.92"
         width="1388.304"
         height="739.56958"
         style="stroke-linecap:butt;stroke-linejoin:round" />
    </clipPath>
    <style
       id="style865"
       type="text/css">*{stroke-linecap:butt;stroke-linejoin:round;}</style>
    <path
       style="stroke:#000000;stroke-width:0.8;"
       id="m0b43b2ffa9"
       d="M 0 0  L 0 3.5  " />
    <path
       transform="scale(0.015625)"
       id="DejaVuSans-32-7"
       d="M 1228 531  L 3431 531  L 3431 0  L 469 0  L 469 531  Q 828 903 1448 1529  Q 2069 2156 2228 2338  Q 2531 2678 2651 2914  Q 2772 3150 2772 3378  Q 2772 3750 2511 3984  Q 2250 4219 1831 4219  Q 1534 4219 1204 4116  Q 875 4013 500 3803  L 500 4441  Q 881 4594 1212 4672  Q 1544 4750 1819 4750  Q 2544 4750 2975 4387  Q 3406 4025 3406 3419  Q 3406 3131 3298 2873  Q 3191 2616 2906 2266  Q 2828 2175 2409 1742  Q 1991 1309 1228 531  z " />
    <path
       transform="scale(0.015625)"
       id="DejaVuSans-35-3"
       d="M 691 4666  L 3169 4666  L 3169 4134  L 1269 4134  L 1269 2991  Q 1406 3038 1543 3061  Q 1681 3084 1819 3084  Q 2600 3084 3056 2656  Q 3513 2228 3513 1497  Q 3513 744 3044 326  Q 2575 -91 1722 -91  Q 1428 -91 1123 -41  Q 819 9 494 109  L 494 744  Q 775 591 1075 516  Q 1375 441 1709 441  Q 2250 441 2565 725  Q 2881 1009 2881 1497  Q 2881 1984 2565 2268  Q 2250 2553 1709 2553  Q 1456 2553 1204 2497  Q 953 2441 691 2322  L 691 4666  z " />
    <path
       transform="scale(0.015625)"
       id="DejaVuSans-30-6"
       d="M 2034 4250  Q 1547 4250 1301 3770  Q 1056 3291 1056 2328  Q 1056 1369 1301 889  Q 1547 409 2034 409  Q 2525 409 2770 889  Q 3016 1369 3016 2328  Q 3016 3291 2770 3770  Q 2525 4250 2034 4250  z M 2034 4750  Q 2819 4750 3233 4129  Q 3647 3509 3647 2328  Q 3647 1150 3233 529  Q 2819 -91 2034 -91  Q 1250 -91 836 529  Q 422 1150 422 2328  Q 422 3509 836 4129  Q 1250 4750 2034 4750  z " />
    <path
       transform="scale(0.015625)"
       id="DejaVuSans-36-9"
       d="M 2113 2584  Q 1688 2584 1439 2293  Q 1191 2003 1191 1497  Q 1191 994 1439 701  Q 1688 409 2113 409  Q 2538 409 2786 701  Q 3034 994 3034 1497  Q 3034 2003 2786 2293  Q 2538 2584 2113 2584  z M 3366 4563  L 3366 3988  Q 3128 4100 2886 4159  Q 2644 4219 2406 4219  Q 1781 4219 1451 3797  Q 1122 3375 1075 2522  Q 1259 2794 1537 2939  Q 1816 3084 2150 3084  Q 2853 3084 3261 2657  Q 3669 2231 3669 1497  Q 3669 778 3244 343  Q 2819 -91 2113 -91  Q 1303 -91 875 529  Q 447 1150 447 2328  Q 447 3434 972 4092  Q 1497 4750 2381 4750  Q 2619 4750 2861 4703  Q 3103 4656 3366 4563  z " />
    <path
       transform="scale(0.015625)"
       id="DejaVuSans-37-9"
       d="M 525 4666  L 3525 4666  L 3525 4397  L 1831 0  L 1172 0  L 2766 4134  L 525 4134  L 525 4666  z " />
    <path
       transform="scale(0.015625)"
       id="DejaVuSans-38-8"
       d="M 2034 2216  Q 1584 2216 1326 1975  Q 1069 1734 1069 1313  Q 1069 891 1326 650  Q 1584 409 2034 409  Q 2484 409 2743 651  Q 3003 894 3003 1313  Q 3003 1734 2745 1975  Q 2488 2216 2034 2216  z M 1403 2484  Q 997 2584 770 2862  Q 544 3141 544 3541  Q 544 4100 942 4425  Q 1341 4750 2034 4750  Q 2731 4750 3128 4425  Q 3525 4100 3525 3541  Q 3525 3141 3298 2862  Q 3072 2584 2669 2484  Q 3125 2378 3379 2068  Q 3634 1759 3634 1313  Q 3634 634 3220 271  Q 2806 -91 2034 -91  Q 1263 -91 848 271  Q 434 634 434 1313  Q 434 1759 690 2068  Q 947 2378 1403 2484  z M 1172 3481  Q 1172 3119 1398 2916  Q 1625 2713 2034 2713  Q 2441 2713 2670 2916  Q 2900 3119 2900 3481  Q 2900 3844 2670 4047  Q 2441 4250 2034 4250  Q 1625 4250 1398 4047  Q 1172 3844 1172 3481  z " />
    <path
       transform="scale(0.015625)"
       id="DejaVuSans-39-0"
       d="M 703 97  L 703 672  Q 941 559 1184 500  Q 1428 441 1663 441  Q 2288 441 2617 861  Q 2947 1281 2994 2138  Q 2813 1869 2534 1725  Q 2256 1581 1919 1581  Q 1219 1581 811 2004  Q 403 2428 403 3163  Q 403 3881 828 4315  Q 1253 4750 1959 4750  Q 2769 4750 3195 4129  Q 3622 3509 3622 2328  Q 3622 1225 3098 567  Q 2575 -91 1691 -91  Q 1453 -91 1209 -44  Q 966 3 703 97  z M 1959 2075  Q 2384 2075 2632 2365  Q 2881 2656 2881 3163  Q 2881 3666 2632 3958  Q 2384 4250 1959 4250  Q 1534 4250 1286 3958  Q 1038 3666 1038 3163  Q 1038 2656 1286 2365  Q 1534 2075 1959 2075  z " />
    <path
       transform="scale(0.015625)"
       id="DejaVuSans-33-1"
       d="M 2597 2516  Q 3050 2419 3304 2112  Q 3559 1806 3559 1356  Q 3559 666 3084 287  Q 2609 -91 1734 -91  Q 1441 -91 1130 -33  Q 819 25 488 141  L 488 750  Q 750 597 1062 519  Q 1375 441 1716 441  Q 2309 441 2620 675  Q 2931 909 2931 1356  Q 2931 1769 2642 2001  Q 2353 2234 1838 2234  L 1294 2234  L 1294 2753  L 1863 2753  Q 2328 2753 2575 2939  Q 2822 3125 2822 3475  Q 2822 3834 2567 4026  Q 2313 4219 1838 4219  Q 1578 4219 1281 4162  Q 984 4106 628 3988  L 628 4550  Q 988 4650 1302 4700  Q 1616 4750 1894 4750  Q 2613 4750 3031 4423  Q 3450 4097 3450 3541  Q 3450 3153 3228 2886  Q 3006 2619 2597 2516  z " />
    <path
       style="stroke:#000000;stroke-width:0.8;"
       id="m0c020d0e6c"
       d="M 0 0  L -3.5 0  " />
    <path
       transform="scale(0.015625)"
       id="DejaVuSans-31-0"
       d="M 794 531  L 1825 531  L 1825 4091  L 703 3866  L 703 4441  L 1819 4666  L 2450 4666  L 2450 531  L 3481 531  L 3481 0  L 794 0  L 794 531  z " />
    <path
       transform="scale(0.015625)"
       id="DejaVuSans-34-6"
       d="M 2419 4116  L 825 1625  L 2419 1625  L 2419 4116  z M 2253 4666  L 3047 4666  L 3047 1625  L 3713 1625  L 3713 1100  L 3047 1100  L 3047 0  L 2419 0  L 2419 1100  L 313 1100  L 313 1709  L 2253 4666  z " />
    <clipPath
       id="pda0f6cf6a4">
      <rect
         id="rect1144"
         y="115.2576"
         x="223.92"
         width="1388.304"
         height="739.5696" />
    </clipPath>
  </defs>
  <sodipodi:namedview
     id="base"
     pagecolor="#ffffff"
     bordercolor="#666666"
     borderopacity="1.0"
     inkscape:pageopacity="0.0"
     inkscape:pageshadow="2"
     inkscape:zoom="0.35"
     inkscape:cx="717.61917"
     inkscape:cy="580.32923"
     inkscape:document-units="mm"
     inkscape:current-layer="xtick_4"
     showgrid="false"
     inkscape:window-width="1528"
     inkscape:window-height="836"
     inkscape:window-x="72"
     inkscape:window-y="27"
     inkscape:window-maximized="1" />
  <metadata
     id="metadata5">
    <rdf:RDF>
      <cc:Work
         rdf:about="">
        <dc:format>image/svg+xml</dc:format>
        <dc:type
           rdf:resource="http://purl.org/dc/dcmitype/StillImage" />
        <dc:title></dc:title>
      </cc:Work>
    </rdf:RDF>
  </metadata>
  <g
     inkscape:label="Layer 1"
     inkscape:groupmode="layer"
     id="layer1"
     transform="translate(177.25255,52.059073)">
    <g
       id="figure_1"
       transform="matrix(0.35277778,0,0,0.35277778,-233.57719,-31.923954)"
       style="stroke-linecap:butt;stroke-linejoin:round">
      <g
         id="axes_1"
         style="stroke-linecap:butt;stroke-linejoin:round">
        <g
           id="matplotlib.axis_1"
           style="stroke-linecap:butt;stroke-linejoin:round">
          <g
             id="xtick_1"
             style="stroke-linecap:butt;stroke-linejoin:round">
            <g
               id="line2d_1"
               style="stroke-linecap:butt;stroke-linejoin:round">
              <defs
                 id="defs23">
                <path
                   style="stroke:#000000;stroke-width:0.80000001;stroke-linecap:butt;stroke-linejoin:round"
                   id="path374"
                   d="M 0,0 V 3.5"
                   inkscape:connector-curvature="0" />
              </defs>
              <g
                 id="g27"
                 style="stroke-linecap:butt;stroke-linejoin:round">
                <use
                   id="use25"
                   y="854.82721"
                   xlink:href="#m59dcbf7ece"
                   x="381.97519"
                   style="stroke:#000000;stroke-width:0.80000001;stroke-linecap:butt;stroke-linejoin:round"
                   width="100%"
                   height="100%" />
              </g>
            </g>
          </g>
          <g
             id="xtick_2"
             style="stroke-linecap:butt;stroke-linejoin:round">
            <g
               id="line2d_2"
               style="stroke-linecap:butt;stroke-linejoin:round">
              <g
                 id="g49"
                 style="stroke-linecap:butt;stroke-linejoin:round">
                <use
                   id="use47"
                   y="854.82721"
                   xlink:href="#m59dcbf7ece"
                   x="550.42993"
                   style="stroke:#000000;stroke-width:0.80000001;stroke-linecap:butt;stroke-linejoin:round"
                   width="100%"
                   height="100%" />
              </g>
            </g>
          </g>
          <g
             id="xtick_3"
             style="stroke-linecap:butt;stroke-linejoin:round">
            <g
               id="line2d_3"
               style="stroke-linecap:butt;stroke-linejoin:round">
              <g
                 id="g69"
                 style="stroke-linecap:butt;stroke-linejoin:round">
                <use
                   id="use67"
                   y="854.82721"
                   xlink:href="#m59dcbf7ece"
                   x="718.88458"
                   style="stroke:#000000;stroke-width:0.80000001;stroke-linecap:butt;stroke-linejoin:round"
                   width="100%"
                   height="100%" />
              </g>
            </g>
          </g>
          <g
             id="xtick_4"
             style="stroke-linecap:butt;stroke-linejoin:round">
            <g
               id="line2d_4"
               style="stroke-linecap:butt;stroke-linejoin:round">
              <g
                 id="g86"
                 style="stroke-linecap:butt;stroke-linejoin:round">
                <use
                   id="use84"
                   y="854.82721"
                   xlink:href="#m59dcbf7ece"
                   x="887.33929"
                   style="stroke:#000000;stroke-width:0.80000001;stroke-linecap:butt;stroke-linejoin:round"
                   width="100%"
                   height="100%" />
              </g>
            </g>
            <text
               xml:space="preserve"
               style="font-style:normal;font-weight:normal;font-size:30px;line-height:1.25;font-family:sans-serif;letter-spacing:0px;word-spacing:0px;fill:#000000;fill-opacity:1;stroke:none;stroke-width:0.75;stroke-linecap:butt;stroke-linejoin:round"
               x="880.0274"
               y="866.53735"
               id="text583"><tspan
                 sodipodi:role="line"
                 id="tspan581"
                 style="stroke-width:0.75;stroke-linecap:butt;stroke-linejoin:round"
                 x="880.0274"
                 y="893.08032"></tspan></text>
            <text
               xml:space="preserve"
               style="font-style:normal;font-weight:normal;font-size:30px;line-height:1.25;font-family:sans-serif;letter-spacing:0px;word-spacing:0px;fill:#000000;fill-opacity:1;stroke:none;stroke-width:0.75;stroke-linecap:butt;stroke-linejoin:round"
               x="858.74377"
               y="887.69159"
               id="text587"><tspan
                 sodipodi:role="line"
                 id="tspan585"
                 style="stroke-width:0.75;stroke-linecap:butt;stroke-linejoin:round"
                 x="858.74377"
                 y="887.69159">396</tspan></text>
            <text
               xml:space="preserve"
               style="font-style:normal;font-weight:normal;font-size:30px;line-height:1.25;font-family:sans-serif;letter-spacing:0px;word-spacing:0px;fill:#000000;fill-opacity:1;stroke:none;stroke-width:0.75;stroke-linecap:butt;stroke-linejoin:round"
               x="689.82361"
               y="887.8797"
               id="text587-3"><tspan
                 sodipodi:role="line"
                 id="tspan585-6"
                 style="stroke-width:0.75;stroke-linecap:butt;stroke-linejoin:round"
                 x="689.82361"
                 y="887.8797">384</tspan></text>
            <text
               xml:space="preserve"
               style="font-style:normal;font-weight:normal;font-size:30px;line-height:1.25;font-family:sans-serif;letter-spacing:0px;word-spacing:0px;fill:#000000;fill-opacity:1;stroke:none;stroke-width:0.75;stroke-linecap:butt;stroke-linejoin:round"
               x="522.07355"
               y="887.0498"
               id="text587-3-7"><tspan
                 sodipodi:role="line"
                 id="tspan585-6-5"
                 style="stroke-width:0.75;stroke-linecap:butt;stroke-linejoin:round"
                 x="522.07355"
                 y="887.0498">372</tspan></text>
            <text
               xml:space="preserve"
               style="font-style:normal;font-weight:normal;font-size:30px;line-height:1.25;font-family:sans-serif;letter-spacing:0px;word-spacing:0px;fill:#000000;fill-opacity:1;stroke:none;stroke-width:0.75;stroke-linecap:butt;stroke-linejoin:round"
               x="352.96112"
               y="885.88287"
               id="text587-3-7-3"><tspan
                 sodipodi:role="line"
                 id="tspan585-6-5-5"
                 style="stroke-width:0.75;stroke-linecap:butt;stroke-linejoin:round"
                 x="352.96112"
                 y="885.88287">360</tspan></text>
            <text
               xml:space="preserve"
               style="font-style:normal;font-weight:normal;font-size:30px;line-height:1.25;font-family:sans-serif;letter-spacing:0px;word-spacing:0px;fill:#000000;fill-opacity:1;stroke:none;stroke-width:0.75;stroke-linecap:butt;stroke-linejoin:round"
               x="1025.972"
               y="888.12531"
               id="text587-6"><tspan
                 sodipodi:role="line"
                 id="tspan585-2"
                 style="stroke-width:0.75;stroke-linecap:butt;stroke-linejoin:round"
                 x="1025.972"
                 y="888.12531">408</tspan></text>
            <text
               xml:space="preserve"
               style="font-style:normal;font-weight:normal;font-size:30px;line-height:1.25;font-family:sans-serif;letter-spacing:0px;word-spacing:0px;fill:#000000;fill-opacity:1;stroke:none;stroke-width:0.75;stroke-linecap:butt;stroke-linejoin:round"
               x="1195.2277"
               y="886.91272"
               id="text587-6-9"><tspan
                 sodipodi:role="line"
                 id="tspan585-2-1"
                 style="stroke-width:0.75;stroke-linecap:butt;stroke-linejoin:round"
                 x="1195.2277"
                 y="886.91272">420</tspan></text>
            <text
               xml:space="preserve"
               style="font-style:normal;font-weight:normal;font-size:30px;line-height:1.25;font-family:sans-serif;letter-spacing:0px;word-spacing:0px;fill:#000000;fill-opacity:1;stroke:none;stroke-width:0.75;stroke-linecap:butt;stroke-linejoin:round"
               x="1364.6541"
               y="886.45886"
               id="text587-6-9-2"><tspan
                 sodipodi:role="line"
                 id="tspan585-2-1-7"
                 style="stroke-width:0.75;stroke-linecap:butt;stroke-linejoin:round"
                 x="1364.6541"
                 y="886.45886">432</tspan></text>
            <text
               xml:space="preserve"
               style="font-style:normal;font-weight:normal;font-size:48px;line-height:1.25;font-family:sans-serif;letter-spacing:0px;word-spacing:0px;fill:#000000;fill-opacity:1;stroke:none;stroke-width:0.75;stroke-linecap:butt;stroke-linejoin:round"
               x="689.55042"
               y="940.59485"
               id="text587-6-9-2-0"><tspan
                 sodipodi:role="line"
                 id="tspan585-2-1-7-9"
                 style="font-size:48px;stroke-width:0.75;stroke-linecap:butt;stroke-linejoin:round"
                 x="689.55042"
                 y="940.59485">time difference [ps]</tspan></text>
            <text
               xml:space="preserve"
               style="font-style:normal;font-weight:normal;font-size:30px;line-height:1.25;font-family:sans-serif;letter-spacing:0px;word-spacing:0px;fill:#000000;fill-opacity:1;stroke:none;stroke-width:0.75;stroke-linecap:butt;stroke-linejoin:round"
               x="196.78119"
               y="857.0097"
               id="text587-3-7-3-3"><tspan
                 sodipodi:role="line"
                 id="tspan585-6-5-5-6"
                 style="stroke-width:0.75;stroke-linecap:butt;stroke-linejoin:round"
                 x="196.78119"
                 y="857.0097">0</tspan></text>
            <text
               xml:space="preserve"
               style="font-style:normal;font-weight:normal;font-size:30px;line-height:1.25;font-family:sans-serif;letter-spacing:0px;word-spacing:0px;fill:#000000;fill-opacity:1;stroke:none;stroke-width:0.75;stroke-linecap:butt;stroke-linejoin:round"
               x="159.89471"
               y="700.86884"
               id="text587-3-7-3-3-0"><tspan
                 sodipodi:role="line"
                 id="tspan585-6-5-5-6-6"
                 style="stroke-width:0.75;stroke-linecap:butt;stroke-linejoin:round"
                 x="159.89471"
                 y="700.86884">100</tspan></text>
            <text
               xml:space="preserve"
               style="font-style:normal;font-weight:normal;font-size:30px;line-height:1.25;font-family:sans-serif;letter-spacing:0px;word-spacing:0px;fill:#000000;fill-opacity:1;stroke:none;stroke-width:0.75;stroke-linecap:butt;stroke-linejoin:round"
               x="160.55844"
               y="562.18353"
               id="text587-3-7-3-3-0-2"><tspan
                 sodipodi:role="line"
                 id="tspan585-6-5-5-6-6-6"
                 style="stroke-width:0.75;stroke-linecap:butt;stroke-linejoin:round"
                 x="160.55844"
                 y="562.18353">200</tspan></text>
            <text
               xml:space="preserve"
               style="font-style:normal;font-weight:normal;font-size:30px;line-height:1.25;font-family:sans-serif;letter-spacing:0px;word-spacing:0px;fill:#000000;fill-opacity:1;stroke:none;stroke-width:0.75;stroke-linecap:butt;stroke-linejoin:round"
               x="160.36537"
               y="421.2254"
               id="text587-3-7-3-3-0-2-1"><tspan
                 sodipodi:role="line"
                 id="tspan585-6-5-5-6-6-6-8"
                 style="stroke-width:0.75;stroke-linecap:butt;stroke-linejoin:round"
                 x="160.36537"
                 y="421.2254">300</tspan></text>
            <text
               xml:space="preserve"
               style="font-style:normal;font-weight:normal;font-size:30px;line-height:1.25;font-family:sans-serif;letter-spacing:0px;word-spacing:0px;fill:#000000;fill-opacity:1;stroke:none;stroke-width:0.75;stroke-linecap:butt;stroke-linejoin:round"
               x="159.88745"
               y="281.89667"
               id="text587-3-7-3-3-0-2-1-7"><tspan
                 sodipodi:role="line"
                 id="tspan585-6-5-5-6-6-6-8-9"
                 style="stroke-width:0.75;stroke-linecap:butt;stroke-linejoin:round"
                 x="159.88745"
                 y="281.89667">400</tspan></text>
            <text
               xml:space="preserve"
               style="font-style:normal;font-weight:normal;font-size:30px;line-height:1.25;font-family:sans-serif;letter-spacing:0px;word-spacing:0px;fill:#000000;fill-opacity:1;stroke:none;stroke-width:0.75;stroke-linecap:butt;stroke-linejoin:round"
               x="160.00443"
               y="146.71393"
               id="text587-3-7-3-3-0-2-1-7-2"><tspan
                 sodipodi:role="line"
                 id="tspan585-6-5-5-6-6-6-8-9-0"
                 style="stroke-width:0.75;stroke-linecap:butt;stroke-linejoin:round"
                 x="160.00443"
                 y="146.71393">500</tspan></text>
            <text
               xml:space="preserve"
               style="font-style:normal;font-weight:normal;font-size:48px;line-height:1.25;font-family:sans-serif;letter-spacing:0px;word-spacing:0px;fill:#000000;fill-opacity:1;stroke:none;stroke-width:0.75;stroke-linecap:butt;stroke-linejoin:round"
               x="157.01196"
               y="-20.607178"
               id="text587-6-9-2-0-7"><tspan
                 sodipodi:role="line"
                 id="tspan585-2-1-7-9-5"
                 style="font-size:48px;stroke-width:0.75;stroke-linecap:butt;stroke-linejoin:round"
                 x="157.01196"
                 y="-20.607178">number</tspan><tspan
                 sodipodi:role="line"
                 style="font-size:48px;stroke-width:0.75;stroke-linecap:butt;stroke-linejoin:round"
                 x="157.01196"
                 y="39.392822"
                 id="tspan859">of events</tspan><tspan
                 sodipodi:role="line"
                 style="font-size:48px;stroke-width:0.75;stroke-linecap:butt;stroke-linejoin:round"
                 x="157.01196"
                 y="99.392822"
                 id="tspan861">(x 10^3)</tspan></text>
            <g
               id="figure_1-9"
               transform="translate(-1475.3053,-1.0893799)"
               style="stroke-linecap:butt;stroke-linejoin:round">
              <g
                 id="axes_1-2"
                 style="stroke-linecap:butt;stroke-linejoin:round"
                 transform="translate(1476)">
                <g
                   id="matplotlib.axis_1-2"
                   style="stroke-linecap:butt;stroke-linejoin:round">
                  <g
                     id="xtick_3-3"
                     style="stroke-linecap:butt;stroke-linejoin:round" />
                </g>
                <g
                   id="matplotlib.axis_2-0"
                   style="stroke-linecap:butt;stroke-linejoin:round">
                  <g
                     id="ytick_2-2"
                     style="stroke-linecap:butt;stroke-linejoin:round">
                    <g
                       id="line2d_8"
                       style="stroke-linecap:butt;stroke-linejoin:round">
                      <g
                         id="g1017"
                         style="stroke-linecap:butt;stroke-linejoin:round">
                        <use
                           id="use1015"
                           y="691.35876"
                           xlink:href="#m0c020d0e6c"
                           x="223.92"
                           style="stroke:#000000;stroke-width:0.80000001;stroke-linecap:butt;stroke-linejoin:round"
                           width="100%"
                           height="100%" />
                      </g>
                    </g>
                  </g>
                  <g
                     id="ytick_3-6"
                     style="stroke-linecap:butt;stroke-linejoin:round">
                    <g
                       id="line2d_9-1"
                       style="stroke-linecap:butt;stroke-linejoin:round">
                      <g
                         id="g1041"
                         style="stroke-linecap:butt;stroke-linejoin:round">
                        <use
                           id="use1039"
                           y="551.91925"
                           xlink:href="#m0c020d0e6c"
                           x="223.92"
                           style="stroke:#000000;stroke-width:0.80000001;stroke-linecap:butt;stroke-linejoin:round"
                           width="100%"
                           height="100%" />
                      </g>
                    </g>
                  </g>
                  <g
                     id="ytick_4-5"
                     style="stroke-linecap:butt;stroke-linejoin:round">
                    <g
                       id="line2d_10-5"
                       style="stroke-linecap:butt;stroke-linejoin:round">
                      <g
                         id="g1062"
                         style="stroke-linecap:butt;stroke-linejoin:round">
                        <use
                           id="use1060"
                           y="412.47968"
                           xlink:href="#m0c020d0e6c"
                           x="223.92"
                           style="stroke:#000000;stroke-width:0.80000001;stroke-linecap:butt;stroke-linejoin:round"
                           width="100%"
                           height="100%" />
                      </g>
                    </g>
                  </g>
                  <g
                     id="ytick_5-4"
                     style="stroke-linecap:butt;stroke-linejoin:round">
                    <g
                       id="line2d_11-7"
                       style="stroke-linecap:butt;stroke-linejoin:round">
                      <g
                         id="g1083"
                         style="stroke-linecap:butt;stroke-linejoin:round">
                        <use
                           id="use1081"
                           y="273.04013"
                           xlink:href="#m0c020d0e6c"
                           x="223.92"
                           style="stroke:#000000;stroke-width:0.80000001;stroke-linecap:butt;stroke-linejoin:round"
                           width="100%"
                           height="100%" />
                      </g>
                    </g>
                  </g>
                  <g
                     id="ytick_6-5"
                     style="stroke-linecap:butt;stroke-linejoin:round">
                    <g
                       id="line2d_12-6"
                       style="stroke-linecap:butt;stroke-linejoin:round">
                      <g
                         id="g1107"
                         style="stroke-linecap:butt;stroke-linejoin:round">
                        <use
                           id="use1105"
                           y="133.60057"
                           xlink:href="#m0c020d0e6c"
                           x="223.92"
                           style="stroke:#000000;stroke-width:0.80000001;stroke-linecap:butt;stroke-linejoin:round"
                           width="100%"
                           height="100%" />
                      </g>
                    </g>
                  </g>
                </g>
                <g
                   id="line2d_13-9"
                   style="stroke-linecap:butt;stroke-linejoin:round"
                   transform="translate(0,16.5)">
                  <path
                     id="path1127"
                     style="fill:none;stroke:#1f77b4;stroke-width:1.5;stroke-linecap:square;stroke-linejoin:round"
                     d="m 222.30769,830.79834 260.83441,-0.014 2.26813,-0.34999 2.26812,0.36394 2.26813,-0.0962 4.53625,0.0962 4.53625,-0.0209 2.26812,-0.54381 2.26813,0.56333 6.80438,-0.0125 4.53625,0.014 2.26812,-0.10179 4.53625,0.0906 11.34063,0.004 2.26812,-0.14781 2.26813,0.15059 4.53625,10e-4 4.53625,-0.6721 2.26813,-3.69375 2.26812,3.90012 2.26813,0.32071 2.26812,-0.1743 2.26813,-1.35535 2.26812,-7.19787 2.26813,7.29966 2.26812,-0.25239 2.26813,1.42926 2.26812,0.27191 2.26813,-1.10158 2.26812,0.38765 2.26813,0.82408 2.26812,-1.23683 2.26813,0.88684 2.26812,0.21195 2.26813,-2.69676 2.26813,0.93145 2.26812,0.58565 2.26813,-1.30515 2.26812,-0.69581 2.26813,1.71093 2.26812,-2.27705 2.26813,1.88243 2.26812,1.52826 2.26813,-2.25334 2.26812,0.76413 2.26813,1.6649 2.26812,-5.39212 2.26813,4.6266 2.26813,-2.39697 2.26812,-0.45317 2.26812,-1.52268 2.26813,5.24013 2.26813,-1.96888 2.26812,-14.95489 2.26813,11.64878 2.26812,2.07486 2.26813,1.83084 2.26812,-18.93171 2.26813,5.87877 2.26812,8.91298 2.26813,-3.46786 2.26812,8.37473 2.26813,-30.3532 2.26812,29.27394 2.26813,-18.34885 2.26813,1.3205 2.26812,8.5323 2.26813,-25.34872 2.26812,26.36245 2.26813,-19.77253 2.26812,6.71122 2.26813,18.66399 2.26812,-3.73001 2.26813,-13.61767 2.26812,-40.9771 2.26813,44.0643 2.26812,-5.42281 2.26813,-33.82385 2.26812,18.92613 2.26813,-6.95664 2.26812,-6.53135 2.26813,42.31154 2.26812,-55.13858 2.26813,31.03924 2.26813,-48.29907 2.26812,40.96316 2.26813,22.18901 2.26812,-25.4031 2.26813,22.20994 2.26812,-25.74612 2.26813,13.12265 2.26812,-34.24356 2.26813,2.66887 2.26812,-5.08257 2.26813,-15.17939 2.26812,36.11066 2.26813,-33.31908 2.26812,49.32256 2.26813,-129.69273 2.26812,-7.04449 2.26813,69.8383 2.26813,33.19917 2.26812,-103.19224 2.26813,73.10955 2.26812,-34.97981 2.26813,31.1508 2.26812,2.17944 2.26813,31.46732 2.26812,-88.53017 2.26813,90.4893 2.26812,-74.72984 2.26813,43.64737 2.26812,-39.10722 2.26813,-51.28866 2.26812,81.66138 2.26813,38.27198 2.26812,-131.05087 2.26813,123.60898 2.26813,-126.57765 2.26812,-71.30242 2.26813,100.99607 2.26812,8.64665 2.26813,73.45676 2.26812,-176.87071 2.26813,-59.40544 2.26812,162.15008 2.26813,7.80722 2.26812,-146.23305 2.26813,22.95036 2.26812,-117.74834 2.26813,225.53232 2.26812,-40.34962 2.26813,-31.41992 2.26812,38.3403 2.26813,-110.85723 2.26812,-57.18416 2.26813,62.38525 2.26813,-4.92918 2.26812,-43.76171 2.26813,117.14177 2.26812,-189.82325 2.26813,250.30934 2.26812,-293.5607 2.26813,145.96533 2.26812,82.59841 2.26813,-17.45086 2.26812,109.025 2.26813,-268.94962 2.26812,310.71316 2.26813,-565.12062 2.26812,348.74111 2.26813,68.6447 2.26812,130.80267 2.26813,-232.15431 2.26813,24.10631 2.26812,-140.21205 2.26813,-20.41535 2.26812,302.05954 2.26813,-146.25257 2.26812,15.21147 2.26813,-97.78757 2.26812,192.57021 2.26813,-101.74765 2.26812,-7.84208 2.26813,41.76354 2.26812,-86.76905 2.26813,74.45654 2.26812,57.65686 2.26813,-121.69448 2.26812,103.38327 2.26813,-223.074 2.26813,175.35918 2.26812,-57.31105 2.26813,-11.85515 2.26812,12.45893 2.26813,-241.41728 2.26812,15.88495 2.26813,312.8689 2.26812,-136.11114 2.26813,164.37972 2.26812,-73.75098 2.26813,-84.3428 2.26812,-141.27179 2.26813,127.90233 2.26812,221.27244 2.26813,-255.52717 2.26812,-88.51762 2.26813,227.90559 2.26812,-38.33333 2.26813,-234.65864 2.26813,267.27495 2.26812,-113.51635 2.26813,42.52488 2.26812,-221.02424 2.26813,-69.38234 2.26812,342.94043 2.26813,-132.23611 2.26812,84.19221 2.26813,103.54224 2.26812,50.87731 2.26813,-329.72156 2.26812,141.52139 2.26813,232.40808 2.26812,-184.84804 2.26813,31.66254 2.26812,99.44829 2.26813,44.10055 2.26813,-113.455 2.26812,41.79004 2.26813,65.43201 2.26812,7.91459 2.26813,-61.76475 2.26812,97.46685 2.26813,-59.88789 2.26812,-112.17494 2.26813,49.25005 2.26812,133.43807 2.26816,-97.92003 2.2681,193.94927 2.2681,-178.84796 2.2681,-141.89927 2.2682,184.32375 2.2681,91.92413 2.2681,-10.29064 2.2681,-16.87358 2.2682,-59.47794 2.2681,85.63401 2.2681,42.39799 2.2681,-36.08974 2.2682,0.0153 2.2681,69.66818 2.2681,-120.96102 2.2681,26.25507 2.2682,39.30941 2.2681,51.27053 2.2681,-92.54464 2.2681,35.51525 2.2682,-8.04426 2.2681,52.16015 2.2681,-105.91829 2.2681,80.02436 2.2682,-24.32662 2.2681,85.47923 2.2681,-31.06016 2.2682,-5.04771 2.2681,-51.60379 2.2681,88.34193 2.2681,-76.50769 2.2682,32.42388 2.2681,-9.03569 2.2681,57.28595 2.2681,-15.56982 2.2682,0.15757 2.2681,-39.04865 2.2681,-62.90397 2.2681,21.94499 2.2682,57.09353 2.2681,-30.83009 2.2681,23.83441 2.2681,-101.65423 2.2682,95.60534 2.2681,41.54322 2.2681,-20.01236 2.2681,18.41021 2.2682,-6.34869 2.2681,0.94261 2.2681,12.8884 2.2681,-19.67492 2.2682,20.33029 2.2681,-47.60188 2.2681,57.31384 2.2681,5.32799 2.2682,-10.61693 2.2681,-4.54015 2.2681,-23.34358 2.2681,5.89411 2.2682,7.21879 2.2681,17.7646 2.2681,-7.28851 2.2681,-18.07973 2.2682,29.82333 2.2681,-3.2838 2.2681,-4.71864 2.2681,2.4388 2.2682,-4.38677 2.2681,13.09617 2.2681,-17.02418 2.2681,-23.59317 2.2682,28.12496 2.2681,11.52886 2.2681,-7.65105 2.2681,-1.60634 2.2682,8.57274 2.2681,-9.9769 2.2681,5.36285 2.2681,-4.41187 2.2682,-4.15669 2.2681,5.71702 2.2681,11.97646 2.2681,-5.31125 2.2682,-10.91533 2.2681,-9.03289 2.2681,14.76525 2.2681,6.18554 2.2682,-10.57789 2.2681,13.21051 2.2681,-0.0879 2.2681,-0.9705 2.2682,1.06393 2.2681,-17.83711 2.2681,14.65091 2.2681,-4.36306 2.2682,8.22554 2.2681,-17.7395 2.2681,10.30458 2.2681,8.53091 2.2682,-4.52342 2.2681,4.10231 2.2681,-3.44136 2.2681,2.53361 2.2682,-0.93564 2.2681,-3.02862 2.2681,3.73698 2.2681,-0.53406 2.2682,-5.44093 2.2681,4.19574 2.2681,3.04536 2.2681,-0.20916 2.2682,0.95795 2.2681,-7.00405 2.2681,1.46969 2.2682,4.27661 2.2681,-1.74299 2.2681,2.45692 2.2681,0.32211 2.2682,-7.04588 2.2681,4.03399 2.2681,1.44877 2.2681,-4.17761 2.2682,3.83459 2.2681,1.1936 2.2681,0.56473 2.2681,0.22868 4.5363,-8.84465 2.2681,7.81559 2.2681,0.67628 2.2682,-2.35374 2.2681,2.06789 2.2681,0.59401 2.2681,-0.11713 2.2682,-1.78622 2.2681,1.43902 2.2681,-0.52569 4.5363,0.35418 2.2681,-1.69977 2.2681,2.0414 2.2681,0.33465 2.2682,-0.10597 2.2681,0.22449 2.2681,-0.21892 2.2681,-1.15456 2.2682,1.39161 2.2681,-0.0362 2.2681,-1.61471 2.2681,0.9942 4.5363,0.23844 2.2681,0.35836 4.5363,-0.039 4.5362,0.11016 2.2681,-0.0809 2.2682,-0.49501 2.2681,0.38485 2.2681,-1.50873 2.2681,1.65933 2.2682,0.0362 2.2681,-0.21473 2.2681,0.20637 2.2681,-0.014 2.2682,-0.47967 2.2681,0.40019 2.2681,0.10458 2.2681,-1.92984 2.2682,1.73463 2.2681,0.19521 4.5362,-0.01 2.2682,-0.54102 2.2681,0.55218 4.5362,-0.0293 2.2682,0.0237 2.2681,-0.12131 2.2681,0.12689 h 179.1819 24.9494 v 0"
                     clip-path="url(#pda0f6cf6a4)"
                     inkscape:connector-curvature="0" />
                </g>
                <g
                   id="patch_3-3"
                   style="stroke-linecap:butt;stroke-linejoin:round">
                  <path
                     id="path1130"
                     style="fill:none;stroke:#000000;stroke-width:0.80000001;stroke-linecap:square;stroke-linejoin:miter"
                     d="M 223.92,854.8272 V 115.2576"
                     inkscape:connector-curvature="0" />
                </g>
                <g
                   id="patch_4-7"
                   style="stroke-linecap:butt;stroke-linejoin:round">
                  <path
                     id="path1133"
                     style="fill:none;stroke:#000000;stroke-width:0.80000001;stroke-linecap:square;stroke-linejoin:miter"
                     d="M 1612.224,854.8272 V 115.2576"
                     inkscape:connector-curvature="0" />
                </g>
                <g
                   id="patch_5-4"
                   style="stroke-linecap:butt;stroke-linejoin:round">
                  <path
                     id="path1136"
                     style="fill:none;stroke:#000000;stroke-width:0.80000001;stroke-linecap:square;stroke-linejoin:miter"
                     d="M 223.92,854.8272 H 1612.224"
                     inkscape:connector-curvature="0" />
                </g>
                <g
                   id="patch_6-5"
                   style="stroke-linecap:butt;stroke-linejoin:round">
                  <path
                     id="path1139"
                     style="fill:none;stroke:#000000;stroke-width:0.80000001;stroke-linecap:square;stroke-linejoin:miter"
                     d="M 223.92,115.2576 H 1612.224"
                     inkscape:connector-curvature="0" />
                </g>
              </g>
            </g>
          </g>
          <g
             id="xtick_5"
             style="stroke-linecap:butt;stroke-linejoin:round">
            <g
               id="line2d_5"
               style="stroke-linecap:butt;stroke-linejoin:round">
              <g
                 id="g106"
                 style="stroke-linecap:butt;stroke-linejoin:round">
                <use
                   id="use104"
                   y="854.82721"
                   xlink:href="#m59dcbf7ece"
                   x="1055.7941"
                   style="stroke:#000000;stroke-width:0.80000001;stroke-linecap:butt;stroke-linejoin:round"
                   width="100%"
                   height="100%" />
              </g>
            </g>
          </g>
          <g
             id="xtick_6"
             style="stroke-linecap:butt;stroke-linejoin:round">
            <g
               id="line2d_6"
               style="stroke-linecap:butt;stroke-linejoin:round">
              <g
                 id="g123"
                 style="stroke-linecap:butt;stroke-linejoin:round">
                <use
                   id="use121"
                   y="854.82721"
                   xlink:href="#m59dcbf7ece"
                   x="1224.2487"
                   style="stroke:#000000;stroke-width:0.80000001;stroke-linecap:butt;stroke-linejoin:round"
                   width="100%"
                   height="100%" />
              </g>
            </g>
          </g>
          <g
             id="xtick_7"
             style="stroke-linecap:butt;stroke-linejoin:round">
            <g
               id="line2d_7"
               style="stroke-linecap:butt;stroke-linejoin:round">
              <g
                 id="g143"
                 style="stroke-linecap:butt;stroke-linejoin:round">
                <use
                   id="use141"
                   y="854.82721"
                   xlink:href="#m59dcbf7ece"
                   x="1392.7034"
                   style="stroke:#000000;stroke-width:0.80000001;stroke-linecap:butt;stroke-linejoin:round"
                   width="100%"
                   height="100%" />
              </g>
            </g>
          </g>
          <g
             id="xtick_8"
             style="stroke-linecap:butt;stroke-linejoin:round" />
        </g>
        <g
           id="matplotlib.axis_2"
           style="stroke-linecap:butt;stroke-linejoin:round">
          <g
             id="ytick_1"
             style="stroke-linecap:butt;stroke-linejoin:round">
            <g
               id="line2d_9"
               style="stroke-linecap:butt;stroke-linejoin:round">
              <defs
                 id="defs180">
                <path
                   style="stroke:#000000;stroke-width:0.80000001;stroke-linecap:butt;stroke-linejoin:round"
                   id="path477"
                   d="M 0,0 H -3.5"
                   inkscape:connector-curvature="0" />
              </defs>
              <g
                 id="g184"
                 style="stroke-linecap:butt;stroke-linejoin:round">
                <use
                   id="use182"
                   y="846.91168"
                   xlink:href="#ma2d838a7e8"
                   x="223.92"
                   style="stroke:#000000;stroke-width:0.80000001;stroke-linecap:butt;stroke-linejoin:round"
                   width="100%"
                   height="100%" />
              </g>
            </g>
          </g>
        </g>
        <g
           id="line2d_16"
           style="stroke-linecap:butt;stroke-linejoin:round" />
        <g
           id="patch_3"
           style="stroke-linecap:butt;stroke-linejoin:round">
          <path
             id="path332"
             style="fill:none;stroke:#000000;stroke-width:0.80000001;stroke-linecap:square;stroke-linejoin:miter"
             d="M 223.92,854.8272 V 115.2576"
             inkscape:connector-curvature="0" />
        </g>
        <g
           id="patch_4"
           style="stroke-linecap:butt;stroke-linejoin:round">
          <path
             id="path335"
             style="fill:none;stroke:#000000;stroke-width:0.80000001;stroke-linecap:square;stroke-linejoin:miter"
             d="M 1612.224,854.8272 V 115.2576"
             inkscape:connector-curvature="0" />
        </g>
        <g
           id="patch_5"
           style="stroke-linecap:butt;stroke-linejoin:round">
          <path
             id="path338"
             style="fill:none;stroke:#000000;stroke-width:0.80000001;stroke-linecap:square;stroke-linejoin:miter"
             d="M 223.92,854.8272 H 1612.224"
             inkscape:connector-curvature="0" />
        </g>
        <g
           id="patch_6"
           style="stroke-linecap:butt;stroke-linejoin:round">
          <path
             id="path341"
             style="fill:none;stroke:#000000;stroke-width:0.80000001;stroke-linecap:square;stroke-linejoin:miter"
             d="M 223.92,115.2576 H 1612.224"
             inkscape:connector-curvature="0" />
        </g>
      </g>
    </g>
  </g>
</svg>
