<?xml version="1.0" encoding="utf-8" standalone="no"?>
<!DOCTYPE svg PUBLIC "-//W3C//DTD SVG 1.1//EN"
  "http://www.w3.org/Graphics/SVG/1.1/DTD/svg11.dtd">
<svg height="960.48pt" version="1.1" viewBox="0 0 1791.36 960.48" width="1791.36pt" xmlns="http://www.w3.org/2000/svg" xmlns:xlink="http://www.w3.org/1999/xlink">
 <metadata>
  <rdf:RDF xmlns:cc="http://creativecommons.org/ns#" xmlns:dc="http://purl.org/dc/elements/1.1/" xmlns:rdf="http://www.w3.org/1999/02/22-rdf-syntax-ns#">
   <cc:Work>
    <dc:type rdf:resource="http://purl.org/dc/dcmitype/StillImage"/>
    <dc:date>2022-04-14T16:33:06.290355</dc:date>
    <dc:format>image/svg+xml</dc:format>
    <dc:creator>
     <cc:Agent>
      <dc:title>Matplotlib v3.4.3, https://matplotlib.org/</dc:title>
     </cc:Agent>
    </dc:creator>
   </cc:Work>
  </rdf:RDF>
 </metadata>
 <defs>
  <style type="text/css">*{stroke-linecap:butt;stroke-linejoin:round;}</style>
 </defs>
 <g id="figure_1">
  <g id="patch_1">
   <path d="M 0 960.48 
L 1791.36 960.48 
L 1791.36 0 
L 0 0 
z
" style="fill:#ffffff;"/>
  </g>
  <g id="axes_1">
   <g id="patch_2">
    <path d="M 223.92 854.8272 
L 1612.224 854.8272 
L 1612.224 115.2576 
L 223.92 115.2576 
z
" style="fill:#ffffff;"/>
   </g>
   <g id="matplotlib.axis_1">
    <g id="xtick_1">
     <g id="line2d_1">
      <defs>
       <path d="M 0 0 
L 0 3.5 
" id="m59dcbf7ece" style="stroke:#000000;stroke-width:0.8;"/>
      </defs>
      <g>
       <use style="stroke:#000000;stroke-width:0.8;" x="381.975203" xlink:href="#m59dcbf7ece" y="854.8272"/>
      </g>
     </g>
     <g id="text_1">
      <!-- 2550 -->
      <g transform="translate(369.250203 869.425637)scale(0.1 -0.1)">
       <defs>
        <path d="M 1228 531 
L 3431 531 
L 3431 0 
L 469 0 
L 469 531 
Q 828 903 1448 1529 
Q 2069 2156 2228 2338 
Q 2531 2678 2651 2914 
Q 2772 3150 2772 3378 
Q 2772 3750 2511 3984 
Q 2250 4219 1831 4219 
Q 1534 4219 1204 4116 
Q 875 4013 500 3803 
L 500 4441 
Q 881 4594 1212 4672 
Q 1544 4750 1819 4750 
Q 2544 4750 2975 4387 
Q 3406 4025 3406 3419 
Q 3406 3131 3298 2873 
Q 3191 2616 2906 2266 
Q 2828 2175 2409 1742 
Q 1991 1309 1228 531 
z
" id="DejaVuSans-32" transform="scale(0.015625)"/>
        <path d="M 691 4666 
L 3169 4666 
L 3169 4134 
L 1269 4134 
L 1269 2991 
Q 1406 3038 1543 3061 
Q 1681 3084 1819 3084 
Q 2600 3084 3056 2656 
Q 3513 2228 3513 1497 
Q 3513 744 3044 326 
Q 2575 -91 1722 -91 
Q 1428 -91 1123 -41 
Q 819 9 494 109 
L 494 744 
Q 775 591 1075 516 
Q 1375 441 1709 441 
Q 2250 441 2565 725 
Q 2881 1009 2881 1497 
Q 2881 1984 2565 2268 
Q 2250 2553 1709 2553 
Q 1456 2553 1204 2497 
Q 953 2441 691 2322 
L 691 4666 
z
" id="DejaVuSans-35" transform="scale(0.015625)"/>
        <path d="M 2034 4250 
Q 1547 4250 1301 3770 
Q 1056 3291 1056 2328 
Q 1056 1369 1301 889 
Q 1547 409 2034 409 
Q 2525 409 2770 889 
Q 3016 1369 3016 2328 
Q 3016 3291 2770 3770 
Q 2525 4250 2034 4250 
z
M 2034 4750 
Q 2819 4750 3233 4129 
Q 3647 3509 3647 2328 
Q 3647 1150 3233 529 
Q 2819 -91 2034 -91 
Q 1250 -91 836 529 
Q 422 1150 422 2328 
Q 422 3509 836 4129 
Q 1250 4750 2034 4750 
z
" id="DejaVuSans-30" transform="scale(0.015625)"/>
       </defs>
       <use xlink:href="#DejaVuSans-32"/>
       <use x="63.623047" xlink:href="#DejaVuSans-35"/>
       <use x="127.246094" xlink:href="#DejaVuSans-35"/>
       <use x="190.869141" xlink:href="#DejaVuSans-30"/>
      </g>
     </g>
    </g>
    <g id="xtick_2">
     <g id="line2d_2">
      <g>
       <use style="stroke:#000000;stroke-width:0.8;" x="550.429904" xlink:href="#m59dcbf7ece" y="854.8272"/>
      </g>
     </g>
     <g id="text_2">
      <!-- 2600 -->
      <g transform="translate(537.704904 869.425637)scale(0.1 -0.1)">
       <defs>
        <path d="M 2113 2584 
Q 1688 2584 1439 2293 
Q 1191 2003 1191 1497 
Q 1191 994 1439 701 
Q 1688 409 2113 409 
Q 2538 409 2786 701 
Q 3034 994 3034 1497 
Q 3034 2003 2786 2293 
Q 2538 2584 2113 2584 
z
M 3366 4563 
L 3366 3988 
Q 3128 4100 2886 4159 
Q 2644 4219 2406 4219 
Q 1781 4219 1451 3797 
Q 1122 3375 1075 2522 
Q 1259 2794 1537 2939 
Q 1816 3084 2150 3084 
Q 2853 3084 3261 2657 
Q 3669 2231 3669 1497 
Q 3669 778 3244 343 
Q 2819 -91 2113 -91 
Q 1303 -91 875 529 
Q 447 1150 447 2328 
Q 447 3434 972 4092 
Q 1497 4750 2381 4750 
Q 2619 4750 2861 4703 
Q 3103 4656 3366 4563 
z
" id="DejaVuSans-36" transform="scale(0.015625)"/>
       </defs>
       <use xlink:href="#DejaVuSans-32"/>
       <use x="63.623047" xlink:href="#DejaVuSans-36"/>
       <use x="127.246094" xlink:href="#DejaVuSans-30"/>
       <use x="190.869141" xlink:href="#DejaVuSans-30"/>
      </g>
     </g>
    </g>
    <g id="xtick_3">
     <g id="line2d_3">
      <g>
       <use style="stroke:#000000;stroke-width:0.8;" x="718.884606" xlink:href="#m59dcbf7ece" y="854.8272"/>
      </g>
     </g>
     <g id="text_3">
      <!-- 2650 -->
      <g transform="translate(706.159606 869.425637)scale(0.1 -0.1)">
       <use xlink:href="#DejaVuSans-32"/>
       <use x="63.623047" xlink:href="#DejaVuSans-36"/>
       <use x="127.246094" xlink:href="#DejaVuSans-35"/>
       <use x="190.869141" xlink:href="#DejaVuSans-30"/>
      </g>
     </g>
    </g>
    <g id="xtick_4">
     <g id="line2d_4">
      <g>
       <use style="stroke:#000000;stroke-width:0.8;" x="887.339308" xlink:href="#m59dcbf7ece" y="854.8272"/>
      </g>
     </g>
     <g id="text_4">
      <!-- 2700 -->
      <g transform="translate(874.614308 869.425637)scale(0.1 -0.1)">
       <defs>
        <path d="M 525 4666 
L 3525 4666 
L 3525 4397 
L 1831 0 
L 1172 0 
L 2766 4134 
L 525 4134 
L 525 4666 
z
" id="DejaVuSans-37" transform="scale(0.015625)"/>
       </defs>
       <use xlink:href="#DejaVuSans-32"/>
       <use x="63.623047" xlink:href="#DejaVuSans-37"/>
       <use x="127.246094" xlink:href="#DejaVuSans-30"/>
       <use x="190.869141" xlink:href="#DejaVuSans-30"/>
      </g>
     </g>
    </g>
    <g id="xtick_5">
     <g id="line2d_5">
      <g>
       <use style="stroke:#000000;stroke-width:0.8;" x="1055.79401" xlink:href="#m59dcbf7ece" y="854.8272"/>
      </g>
     </g>
     <g id="text_5">
      <!-- 2750 -->
      <g transform="translate(1043.06901 869.425637)scale(0.1 -0.1)">
       <use xlink:href="#DejaVuSans-32"/>
       <use x="63.623047" xlink:href="#DejaVuSans-37"/>
       <use x="127.246094" xlink:href="#DejaVuSans-35"/>
       <use x="190.869141" xlink:href="#DejaVuSans-30"/>
      </g>
     </g>
    </g>
    <g id="xtick_6">
     <g id="line2d_6">
      <g>
       <use style="stroke:#000000;stroke-width:0.8;" x="1224.248711" xlink:href="#m59dcbf7ece" y="854.8272"/>
      </g>
     </g>
     <g id="text_6">
      <!-- 2800 -->
      <g transform="translate(1211.523711 869.425637)scale(0.1 -0.1)">
       <defs>
        <path d="M 2034 2216 
Q 1584 2216 1326 1975 
Q 1069 1734 1069 1313 
Q 1069 891 1326 650 
Q 1584 409 2034 409 
Q 2484 409 2743 651 
Q 3003 894 3003 1313 
Q 3003 1734 2745 1975 
Q 2488 2216 2034 2216 
z
M 1403 2484 
Q 997 2584 770 2862 
Q 544 3141 544 3541 
Q 544 4100 942 4425 
Q 1341 4750 2034 4750 
Q 2731 4750 3128 4425 
Q 3525 4100 3525 3541 
Q 3525 3141 3298 2862 
Q 3072 2584 2669 2484 
Q 3125 2378 3379 2068 
Q 3634 1759 3634 1313 
Q 3634 634 3220 271 
Q 2806 -91 2034 -91 
Q 1263 -91 848 271 
Q 434 634 434 1313 
Q 434 1759 690 2068 
Q 947 2378 1403 2484 
z
M 1172 3481 
Q 1172 3119 1398 2916 
Q 1625 2713 2034 2713 
Q 2441 2713 2670 2916 
Q 2900 3119 2900 3481 
Q 2900 3844 2670 4047 
Q 2441 4250 2034 4250 
Q 1625 4250 1398 4047 
Q 1172 3844 1172 3481 
z
" id="DejaVuSans-38" transform="scale(0.015625)"/>
       </defs>
       <use xlink:href="#DejaVuSans-32"/>
       <use x="63.623047" xlink:href="#DejaVuSans-38"/>
       <use x="127.246094" xlink:href="#DejaVuSans-30"/>
       <use x="190.869141" xlink:href="#DejaVuSans-30"/>
      </g>
     </g>
    </g>
    <g id="xtick_7">
     <g id="line2d_7">
      <g>
       <use style="stroke:#000000;stroke-width:0.8;" x="1392.703413" xlink:href="#m59dcbf7ece" y="854.8272"/>
      </g>
     </g>
     <g id="text_7">
      <!-- 2850 -->
      <g transform="translate(1379.978413 869.425637)scale(0.1 -0.1)">
       <use xlink:href="#DejaVuSans-32"/>
       <use x="63.623047" xlink:href="#DejaVuSans-38"/>
       <use x="127.246094" xlink:href="#DejaVuSans-35"/>
       <use x="190.869141" xlink:href="#DejaVuSans-30"/>
      </g>
     </g>
    </g>
    <g id="xtick_8">
     <g id="line2d_8">
      <g>
       <use style="stroke:#000000;stroke-width:0.8;" x="1561.158115" xlink:href="#m59dcbf7ece" y="854.8272"/>
      </g>
     </g>
     <g id="text_8">
      <!-- 2900 -->
      <g transform="translate(1548.433115 869.425637)scale(0.1 -0.1)">
       <defs>
        <path d="M 703 97 
L 703 672 
Q 941 559 1184 500 
Q 1428 441 1663 441 
Q 2288 441 2617 861 
Q 2947 1281 2994 2138 
Q 2813 1869 2534 1725 
Q 2256 1581 1919 1581 
Q 1219 1581 811 2004 
Q 403 2428 403 3163 
Q 403 3881 828 4315 
Q 1253 4750 1959 4750 
Q 2769 4750 3195 4129 
Q 3622 3509 3622 2328 
Q 3622 1225 3098 567 
Q 2575 -91 1691 -91 
Q 1453 -91 1209 -44 
Q 966 3 703 97 
z
M 1959 2075 
Q 2384 2075 2632 2365 
Q 2881 2656 2881 3163 
Q 2881 3666 2632 3958 
Q 2384 4250 1959 4250 
Q 1534 4250 1286 3958 
Q 1038 3666 1038 3163 
Q 1038 2656 1286 2365 
Q 1534 2075 1959 2075 
z
" id="DejaVuSans-39" transform="scale(0.015625)"/>
       </defs>
       <use xlink:href="#DejaVuSans-32"/>
       <use x="63.623047" xlink:href="#DejaVuSans-39"/>
       <use x="127.246094" xlink:href="#DejaVuSans-30"/>
       <use x="190.869141" xlink:href="#DejaVuSans-30"/>
      </g>
     </g>
    </g>
   </g>
   <g id="matplotlib.axis_2">
    <g id="ytick_1">
     <g id="line2d_9">
      <defs>
       <path d="M 0 0 
L -3.5 0 
" id="ma2d838a7e8" style="stroke:#000000;stroke-width:0.8;"/>
      </defs>
      <g>
       <use style="stroke:#000000;stroke-width:0.8;" x="223.92" xlink:href="#ma2d838a7e8" y="846.911656"/>
      </g>
     </g>
     <g id="text_9">
      <!-- 0 -->
      <g transform="translate(210.5575 850.710874)scale(0.1 -0.1)">
       <use xlink:href="#DejaVuSans-30"/>
      </g>
     </g>
    </g>
    <g id="ytick_2">
     <g id="line2d_10">
      <g>
       <use style="stroke:#000000;stroke-width:0.8;" x="223.92" xlink:href="#ma2d838a7e8" y="733.440225"/>
      </g>
     </g>
     <g id="text_10">
      <!-- 100000 -->
      <g transform="translate(178.745 737.239444)scale(0.1 -0.1)">
       <defs>
        <path d="M 794 531 
L 1825 531 
L 1825 4091 
L 703 3866 
L 703 4441 
L 1819 4666 
L 2450 4666 
L 2450 531 
L 3481 531 
L 3481 0 
L 794 0 
L 794 531 
z
" id="DejaVuSans-31" transform="scale(0.015625)"/>
       </defs>
       <use xlink:href="#DejaVuSans-31"/>
       <use x="63.623047" xlink:href="#DejaVuSans-30"/>
       <use x="127.246094" xlink:href="#DejaVuSans-30"/>
       <use x="190.869141" xlink:href="#DejaVuSans-30"/>
       <use x="254.492188" xlink:href="#DejaVuSans-30"/>
       <use x="318.115234" xlink:href="#DejaVuSans-30"/>
      </g>
     </g>
    </g>
    <g id="ytick_3">
     <g id="line2d_11">
      <g>
       <use style="stroke:#000000;stroke-width:0.8;" x="223.92" xlink:href="#ma2d838a7e8" y="619.968795"/>
      </g>
     </g>
     <g id="text_11">
      <!-- 200000 -->
      <g transform="translate(178.745 623.768013)scale(0.1 -0.1)">
       <use xlink:href="#DejaVuSans-32"/>
       <use x="63.623047" xlink:href="#DejaVuSans-30"/>
       <use x="127.246094" xlink:href="#DejaVuSans-30"/>
       <use x="190.869141" xlink:href="#DejaVuSans-30"/>
       <use x="254.492188" xlink:href="#DejaVuSans-30"/>
       <use x="318.115234" xlink:href="#DejaVuSans-30"/>
      </g>
     </g>
    </g>
    <g id="ytick_4">
     <g id="line2d_12">
      <g>
       <use style="stroke:#000000;stroke-width:0.8;" x="223.92" xlink:href="#ma2d838a7e8" y="506.497364"/>
      </g>
     </g>
     <g id="text_12">
      <!-- 300000 -->
      <g transform="translate(178.745 510.296583)scale(0.1 -0.1)">
       <defs>
        <path d="M 2597 2516 
Q 3050 2419 3304 2112 
Q 3559 1806 3559 1356 
Q 3559 666 3084 287 
Q 2609 -91 1734 -91 
Q 1441 -91 1130 -33 
Q 819 25 488 141 
L 488 750 
Q 750 597 1062 519 
Q 1375 441 1716 441 
Q 2309 441 2620 675 
Q 2931 909 2931 1356 
Q 2931 1769 2642 2001 
Q 2353 2234 1838 2234 
L 1294 2234 
L 1294 2753 
L 1863 2753 
Q 2328 2753 2575 2939 
Q 2822 3125 2822 3475 
Q 2822 3834 2567 4026 
Q 2313 4219 1838 4219 
Q 1578 4219 1281 4162 
Q 984 4106 628 3988 
L 628 4550 
Q 988 4650 1302 4700 
Q 1616 4750 1894 4750 
Q 2613 4750 3031 4423 
Q 3450 4097 3450 3541 
Q 3450 3153 3228 2886 
Q 3006 2619 2597 2516 
z
" id="DejaVuSans-33" transform="scale(0.015625)"/>
       </defs>
       <use xlink:href="#DejaVuSans-33"/>
       <use x="63.623047" xlink:href="#DejaVuSans-30"/>
       <use x="127.246094" xlink:href="#DejaVuSans-30"/>
       <use x="190.869141" xlink:href="#DejaVuSans-30"/>
       <use x="254.492188" xlink:href="#DejaVuSans-30"/>
       <use x="318.115234" xlink:href="#DejaVuSans-30"/>
      </g>
     </g>
    </g>
    <g id="ytick_5">
     <g id="line2d_13">
      <g>
       <use style="stroke:#000000;stroke-width:0.8;" x="223.92" xlink:href="#ma2d838a7e8" y="393.025934"/>
      </g>
     </g>
     <g id="text_13">
      <!-- 400000 -->
      <g transform="translate(178.745 396.825153)scale(0.1 -0.1)">
       <defs>
        <path d="M 2419 4116 
L 825 1625 
L 2419 1625 
L 2419 4116 
z
M 2253 4666 
L 3047 4666 
L 3047 1625 
L 3713 1625 
L 3713 1100 
L 3047 1100 
L 3047 0 
L 2419 0 
L 2419 1100 
L 313 1100 
L 313 1709 
L 2253 4666 
z
" id="DejaVuSans-34" transform="scale(0.015625)"/>
       </defs>
       <use xlink:href="#DejaVuSans-34"/>
       <use x="63.623047" xlink:href="#DejaVuSans-30"/>
       <use x="127.246094" xlink:href="#DejaVuSans-30"/>
       <use x="190.869141" xlink:href="#DejaVuSans-30"/>
       <use x="254.492188" xlink:href="#DejaVuSans-30"/>
       <use x="318.115234" xlink:href="#DejaVuSans-30"/>
      </g>
     </g>
    </g>
    <g id="ytick_6">
     <g id="line2d_14">
      <g>
       <use style="stroke:#000000;stroke-width:0.8;" x="223.92" xlink:href="#ma2d838a7e8" y="279.554503"/>
      </g>
     </g>
     <g id="text_14">
      <!-- 500000 -->
      <g transform="translate(178.745 283.353722)scale(0.1 -0.1)">
       <use xlink:href="#DejaVuSans-35"/>
       <use x="63.623047" xlink:href="#DejaVuSans-30"/>
       <use x="127.246094" xlink:href="#DejaVuSans-30"/>
       <use x="190.869141" xlink:href="#DejaVuSans-30"/>
       <use x="254.492188" xlink:href="#DejaVuSans-30"/>
       <use x="318.115234" xlink:href="#DejaVuSans-30"/>
      </g>
     </g>
    </g>
    <g id="ytick_7">
     <g id="line2d_15">
      <g>
       <use style="stroke:#000000;stroke-width:0.8;" x="223.92" xlink:href="#ma2d838a7e8" y="166.083073"/>
      </g>
     </g>
     <g id="text_15">
      <!-- 600000 -->
      <g transform="translate(178.745 169.882292)scale(0.1 -0.1)">
       <use xlink:href="#DejaVuSans-36"/>
       <use x="63.623047" xlink:href="#DejaVuSans-30"/>
       <use x="127.246094" xlink:href="#DejaVuSans-30"/>
       <use x="190.869141" xlink:href="#DejaVuSans-30"/>
       <use x="254.492188" xlink:href="#DejaVuSans-30"/>
       <use x="318.115234" xlink:href="#DejaVuSans-30"/>
      </g>
     </g>
    </g>
   </g>
   <g id="line2d_16">
    <path clip-path="url(#pf27e50f978)" d="M 223.627783 846.911656 
L 398.820673 846.878749 
L 402.189767 846.789106 
L 405.558861 846.869671 
L 408.927955 846.673366 
L 412.297049 846.877614 
L 419.035237 846.863998 
L 442.618895 846.787972 
L 445.987989 846.1809 
L 449.357083 846.702868 
L 452.726177 846.591666 
L 456.095271 846.646132 
L 459.464365 846.248982 
L 462.833459 846.262599 
L 466.202554 846.646132 
L 469.571648 846.212672 
L 472.940742 846.598474 
L 479.67893 845.874527 
L 483.048024 846.248982 
L 486.417118 845.986863 
L 489.786212 845.388869 
L 493.155306 845.494397 
L 496.5244 845.302631 
L 499.893494 845.325325 
L 503.262588 845.987998 
L 506.631682 845.64191 
L 510.000776 845.56248 
L 513.36987 845.299227 
L 516.738964 844.813569 
L 520.108058 844.444787 
L 523.477152 843.432622 
L 526.846246 841.942742 
L 530.21534 845.033703 
L 540.322622 843.446238 
L 543.691716 840.629877 
L 547.06081 840.924903 
L 550.429904 842.313793 
L 553.798998 841.305032 
L 557.168092 840.620799 
L 560.537187 842.452228 
L 563.906281 838.742847 
L 567.275375 842.111814 
L 570.644469 837.011273 
L 574.013563 838.342293 
L 577.382657 835.876559 
L 580.751751 828.913952 
L 584.120845 835.578129 
L 587.489939 835.491891 
L 590.859033 837.324454 
L 594.228127 833.869249 
L 597.597221 834.725959 
L 600.966315 834.291363 
L 604.335409 828.715377 
L 607.704503 828.378367 
L 611.073597 824.278644 
L 614.442691 831.120971 
L 617.811785 826.357441 
L 621.180879 829.181745 
L 624.549973 825.74356 
L 627.919067 827.421803 
L 631.288161 825.257903 
L 634.657255 817.188949 
L 638.026349 816.597763 
L 641.395443 816.694214 
L 644.764537 814.66421 
L 648.133631 811.863735 
L 651.502725 823.988157 
L 654.871819 803.432808 
L 658.240914 810.193435 
L 661.610008 809.067799 
L 664.979102 803.508833 
L 668.348196 796.802672 
L 671.71729 795.147124 
L 675.086384 793.687881 
L 678.455478 794.822595 
L 681.824572 794.033969 
L 685.193666 786.910233 
L 688.56276 782.843417 
L 691.931854 774.771059 
L 695.300948 764.77763 
L 698.670042 754.110181 
L 702.039136 767.175281 
L 705.40823 755.107595 
L 708.777324 749.633733 
L 712.146418 735.573488 
L 715.515512 726.961006 
L 718.884606 708.464029 
L 722.2537 738.074398 
L 725.622794 718.72525 
L 728.991888 705.803124 
L 732.360982 707.894402 
L 735.730076 691.031413 
L 739.09917 695.88799 
L 742.468264 643.00463 
L 745.837358 681.757393 
L 749.206452 671.527943 
L 752.575547 572.284695 
L 755.944641 664.189746 
L 759.313735 617.891133 
L 762.682829 615.768082 
L 766.051923 585.490501 
L 769.421017 548.671291 
L 772.790111 578.792282 
L 776.159205 588.111691 
L 779.528299 527.014134 
L 782.897393 577.121983 
L 786.266487 464.616194 
L 789.635581 531.265908 
L 793.004675 476.98458 
L 796.373769 480.327448 
L 799.742863 453.618543 
L 803.111957 502.596216 
L 806.481051 379.150647 
L 809.850145 414.740961 
L 813.219239 341.878687 
L 816.588333 427.121829 
L 819.957427 359.691432 
L 823.326521 308.40348 
L 826.695615 395.520036 
L 830.064709 382.029417 
L 833.433803 384.513307 
L 836.802897 278.326742 
L 840.171991 312.935529 
L 843.541085 213.014857 
L 846.910179 233.030082 
L 850.279274 289.807782 
L 853.648368 273.641507 
L 857.017462 278.478794 
L 860.386556 224.352922 
L 863.75565 293.357168 
L 867.124744 232.459321 
L 870.493838 264.165508 
L 873.862932 229.596437 
L 877.232026 210.685288 
L 880.60112 265.575958 
L 883.970214 141.400767 
L 887.339308 280.873041 
L 890.708402 208.163953 
L 894.077496 288.050109 
L 897.44659 231.547011 
L 900.815684 239.940492 
L 904.184778 246.452618 
L 907.553872 267.322283 
L 910.922966 298.677844 
L 914.29206 309.580179 
L 917.661154 284.103573 
L 921.030248 280.698295 
L 924.399342 360.270136 
L 927.768436 359.096841 
L 931.13753 354.429761 
L 934.506624 380.963921 
L 937.875718 434.836752 
L 941.244812 484.081083 
L 944.613907 406.051319 
L 947.983001 426.846094 
L 951.352095 537.657754 
L 954.721189 505.245774 
L 958.090283 560.929609 
L 961.459377 550.094223 
L 964.828471 524.652793 
L 968.197565 564.518711 
L 971.566659 626.454822 
L 974.935753 619.934753 
L 978.304847 618.152117 
L 981.673941 665.342616 
L 985.043035 656.007321 
L 988.412129 666.231097 
L 991.781223 677.965178 
L 995.150317 685.584784 
L 998.519411 710.212623 
L 1001.888505 726.981431 
L 1005.257599 732.703796 
L 1008.626693 731.127677 
L 1011.995787 739.874055 
L 1015.364881 738.522611 
L 1018.733975 766.093899 
L 1022.103069 747.28374 
L 1025.472163 778.312502 
L 1028.841257 774.453339 
L 1032.210351 789.902474 
L 1035.579445 791.222147 
L 1038.948539 778.116197 
L 1042.317634 796.568921 
L 1045.686728 802.286746 
L 1049.055822 796.254605 
L 1052.424916 794.662601 
L 1055.79401 809.534166 
L 1059.163104 805.591034 
L 1062.532198 817.536172 
L 1065.901292 818.232886 
L 1069.270386 811.277088 
L 1072.63948 815.626448 
L 1076.008574 821.558734 
L 1079.377668 817.075478 
L 1082.746762 815.057956 
L 1086.115856 818.188632 
L 1089.48495 825.176203 
L 1092.854044 820.717911 
L 1096.223138 827.837108 
L 1099.592232 823.305059 
L 1102.961326 828.204756 
L 1106.33042 820.901734 
L 1109.699514 826.603674 
L 1113.068608 824.39325 
L 1116.437702 828.613253 
L 1119.806796 826.586653 
L 1123.17589 819.158813 
L 1126.544984 833.21225 
L 1129.914078 828.977496 
L 1133.283172 828.46347 
L 1136.652267 831.534007 
L 1140.021361 825.229535 
L 1143.390455 832.43497 
L 1146.759549 830.535459 
L 1150.128643 829.673076 
L 1153.497737 830.175754 
L 1156.866831 831.068774 
L 1160.235925 832.682338 
L 1163.605019 831.543085 
L 1166.974113 831.294583 
L 1170.343207 835.124243 
L 1173.712301 832.542768 
L 1177.081395 833.326856 
L 1180.450489 833.214519 
L 1183.819583 831.1448 
L 1187.188677 835.237715 
L 1190.557771 829.986257 
L 1193.926865 837.030563 
L 1197.295959 835.615575 
L 1200.665053 832.944457 
L 1204.034147 834.310653 
L 1207.403241 835.014176 
L 1210.772335 834.181296 
L 1214.141429 837.784014 
L 1217.510523 833.717198 
L 1220.879617 837.753376 
L 1224.248711 833.188421 
L 1227.617805 834.547809 
L 1230.9869 839.534878 
L 1234.355994 837.284739 
L 1237.725088 838.743982 
L 1241.094182 836.887589 
L 1244.463276 838.740578 
L 1247.83237 838.748521 
L 1251.201464 840.121525 
L 1254.570558 839.175173 
L 1257.939652 838.677034 
L 1261.308746 837.950817 
L 1264.67784 838.343428 
L 1268.046934 839.935432 
L 1271.416028 841.880332 
L 1274.785122 839.660831 
L 1278.154216 841.617079 
L 1281.52331 837.704584 
L 1284.892404 842.356912 
L 1288.261498 841.219929 
L 1291.630592 843.145539 
L 1294.999686 839.811748 
L 1298.36878 842.64286 
L 1301.737874 840.35868 
L 1305.106968 841.503607 
L 1308.476062 843.211352 
L 1315.21425 841.130286 
L 1318.583344 843.664103 
L 1321.952438 843.901259 
L 1325.321532 842.933347 
L 1328.690627 843.450777 
L 1332.059721 843.821829 
L 1335.428815 844.725061 
L 1338.797909 843.087668 
L 1342.167003 844.110046 
L 1345.536097 844.815838 
L 1348.905191 844.324507 
L 1352.274285 844.060119 
L 1355.643379 845.08817 
L 1359.012473 845.240221 
L 1362.381567 845.039377 
L 1365.750661 845.429719 
L 1369.119755 844.928175 
L 1372.488849 845.270859 
L 1375.857943 845.022356 
L 1379.227037 845.420641 
L 1382.596131 845.632833 
L 1385.965225 845.515957 
L 1389.334319 845.825734 
L 1392.703413 845.795097 
L 1396.072507 846.262599 
L 1399.441601 846.103739 
L 1402.810695 846.094661 
L 1406.179789 846.231962 
L 1409.548883 845.987998 
L 1412.917977 846.23877 
L 1416.287071 846.300045 
L 1419.656165 846.141185 
L 1429.763448 846.55649 
L 1446.608918 846.680174 
L 1449.978012 846.573511 
L 1453.347106 846.752796 
L 1480.299858 846.808397 
L 1490.40714 846.856055 
L 1615.06362 846.911656 
L 1615.06362 846.911656 
" style="fill:none;stroke:#1f77b4;stroke-linecap:square;stroke-width:1.5;"/>
   </g>
   <g id="patch_3">
    <path d="M 223.92 854.8272 
L 223.92 115.2576 
" style="fill:none;stroke:#000000;stroke-linecap:square;stroke-linejoin:miter;stroke-width:0.8;"/>
   </g>
   <g id="patch_4">
    <path d="M 1612.224 854.8272 
L 1612.224 115.2576 
" style="fill:none;stroke:#000000;stroke-linecap:square;stroke-linejoin:miter;stroke-width:0.8;"/>
   </g>
   <g id="patch_5">
    <path d="M 223.92 854.8272 
L 1612.224 854.8272 
" style="fill:none;stroke:#000000;stroke-linecap:square;stroke-linejoin:miter;stroke-width:0.8;"/>
   </g>
   <g id="patch_6">
    <path d="M 223.92 115.2576 
L 1612.224 115.2576 
" style="fill:none;stroke:#000000;stroke-linecap:square;stroke-linejoin:miter;stroke-width:0.8;"/>
   </g>
  </g>
 </g>
 <defs>
  <clipPath id="pf27e50f978">
   <rect height="739.5696" width="1388.304" x="223.92" y="115.2576"/>
  </clipPath>
 </defs>
</svg>
