<?xml version="1.0" encoding="utf-8" standalone="no"?>
<!DOCTYPE svg PUBLIC "-//W3C//DTD SVG 1.1//EN"
  "http://www.w3.org/Graphics/SVG/1.1/DTD/svg11.dtd">
<svg height="960.48pt" version="1.1" viewBox="0 0 1791.36 960.48" width="1791.36pt" xmlns="http://www.w3.org/2000/svg" xmlns:xlink="http://www.w3.org/1999/xlink">
 <metadata>
  <rdf:RDF xmlns:cc="http://creativecommons.org/ns#" xmlns:dc="http://purl.org/dc/elements/1.1/" xmlns:rdf="http://www.w3.org/1999/02/22-rdf-syntax-ns#">
   <cc:Work>
    <dc:type rdf:resource="http://purl.org/dc/dcmitype/StillImage"/>
    <dc:date>2022-04-14T15:48:52.327160</dc:date>
    <dc:format>image/svg+xml</dc:format>
    <dc:creator>
     <cc:Agent>
      <dc:title>Matplotlib v3.4.3, https://matplotlib.org/</dc:title>
     </cc:Agent>
    </dc:creator>
   </cc:Work>
  </rdf:RDF>
 </metadata>
 <defs>
  <style type="text/css">*{stroke-linecap:butt;stroke-linejoin:round;}</style>
 </defs>
 <g id="figure_1">
  <g id="patch_1">
   <path d="M 0 960.48 
L 1791.36 960.48 
L 1791.36 0 
L 0 0 
z
" style="fill:#ffffff;"/>
  </g>
  <g id="axes_1">
   <g id="patch_2">
    <path d="M 223.92 332.778071 
L 1612.224 332.778071 
L 1612.224 115.2576 
L 223.92 115.2576 
z
" style="fill:#ffffff;"/>
   </g>
   <g id="matplotlib.axis_1">
    <g id="xtick_1">
     <g id="line2d_1">
      <defs>
       <path d="M 0 0 
L 0 3.5 
" id="m0c7654c8fd" style="stroke:#000000;stroke-width:0.8;"/>
      </defs>
      <g>
       <use style="stroke:#000000;stroke-width:0.8;" x="285.789801" xlink:href="#m0c7654c8fd" y="332.778071"/>
      </g>
     </g>
     <g id="text_1">
      <!-- 0 -->
      <g transform="translate(282.608551 347.376508)scale(0.1 -0.1)">
       <defs>
        <path d="M 2034 4250 
Q 1547 4250 1301 3770 
Q 1056 3291 1056 2328 
Q 1056 1369 1301 889 
Q 1547 409 2034 409 
Q 2525 409 2770 889 
Q 3016 1369 3016 2328 
Q 3016 3291 2770 3770 
Q 2525 4250 2034 4250 
z
M 2034 4750 
Q 2819 4750 3233 4129 
Q 3647 3509 3647 2328 
Q 3647 1150 3233 529 
Q 2819 -91 2034 -91 
Q 1250 -91 836 529 
Q 422 1150 422 2328 
Q 422 3509 836 4129 
Q 1250 4750 2034 4750 
z
" id="DejaVuSans-30" transform="scale(0.015625)"/>
       </defs>
       <use xlink:href="#DejaVuSans-30"/>
      </g>
     </g>
    </g>
    <g id="xtick_2">
     <g id="line2d_2">
      <g>
       <use style="stroke:#000000;stroke-width:0.8;" x="532.775035" xlink:href="#m0c7654c8fd" y="332.778071"/>
      </g>
     </g>
     <g id="text_2">
      <!-- 200 -->
      <g transform="translate(523.231285 347.376508)scale(0.1 -0.1)">
       <defs>
        <path d="M 1228 531 
L 3431 531 
L 3431 0 
L 469 0 
L 469 531 
Q 828 903 1448 1529 
Q 2069 2156 2228 2338 
Q 2531 2678 2651 2914 
Q 2772 3150 2772 3378 
Q 2772 3750 2511 3984 
Q 2250 4219 1831 4219 
Q 1534 4219 1204 4116 
Q 875 4013 500 3803 
L 500 4441 
Q 881 4594 1212 4672 
Q 1544 4750 1819 4750 
Q 2544 4750 2975 4387 
Q 3406 4025 3406 3419 
Q 3406 3131 3298 2873 
Q 3191 2616 2906 2266 
Q 2828 2175 2409 1742 
Q 1991 1309 1228 531 
z
" id="DejaVuSans-32" transform="scale(0.015625)"/>
       </defs>
       <use xlink:href="#DejaVuSans-32"/>
       <use x="63.623047" xlink:href="#DejaVuSans-30"/>
       <use x="127.246094" xlink:href="#DejaVuSans-30"/>
      </g>
     </g>
    </g>
    <g id="xtick_3">
     <g id="line2d_3">
      <g>
       <use style="stroke:#000000;stroke-width:0.8;" x="779.760269" xlink:href="#m0c7654c8fd" y="332.778071"/>
      </g>
     </g>
     <g id="text_3">
      <!-- 400 -->
      <g transform="translate(770.216519 347.376508)scale(0.1 -0.1)">
       <defs>
        <path d="M 2419 4116 
L 825 1625 
L 2419 1625 
L 2419 4116 
z
M 2253 4666 
L 3047 4666 
L 3047 1625 
L 3713 1625 
L 3713 1100 
L 3047 1100 
L 3047 0 
L 2419 0 
L 2419 1100 
L 313 1100 
L 313 1709 
L 2253 4666 
z
" id="DejaVuSans-34" transform="scale(0.015625)"/>
       </defs>
       <use xlink:href="#DejaVuSans-34"/>
       <use x="63.623047" xlink:href="#DejaVuSans-30"/>
       <use x="127.246094" xlink:href="#DejaVuSans-30"/>
      </g>
     </g>
    </g>
    <g id="xtick_4">
     <g id="line2d_4">
      <g>
       <use style="stroke:#000000;stroke-width:0.8;" x="1026.745503" xlink:href="#m0c7654c8fd" y="332.778071"/>
      </g>
     </g>
     <g id="text_4">
      <!-- 600 -->
      <g transform="translate(1017.201753 347.376508)scale(0.1 -0.1)">
       <defs>
        <path d="M 2113 2584 
Q 1688 2584 1439 2293 
Q 1191 2003 1191 1497 
Q 1191 994 1439 701 
Q 1688 409 2113 409 
Q 2538 409 2786 701 
Q 3034 994 3034 1497 
Q 3034 2003 2786 2293 
Q 2538 2584 2113 2584 
z
M 3366 4563 
L 3366 3988 
Q 3128 4100 2886 4159 
Q 2644 4219 2406 4219 
Q 1781 4219 1451 3797 
Q 1122 3375 1075 2522 
Q 1259 2794 1537 2939 
Q 1816 3084 2150 3084 
Q 2853 3084 3261 2657 
Q 3669 2231 3669 1497 
Q 3669 778 3244 343 
Q 2819 -91 2113 -91 
Q 1303 -91 875 529 
Q 447 1150 447 2328 
Q 447 3434 972 4092 
Q 1497 4750 2381 4750 
Q 2619 4750 2861 4703 
Q 3103 4656 3366 4563 
z
" id="DejaVuSans-36" transform="scale(0.015625)"/>
       </defs>
       <use xlink:href="#DejaVuSans-36"/>
       <use x="63.623047" xlink:href="#DejaVuSans-30"/>
       <use x="127.246094" xlink:href="#DejaVuSans-30"/>
      </g>
     </g>
    </g>
    <g id="xtick_5">
     <g id="line2d_5">
      <g>
       <use style="stroke:#000000;stroke-width:0.8;" x="1273.730737" xlink:href="#m0c7654c8fd" y="332.778071"/>
      </g>
     </g>
     <g id="text_5">
      <!-- 800 -->
      <g transform="translate(1264.186987 347.376508)scale(0.1 -0.1)">
       <defs>
        <path d="M 2034 2216 
Q 1584 2216 1326 1975 
Q 1069 1734 1069 1313 
Q 1069 891 1326 650 
Q 1584 409 2034 409 
Q 2484 409 2743 651 
Q 3003 894 3003 1313 
Q 3003 1734 2745 1975 
Q 2488 2216 2034 2216 
z
M 1403 2484 
Q 997 2584 770 2862 
Q 544 3141 544 3541 
Q 544 4100 942 4425 
Q 1341 4750 2034 4750 
Q 2731 4750 3128 4425 
Q 3525 4100 3525 3541 
Q 3525 3141 3298 2862 
Q 3072 2584 2669 2484 
Q 3125 2378 3379 2068 
Q 3634 1759 3634 1313 
Q 3634 634 3220 271 
Q 2806 -91 2034 -91 
Q 1263 -91 848 271 
Q 434 634 434 1313 
Q 434 1759 690 2068 
Q 947 2378 1403 2484 
z
M 1172 3481 
Q 1172 3119 1398 2916 
Q 1625 2713 2034 2713 
Q 2441 2713 2670 2916 
Q 2900 3119 2900 3481 
Q 2900 3844 2670 4047 
Q 2441 4250 2034 4250 
Q 1625 4250 1398 4047 
Q 1172 3844 1172 3481 
z
" id="DejaVuSans-38" transform="scale(0.015625)"/>
       </defs>
       <use xlink:href="#DejaVuSans-38"/>
       <use x="63.623047" xlink:href="#DejaVuSans-30"/>
       <use x="127.246094" xlink:href="#DejaVuSans-30"/>
      </g>
     </g>
    </g>
    <g id="xtick_6">
     <g id="line2d_6">
      <g>
       <use style="stroke:#000000;stroke-width:0.8;" x="1520.715971" xlink:href="#m0c7654c8fd" y="332.778071"/>
      </g>
     </g>
     <g id="text_6">
      <!-- 1000 -->
      <g transform="translate(1507.990971 347.376508)scale(0.1 -0.1)">
       <defs>
        <path d="M 794 531 
L 1825 531 
L 1825 4091 
L 703 3866 
L 703 4441 
L 1819 4666 
L 2450 4666 
L 2450 531 
L 3481 531 
L 3481 0 
L 794 0 
L 794 531 
z
" id="DejaVuSans-31" transform="scale(0.015625)"/>
       </defs>
       <use xlink:href="#DejaVuSans-31"/>
       <use x="63.623047" xlink:href="#DejaVuSans-30"/>
       <use x="127.246094" xlink:href="#DejaVuSans-30"/>
       <use x="190.869141" xlink:href="#DejaVuSans-30"/>
      </g>
     </g>
    </g>
   </g>
   <g id="matplotlib.axis_2">
    <g id="ytick_1">
     <g id="line2d_7">
      <defs>
       <path d="M 0 0 
L -3.5 0 
" id="maf275aefde" style="stroke:#000000;stroke-width:0.8;"/>
      </defs>
      <g>
       <use style="stroke:#000000;stroke-width:0.8;" x="223.92" xlink:href="#maf275aefde" y="322.890776"/>
      </g>
     </g>
     <g id="text_7">
      <!-- 0 -->
      <g transform="translate(210.5575 326.689995)scale(0.1 -0.1)">
       <use xlink:href="#DejaVuSans-30"/>
      </g>
     </g>
    </g>
    <g id="ytick_2">
     <g id="line2d_8">
      <g>
       <use style="stroke:#000000;stroke-width:0.8;" x="223.92" xlink:href="#maf275aefde" y="281.693718"/>
      </g>
     </g>
     <g id="text_8">
      <!-- 500 -->
      <g transform="translate(197.8325 285.492936)scale(0.1 -0.1)">
       <defs>
        <path d="M 691 4666 
L 3169 4666 
L 3169 4134 
L 1269 4134 
L 1269 2991 
Q 1406 3038 1543 3061 
Q 1681 3084 1819 3084 
Q 2600 3084 3056 2656 
Q 3513 2228 3513 1497 
Q 3513 744 3044 326 
Q 2575 -91 1722 -91 
Q 1428 -91 1123 -41 
Q 819 9 494 109 
L 494 744 
Q 775 591 1075 516 
Q 1375 441 1709 441 
Q 2250 441 2565 725 
Q 2881 1009 2881 1497 
Q 2881 1984 2565 2268 
Q 2250 2553 1709 2553 
Q 1456 2553 1204 2497 
Q 953 2441 691 2322 
L 691 4666 
z
" id="DejaVuSans-35" transform="scale(0.015625)"/>
       </defs>
       <use xlink:href="#DejaVuSans-35"/>
       <use x="63.623047" xlink:href="#DejaVuSans-30"/>
       <use x="127.246094" xlink:href="#DejaVuSans-30"/>
      </g>
     </g>
    </g>
    <g id="ytick_3">
     <g id="line2d_9">
      <g>
       <use style="stroke:#000000;stroke-width:0.8;" x="223.92" xlink:href="#maf275aefde" y="240.496659"/>
      </g>
     </g>
     <g id="text_9">
      <!-- 1000 -->
      <g transform="translate(191.47 244.295878)scale(0.1 -0.1)">
       <use xlink:href="#DejaVuSans-31"/>
       <use x="63.623047" xlink:href="#DejaVuSans-30"/>
       <use x="127.246094" xlink:href="#DejaVuSans-30"/>
       <use x="190.869141" xlink:href="#DejaVuSans-30"/>
      </g>
     </g>
    </g>
    <g id="ytick_4">
     <g id="line2d_10">
      <g>
       <use style="stroke:#000000;stroke-width:0.8;" x="223.92" xlink:href="#maf275aefde" y="199.2996"/>
      </g>
     </g>
     <g id="text_10">
      <!-- 1500 -->
      <g transform="translate(191.47 203.098819)scale(0.1 -0.1)">
       <use xlink:href="#DejaVuSans-31"/>
       <use x="63.623047" xlink:href="#DejaVuSans-35"/>
       <use x="127.246094" xlink:href="#DejaVuSans-30"/>
       <use x="190.869141" xlink:href="#DejaVuSans-30"/>
      </g>
     </g>
    </g>
    <g id="ytick_5">
     <g id="line2d_11">
      <g>
       <use style="stroke:#000000;stroke-width:0.8;" x="223.92" xlink:href="#maf275aefde" y="158.102541"/>
      </g>
     </g>
     <g id="text_11">
      <!-- 2000 -->
      <g transform="translate(191.47 161.90176)scale(0.1 -0.1)">
       <use xlink:href="#DejaVuSans-32"/>
       <use x="63.623047" xlink:href="#DejaVuSans-30"/>
       <use x="127.246094" xlink:href="#DejaVuSans-30"/>
       <use x="190.869141" xlink:href="#DejaVuSans-30"/>
      </g>
     </g>
    </g>
    <g id="ytick_6">
     <g id="line2d_12">
      <g>
       <use style="stroke:#000000;stroke-width:0.8;" x="223.92" xlink:href="#maf275aefde" y="116.905482"/>
      </g>
     </g>
     <g id="text_12">
      <!-- 2500 -->
      <g transform="translate(191.47 120.704701)scale(0.1 -0.1)">
       <use xlink:href="#DejaVuSans-32"/>
       <use x="63.623047" xlink:href="#DejaVuSans-35"/>
       <use x="127.246094" xlink:href="#DejaVuSans-30"/>
       <use x="190.869141" xlink:href="#DejaVuSans-30"/>
      </g>
     </g>
    </g>
   </g>
   <g id="line2d_13">
    <path clip-path="url(#pf6840dae46)" d="M 287.024727 322.890776 
L 1467.614146 322.890776 
L 1468.849072 125.144894 
L 1470.083998 322.890776 
L 1549.119273 322.890776 
L 1549.119273 322.890776 
" style="fill:none;stroke:#1f77b4;stroke-linecap:square;stroke-width:1.5;"/>
   </g>
   <g id="patch_3">
    <path d="M 223.92 332.778071 
L 223.92 115.2576 
" style="fill:none;stroke:#000000;stroke-linecap:square;stroke-linejoin:miter;stroke-width:0.8;"/>
   </g>
   <g id="patch_4">
    <path d="M 1612.224 332.778071 
L 1612.224 115.2576 
" style="fill:none;stroke:#000000;stroke-linecap:square;stroke-linejoin:miter;stroke-width:0.8;"/>
   </g>
   <g id="patch_5">
    <path d="M 223.92 332.778071 
L 1612.224 332.778071 
" style="fill:none;stroke:#000000;stroke-linecap:square;stroke-linejoin:miter;stroke-width:0.8;"/>
   </g>
   <g id="patch_6">
    <path d="M 223.92 115.2576 
L 1612.224 115.2576 
" style="fill:none;stroke:#000000;stroke-linecap:square;stroke-linejoin:miter;stroke-width:0.8;"/>
   </g>
  </g>
  <g id="axes_2">
   <g id="patch_7">
    <path d="M 223.92 593.802635 
L 1612.224 593.802635 
L 1612.224 376.282165 
L 223.92 376.282165 
z
" style="fill:#ffffff;"/>
   </g>
   <g id="matplotlib.axis_3">
    <g id="xtick_7">
     <g id="line2d_14">
      <g>
       <use style="stroke:#000000;stroke-width:0.8;" x="285.789801" xlink:href="#m0c7654c8fd" y="593.802635"/>
      </g>
     </g>
     <g id="text_13">
      <!-- 0 -->
      <g transform="translate(282.608551 608.401073)scale(0.1 -0.1)">
       <use xlink:href="#DejaVuSans-30"/>
      </g>
     </g>
    </g>
    <g id="xtick_8">
     <g id="line2d_15">
      <g>
       <use style="stroke:#000000;stroke-width:0.8;" x="532.775035" xlink:href="#m0c7654c8fd" y="593.802635"/>
      </g>
     </g>
     <g id="text_14">
      <!-- 200 -->
      <g transform="translate(523.231285 608.401073)scale(0.1 -0.1)">
       <use xlink:href="#DejaVuSans-32"/>
       <use x="63.623047" xlink:href="#DejaVuSans-30"/>
       <use x="127.246094" xlink:href="#DejaVuSans-30"/>
      </g>
     </g>
    </g>
    <g id="xtick_9">
     <g id="line2d_16">
      <g>
       <use style="stroke:#000000;stroke-width:0.8;" x="779.760269" xlink:href="#m0c7654c8fd" y="593.802635"/>
      </g>
     </g>
     <g id="text_15">
      <!-- 400 -->
      <g transform="translate(770.216519 608.401073)scale(0.1 -0.1)">
       <use xlink:href="#DejaVuSans-34"/>
       <use x="63.623047" xlink:href="#DejaVuSans-30"/>
       <use x="127.246094" xlink:href="#DejaVuSans-30"/>
      </g>
     </g>
    </g>
    <g id="xtick_10">
     <g id="line2d_17">
      <g>
       <use style="stroke:#000000;stroke-width:0.8;" x="1026.745503" xlink:href="#m0c7654c8fd" y="593.802635"/>
      </g>
     </g>
     <g id="text_16">
      <!-- 600 -->
      <g transform="translate(1017.201753 608.401073)scale(0.1 -0.1)">
       <use xlink:href="#DejaVuSans-36"/>
       <use x="63.623047" xlink:href="#DejaVuSans-30"/>
       <use x="127.246094" xlink:href="#DejaVuSans-30"/>
      </g>
     </g>
    </g>
    <g id="xtick_11">
     <g id="line2d_18">
      <g>
       <use style="stroke:#000000;stroke-width:0.8;" x="1273.730737" xlink:href="#m0c7654c8fd" y="593.802635"/>
      </g>
     </g>
     <g id="text_17">
      <!-- 800 -->
      <g transform="translate(1264.186987 608.401073)scale(0.1 -0.1)">
       <use xlink:href="#DejaVuSans-38"/>
       <use x="63.623047" xlink:href="#DejaVuSans-30"/>
       <use x="127.246094" xlink:href="#DejaVuSans-30"/>
      </g>
     </g>
    </g>
    <g id="xtick_12">
     <g id="line2d_19">
      <g>
       <use style="stroke:#000000;stroke-width:0.8;" x="1520.715971" xlink:href="#m0c7654c8fd" y="593.802635"/>
      </g>
     </g>
     <g id="text_18">
      <!-- 1000 -->
      <g transform="translate(1507.990971 608.401073)scale(0.1 -0.1)">
       <use xlink:href="#DejaVuSans-31"/>
       <use x="63.623047" xlink:href="#DejaVuSans-30"/>
       <use x="127.246094" xlink:href="#DejaVuSans-30"/>
       <use x="190.869141" xlink:href="#DejaVuSans-30"/>
      </g>
     </g>
    </g>
   </g>
   <g id="matplotlib.axis_4">
    <g id="ytick_7">
     <g id="line2d_20">
      <g>
       <use style="stroke:#000000;stroke-width:0.8;" x="223.92" xlink:href="#maf275aefde" y="583.915341"/>
      </g>
     </g>
     <g id="text_19">
      <!-- 0 -->
      <g transform="translate(210.5575 587.71456)scale(0.1 -0.1)">
       <use xlink:href="#DejaVuSans-30"/>
      </g>
     </g>
    </g>
    <g id="ytick_8">
     <g id="line2d_21">
      <g>
       <use style="stroke:#000000;stroke-width:0.8;" x="223.92" xlink:href="#maf275aefde" y="541.224992"/>
      </g>
     </g>
     <g id="text_20">
      <!-- 500 -->
      <g transform="translate(197.8325 545.02421)scale(0.1 -0.1)">
       <use xlink:href="#DejaVuSans-35"/>
       <use x="63.623047" xlink:href="#DejaVuSans-30"/>
       <use x="127.246094" xlink:href="#DejaVuSans-30"/>
      </g>
     </g>
    </g>
    <g id="ytick_9">
     <g id="line2d_22">
      <g>
       <use style="stroke:#000000;stroke-width:0.8;" x="223.92" xlink:href="#maf275aefde" y="498.534642"/>
      </g>
     </g>
     <g id="text_21">
      <!-- 1000 -->
      <g transform="translate(191.47 502.333861)scale(0.1 -0.1)">
       <use xlink:href="#DejaVuSans-31"/>
       <use x="63.623047" xlink:href="#DejaVuSans-30"/>
       <use x="127.246094" xlink:href="#DejaVuSans-30"/>
       <use x="190.869141" xlink:href="#DejaVuSans-30"/>
      </g>
     </g>
    </g>
    <g id="ytick_10">
     <g id="line2d_23">
      <g>
       <use style="stroke:#000000;stroke-width:0.8;" x="223.92" xlink:href="#maf275aefde" y="455.844293"/>
      </g>
     </g>
     <g id="text_22">
      <!-- 1500 -->
      <g transform="translate(191.47 459.643511)scale(0.1 -0.1)">
       <use xlink:href="#DejaVuSans-31"/>
       <use x="63.623047" xlink:href="#DejaVuSans-35"/>
       <use x="127.246094" xlink:href="#DejaVuSans-30"/>
       <use x="190.869141" xlink:href="#DejaVuSans-30"/>
      </g>
     </g>
    </g>
    <g id="ytick_11">
     <g id="line2d_24">
      <g>
       <use style="stroke:#000000;stroke-width:0.8;" x="223.92" xlink:href="#maf275aefde" y="413.153943"/>
      </g>
     </g>
     <g id="text_23">
      <!-- 2000 -->
      <g transform="translate(191.47 416.953162)scale(0.1 -0.1)">
       <use xlink:href="#DejaVuSans-32"/>
       <use x="63.623047" xlink:href="#DejaVuSans-30"/>
       <use x="127.246094" xlink:href="#DejaVuSans-30"/>
       <use x="190.869141" xlink:href="#DejaVuSans-30"/>
      </g>
     </g>
    </g>
   </g>
   <g id="line2d_25">
    <path clip-path="url(#p8081fc4333)" d="M 287.024727 583.915341 
L 1465.144293 583.915341 
L 1466.379219 576.757305 
L 1467.614146 583.905582 
L 1468.849072 386.169459 
L 1470.083998 583.915341 
L 1549.119273 583.915341 
L 1549.119273 583.915341 
" style="fill:none;stroke:#1f77b4;stroke-linecap:square;stroke-width:1.5;"/>
   </g>
   <g id="patch_8">
    <path d="M 223.92 593.802635 
L 223.92 376.282165 
" style="fill:none;stroke:#000000;stroke-linecap:square;stroke-linejoin:miter;stroke-width:0.8;"/>
   </g>
   <g id="patch_9">
    <path d="M 1612.224 593.802635 
L 1612.224 376.282165 
" style="fill:none;stroke:#000000;stroke-linecap:square;stroke-linejoin:miter;stroke-width:0.8;"/>
   </g>
   <g id="patch_10">
    <path d="M 223.92 593.802635 
L 1612.224 593.802635 
" style="fill:none;stroke:#000000;stroke-linecap:square;stroke-linejoin:miter;stroke-width:0.8;"/>
   </g>
   <g id="patch_11">
    <path d="M 223.92 376.282165 
L 1612.224 376.282165 
" style="fill:none;stroke:#000000;stroke-linecap:square;stroke-linejoin:miter;stroke-width:0.8;"/>
   </g>
  </g>
  <g id="axes_3">
   <g id="patch_12">
    <path d="M 223.92 854.8272 
L 1612.224 854.8272 
L 1612.224 637.306729 
L 223.92 637.306729 
z
" style="fill:#ffffff;"/>
   </g>
   <g id="matplotlib.axis_5">
    <g id="xtick_13">
     <g id="line2d_26">
      <g>
       <use style="stroke:#000000;stroke-width:0.8;" x="245.360804" xlink:href="#m0c7654c8fd" y="854.8272"/>
      </g>
     </g>
     <g id="text_24">
      <!-- 0 -->
      <g transform="translate(242.179554 869.425637)scale(0.1 -0.1)">
       <use xlink:href="#DejaVuSans-30"/>
      </g>
     </g>
    </g>
    <g id="xtick_14">
     <g id="line2d_27">
      <g>
       <use style="stroke:#000000;stroke-width:0.8;" x="529.004002" xlink:href="#m0c7654c8fd" y="854.8272"/>
      </g>
     </g>
     <g id="text_25">
      <!-- 200 -->
      <g transform="translate(519.460252 869.425637)scale(0.1 -0.1)">
       <use xlink:href="#DejaVuSans-32"/>
       <use x="63.623047" xlink:href="#DejaVuSans-30"/>
       <use x="127.246094" xlink:href="#DejaVuSans-30"/>
      </g>
     </g>
    </g>
    <g id="xtick_15">
     <g id="line2d_28">
      <g>
       <use style="stroke:#000000;stroke-width:0.8;" x="812.647199" xlink:href="#m0c7654c8fd" y="854.8272"/>
      </g>
     </g>
     <g id="text_26">
      <!-- 400 -->
      <g transform="translate(803.103449 869.425637)scale(0.1 -0.1)">
       <use xlink:href="#DejaVuSans-34"/>
       <use x="63.623047" xlink:href="#DejaVuSans-30"/>
       <use x="127.246094" xlink:href="#DejaVuSans-30"/>
      </g>
     </g>
    </g>
    <g id="xtick_16">
     <g id="line2d_29">
      <g>
       <use style="stroke:#000000;stroke-width:0.8;" x="1096.290396" xlink:href="#m0c7654c8fd" y="854.8272"/>
      </g>
     </g>
     <g id="text_27">
      <!-- 600 -->
      <g transform="translate(1086.746646 869.425637)scale(0.1 -0.1)">
       <use xlink:href="#DejaVuSans-36"/>
       <use x="63.623047" xlink:href="#DejaVuSans-30"/>
       <use x="127.246094" xlink:href="#DejaVuSans-30"/>
      </g>
     </g>
    </g>
    <g id="xtick_17">
     <g id="line2d_30">
      <g>
       <use style="stroke:#000000;stroke-width:0.8;" x="1379.933593" xlink:href="#m0c7654c8fd" y="854.8272"/>
      </g>
     </g>
     <g id="text_28">
      <!-- 800 -->
      <g transform="translate(1370.389843 869.425637)scale(0.1 -0.1)">
       <use xlink:href="#DejaVuSans-38"/>
       <use x="63.623047" xlink:href="#DejaVuSans-30"/>
       <use x="127.246094" xlink:href="#DejaVuSans-30"/>
      </g>
     </g>
    </g>
   </g>
   <g id="matplotlib.axis_6">
    <g id="ytick_12">
     <g id="line2d_31">
      <g>
       <use style="stroke:#000000;stroke-width:0.8;" x="223.92" xlink:href="#maf275aefde" y="844.70132"/>
      </g>
     </g>
     <g id="text_29">
      <!-- 0 -->
      <g transform="translate(210.5575 848.500539)scale(0.1 -0.1)">
       <use xlink:href="#DejaVuSans-30"/>
      </g>
     </g>
    </g>
    <g id="ytick_13">
     <g id="line2d_32">
      <g>
       <use style="stroke:#000000;stroke-width:0.8;" x="223.92" xlink:href="#maf275aefde" y="815.584172"/>
      </g>
     </g>
     <g id="text_30">
      <!-- 10 -->
      <g transform="translate(204.195 819.383391)scale(0.1 -0.1)">
       <use xlink:href="#DejaVuSans-31"/>
       <use x="63.623047" xlink:href="#DejaVuSans-30"/>
      </g>
     </g>
    </g>
    <g id="ytick_14">
     <g id="line2d_33">
      <g>
       <use style="stroke:#000000;stroke-width:0.8;" x="223.92" xlink:href="#maf275aefde" y="786.467025"/>
      </g>
     </g>
     <g id="text_31">
      <!-- 20 -->
      <g transform="translate(204.195 790.266243)scale(0.1 -0.1)">
       <use xlink:href="#DejaVuSans-32"/>
       <use x="63.623047" xlink:href="#DejaVuSans-30"/>
      </g>
     </g>
    </g>
    <g id="ytick_15">
     <g id="line2d_34">
      <g>
       <use style="stroke:#000000;stroke-width:0.8;" x="223.92" xlink:href="#maf275aefde" y="757.349877"/>
      </g>
     </g>
     <g id="text_32">
      <!-- 30 -->
      <g transform="translate(204.195 761.149096)scale(0.1 -0.1)">
       <defs>
        <path d="M 2597 2516 
Q 3050 2419 3304 2112 
Q 3559 1806 3559 1356 
Q 3559 666 3084 287 
Q 2609 -91 1734 -91 
Q 1441 -91 1130 -33 
Q 819 25 488 141 
L 488 750 
Q 750 597 1062 519 
Q 1375 441 1716 441 
Q 2309 441 2620 675 
Q 2931 909 2931 1356 
Q 2931 1769 2642 2001 
Q 2353 2234 1838 2234 
L 1294 2234 
L 1294 2753 
L 1863 2753 
Q 2328 2753 2575 2939 
Q 2822 3125 2822 3475 
Q 2822 3834 2567 4026 
Q 2313 4219 1838 4219 
Q 1578 4219 1281 4162 
Q 984 4106 628 3988 
L 628 4550 
Q 988 4650 1302 4700 
Q 1616 4750 1894 4750 
Q 2613 4750 3031 4423 
Q 3450 4097 3450 3541 
Q 3450 3153 3228 2886 
Q 3006 2619 2597 2516 
z
" id="DejaVuSans-33" transform="scale(0.015625)"/>
       </defs>
       <use xlink:href="#DejaVuSans-33"/>
       <use x="63.623047" xlink:href="#DejaVuSans-30"/>
      </g>
     </g>
    </g>
    <g id="ytick_16">
     <g id="line2d_35">
      <g>
       <use style="stroke:#000000;stroke-width:0.8;" x="223.92" xlink:href="#maf275aefde" y="728.232729"/>
      </g>
     </g>
     <g id="text_33">
      <!-- 40 -->
      <g transform="translate(204.195 732.031948)scale(0.1 -0.1)">
       <use xlink:href="#DejaVuSans-34"/>
       <use x="63.623047" xlink:href="#DejaVuSans-30"/>
      </g>
     </g>
    </g>
    <g id="ytick_17">
     <g id="line2d_36">
      <g>
       <use style="stroke:#000000;stroke-width:0.8;" x="223.92" xlink:href="#maf275aefde" y="699.115582"/>
      </g>
     </g>
     <g id="text_34">
      <!-- 50 -->
      <g transform="translate(204.195 702.914801)scale(0.1 -0.1)">
       <use xlink:href="#DejaVuSans-35"/>
       <use x="63.623047" xlink:href="#DejaVuSans-30"/>
      </g>
     </g>
    </g>
    <g id="ytick_18">
     <g id="line2d_37">
      <g>
       <use style="stroke:#000000;stroke-width:0.8;" x="223.92" xlink:href="#maf275aefde" y="669.998434"/>
      </g>
     </g>
     <g id="text_35">
      <!-- 60 -->
      <g transform="translate(204.195 673.797653)scale(0.1 -0.1)">
       <use xlink:href="#DejaVuSans-36"/>
       <use x="63.623047" xlink:href="#DejaVuSans-30"/>
      </g>
     </g>
    </g>
    <g id="ytick_19">
     <g id="line2d_38">
      <g>
       <use style="stroke:#000000;stroke-width:0.8;" x="223.92" xlink:href="#maf275aefde" y="640.881287"/>
      </g>
     </g>
     <g id="text_36">
      <!-- 70 -->
      <g transform="translate(204.195 644.680505)scale(0.1 -0.1)">
       <defs>
        <path d="M 525 4666 
L 3525 4666 
L 3525 4397 
L 1831 0 
L 1172 0 
L 2766 4134 
L 525 4134 
L 525 4666 
z
" id="DejaVuSans-37" transform="scale(0.015625)"/>
       </defs>
       <use xlink:href="#DejaVuSans-37"/>
       <use x="63.623047" xlink:href="#DejaVuSans-30"/>
      </g>
     </g>
    </g>
   </g>
   <g id="line2d_39">
    <path clip-path="url(#p6cc2d3adc8)" d="M 246.77902 797.430227 
L 248.197236 822.09327 
L 249.615452 833.144205 
L 251.033668 796.642242 
L 252.451884 821.695271 
L 253.8701 826.396916 
L 255.288316 836.817907 
L 256.706532 842.225177 
L 258.124748 837.573839 
L 259.542964 800.025236 
L 260.96118 843.402257 
L 262.379396 841.606364 
L 263.797612 842.713104 
L 265.215828 843.393799 
L 266.634044 843.605709 
L 268.05226 843.608825 
L 269.470476 841.823171 
L 270.888692 843.153397 
L 272.306908 843.124459 
L 273.725124 843.274043 
L 275.14334 842.64499 
L 277.979772 843.492186 
L 279.397988 843.611942 
L 280.816204 843.55006 
L 282.23442 843.16052 
L 283.652636 843.385785 
L 285.070852 843.739266 
L 286.489068 843.227298 
L 287.907284 843.768648 
L 289.3255 843.678275 
L 290.743716 842.303975 
L 292.161932 839.586985 
L 293.580148 838.302614 
L 294.998364 840.190662 
L 296.41658 843.899534 
L 297.834796 843.741492 
L 299.253012 843.103535 
L 300.671228 843.567423 
L 302.089444 843.88974 
L 303.50766 843.128911 
L 304.925876 840.081145 
L 306.344092 843.07994 
L 307.762308 843.734369 
L 309.180524 843.97299 
L 312.016956 843.623516 
L 313.435172 843.532253 
L 314.853388 842.850223 
L 316.271604 843.933368 
L 317.68982 843.84433 
L 319.108036 839.662222 
L 320.526252 841.007584 
L 321.944468 842.124564 
L 323.362684 843.631975 
L 326.199116 842.687283 
L 327.617332 841.106861 
L 329.035548 843.170759 
L 330.453763 843.317671 
L 331.871979 843.051003 
L 333.290195 843.825632 
L 334.708411 843.825632 
L 336.126627 843.105761 
L 337.544843 842.856455 
L 338.963059 838.982863 
L 340.381275 841.026727 
L 341.799491 843.723684 
L 343.217707 842.766527 
L 344.635923 843.855905 
L 346.054139 843.580778 
L 347.472355 842.077374 
L 348.890571 842.896077 
L 350.308787 843.295857 
L 351.727003 839.355486 
L 353.145219 843.875048 
L 354.563435 843.993024 
L 355.981651 843.916006 
L 357.399867 843.464584 
L 358.818083 839.051422 
L 361.654515 843.656015 
L 363.072731 841.975426 
L 364.490947 843.78423 
L 365.909163 844.057131 
L 368.745595 843.951621 
L 370.163811 843.617729 
L 371.582027 839.256209 
L 373.000243 838.062657 
L 374.418459 836.703048 
L 375.836675 839.594998 
L 377.254891 840.650542 
L 378.673107 651.591102 
L 380.091323 776.269488 
L 381.509539 779.618648 
L 382.927755 830.883534 
L 384.345971 729.579368 
L 385.764187 834.857739 
L 387.182403 840.305075 
L 390.018835 841.6215 
L 391.437051 817.908936 
L 392.855267 834.798083 
L 395.691699 843.518007 
L 397.109915 837.652637 
L 398.528131 843.603038 
L 399.946347 841.426507 
L 401.364563 843.699199 
L 402.782779 843.577662 
L 404.200995 843.915115 
L 409.873859 844.073603 
L 411.292075 843.940046 
L 412.710291 841.094841 
L 414.128507 843.130247 
L 415.546723 843.535369 
L 416.964939 840.960839 
L 418.383155 842.860017 
L 419.801371 839.789546 
L 421.219587 839.492605 
L 422.637803 841.361509 
L 424.056019 841.271136 
L 425.474235 842.649887 
L 426.892451 841.946488 
L 428.310667 842.563966 
L 429.728883 842.129906 
L 431.147099 843.355958 
L 432.565314 842.82084 
L 433.98353 843.456125 
L 435.401746 843.480611 
L 436.819962 843.389792 
L 438.238178 841.189221 
L 439.656394 843.753512 
L 441.07461 842.105866 
L 442.492826 843.222846 
L 443.911042 843.377772 
L 445.329258 841.530236 
L 446.747474 843.659577 
L 448.16569 843.04477 
L 449.583906 842.661908 
L 451.002122 842.595129 
L 452.420338 753.800338 
L 453.838554 833.409538 
L 455.25677 843.696527 
L 456.674986 841.572084 
L 458.093202 792.06347 
L 459.511418 843.489514 
L 460.929634 843.745498 
L 462.34785 843.189457 
L 463.766066 843.401367 
L 465.184282 842.328461 
L 466.602498 843.403593 
L 468.020714 844.026413 
L 469.43893 844.166202 
L 470.857146 843.988572 
L 472.275362 843.594134 
L 473.693578 841.197235 
L 475.111794 842.133023 
L 476.53001 843.712999 
L 477.948226 843.623071 
L 479.366442 835.014 
L 480.784658 843.860357 
L 482.202874 843.900424 
L 486.457522 841.459896 
L 487.875738 834.192626 
L 489.293954 841.863238 
L 492.130386 842.48027 
L 493.548602 843.480165 
L 494.966818 843.905766 
L 496.385034 844.017509 
L 497.80325 843.924464 
L 499.221466 842.218944 
L 500.639682 843.548279 
L 502.057898 842.718001 
L 503.476114 843.461913 
L 504.89433 840.464898 
L 506.312546 843.908438 
L 507.730762 843.918232 
L 509.148978 835.145331 
L 510.567194 843.153397 
L 511.98541 843.606154 
L 514.821842 824.546709 
L 516.240058 774.205591 
L 517.658274 800.969482 
L 519.07649 822.433395 
L 520.494706 805.457436 
L 521.912922 798.313928 
L 523.331138 837.43672 
L 524.749354 838.303949 
L 526.16757 837.840952 
L 527.585786 840.946593 
L 529.004002 800.474877 
L 530.422218 837.528875 
L 531.840434 836.44751 
L 533.258649 840.040633 
L 534.676865 842.003472 
L 536.095081 840.882041 
L 537.513297 843.193464 
L 538.931513 841.643314 
L 540.349729 839.814031 
L 541.767945 841.032069 
L 543.186161 839.846975 
L 544.604377 836.508946 
L 546.022593 843.623071 
L 547.440809 842.535474 
L 548.859025 843.119117 
L 550.277241 842.376986 
L 551.695457 840.042414 
L 553.113673 843.909328 
L 554.531889 843.907102 
L 555.950105 838.876463 
L 557.368321 843.432975 
L 558.786537 840.934128 
L 560.204753 843.336815 
L 561.622969 840.113644 
L 563.041185 837.730991 
L 564.459401 842.088504 
L 565.877617 844.007715 
L 568.714049 844.013947 
L 570.132265 843.747279 
L 572.968697 843.776216 
L 574.386913 843.217504 
L 575.805129 843.778442 
L 581.477993 843.737485 
L 582.896209 842.364966 
L 584.314425 842.448662 
L 585.732641 835.501482 
L 587.150857 842.406369 
L 588.569073 814.092773 
L 589.987289 842.853784 
L 591.405505 842.782109 
L 592.823721 832.766684 
L 594.241937 799.860516 
L 595.660153 838.997109 
L 597.078369 843.192573 
L 598.496585 842.513659 
L 599.914801 842.900084 
L 601.333017 838.003892 
L 602.751233 843.347499 
L 604.169449 843.353287 
L 607.005881 841.913544 
L 608.424097 843.893746 
L 609.842313 844.017954 
L 611.260529 840.781873 
L 612.678745 839.244189 
L 614.096961 840.015257 
L 615.515177 844.066925 
L 618.351609 844.248117 
L 621.188041 844.066925 
L 624.024473 840.090939 
L 625.442689 843.899979 
L 628.279121 844.141717 
L 629.697337 844.005934 
L 631.115553 842.983334 
L 632.533769 843.655125 
L 633.951984 843.072372 
L 635.3702 843.176101 
L 636.788416 841.671361 
L 638.206632 839.928 
L 639.624848 843.566532 
L 641.043064 843.068811 
L 642.46128 843.664919 
L 643.879496 843.315445 
L 645.297712 843.305206 
L 646.715928 826.685398 
L 648.134144 842.306646 
L 649.55236 837.44696 
L 650.970576 708.936829 
L 652.388792 795.311571 
L 653.807008 763.180477 
L 655.225224 842.600471 
L 656.64344 792.909775 
L 658.061656 791.378769 
L 659.479872 824.262233 
L 660.898088 843.038538 
L 662.316304 836.459975 
L 663.73452 839.353706 
L 665.152736 813.153424 
L 666.570952 840.099843 
L 667.989168 840.24631 
L 669.407384 842.673928 
L 670.8256 841.913989 
L 672.243816 841.73814 
L 673.662032 841.816938 
L 675.080248 841.589001 
L 676.498464 843.225962 
L 677.91668 842.417944 
L 679.334896 843.399141 
L 680.753112 842.037307 
L 682.171328 842.38589 
L 683.589544 839.001561 
L 685.00776 842.850668 
L 686.425976 843.763306 
L 687.844192 842.746493 
L 689.262408 843.685843 
L 690.680624 840.80992 
L 692.09884 841.638417 
L 693.517056 843.261578 
L 694.935272 839.418258 
L 696.353488 842.578657 
L 697.771704 843.250893 
L 699.18992 841.013817 
L 700.608136 843.460577 
L 702.026352 841.619274 
L 703.444568 843.074153 
L 704.862784 841.839198 
L 706.281 843.699199 
L 707.699216 843.904876 
L 709.117432 843.657351 
L 710.535648 840.675473 
L 711.953864 843.371984 
L 713.37208 843.806934 
L 714.790296 842.344933 
L 716.208512 843.068811 
L 717.626728 842.368973 
L 719.044944 842.823956 
L 720.46316 842.676599 
L 721.881376 843.098638 
L 723.299592 835.511277 
L 724.717808 837.191421 
L 726.136024 831.924831 
L 727.55424 842.818169 
L 728.972456 837.430933 
L 730.390672 800.978386 
L 731.808888 839.265113 
L 734.64532 843.378217 
L 736.063535 836.423024 
L 737.481751 843.251783 
L 738.899967 841.911763 
L 741.736399 843.393354 
L 743.154615 838.432609 
L 744.572831 837.569387 
L 745.991047 843.703205 
L 747.409263 842.73848 
L 748.827479 843.459242 
L 750.245695 841.016933 
L 751.663911 843.367978 
L 753.082127 839.496166 
L 754.500343 840.714204 
L 755.918559 840.717766 
L 758.754991 839.705405 
L 760.173207 843.542492 
L 761.591423 842.070251 
L 763.009639 843.604373 
L 764.427855 844.00905 
L 765.846071 843.792688 
L 767.264287 843.183224 
L 768.682503 843.964977 
L 770.100719 843.694302 
L 771.518935 843.774881 
L 772.937151 843.258016 
L 774.355367 843.285618 
L 775.773583 840.858 
L 777.191799 840.657665 
L 778.610015 836.149678 
L 780.028231 843.903986 
L 781.446447 843.717451 
L 782.864663 842.436642 
L 784.282879 841.69184 
L 785.701095 837.737668 
L 787.119311 718.575178 
L 788.537527 797.252597 
L 789.955743 778.753645 
L 791.373959 837.43672 
L 792.792175 836.050846 
L 794.210391 804.4197 
L 795.628607 793.590914 
L 797.046823 841.578762 
L 798.465039 843.218839 
L 799.883255 838.326209 
L 801.301471 838.450417 
L 802.719687 835.489908 
L 804.137903 833.075646 
L 805.556119 838.956597 
L 806.974335 843.927581 
L 808.392551 843.940046 
L 809.810767 842.768308 
L 811.228983 840.699513 
L 812.647199 843.9721 
L 814.065415 840.339355 
L 815.483631 834.019892 
L 816.901847 841.198125 
L 818.320063 843.552731 
L 819.738279 842.522118 
L 821.156495 843.838543 
L 823.992927 842.613382 
L 825.411143 843.203703 
L 826.829359 843.64355 
L 828.247575 841.65756 
L 829.665791 842.886728 
L 831.084007 843.968093 
L 832.502223 843.912444 
L 833.920439 843.18545 
L 835.338655 837.521306 
L 836.75687 843.108878 
L 838.175086 843.411161 
L 839.593302 841.617048 
L 841.011518 842.314215 
L 842.429734 843.154732 
L 843.84795 843.715671 
L 845.266166 843.246441 
L 849.520814 843.962306 
L 850.93903 843.771319 
L 855.193678 841.42072 
L 856.611894 841.452773 
L 858.03011 842.750945 
L 859.448326 842.275038 
L 860.866542 839.277578 
L 862.284758 843.191238 
L 863.702974 842.795464 
L 865.12119 835.95513 
L 866.539406 820.816467 
L 867.957622 840.673247 
L 869.375838 843.52602 
L 870.794054 841.878374 
L 872.21227 843.78423 
L 873.630486 843.613722 
L 875.048702 841.645985 
L 876.466918 843.664474 
L 877.885134 843.972545 
L 879.30335 843.339486 
L 880.721566 842.570644 
L 882.139782 842.129016 
L 883.557998 839.50418 
L 884.976214 843.716561 
L 886.39443 843.562971 
L 887.812646 840.167957 
L 889.230862 839.9881 
L 890.649078 843.27805 
L 892.067294 843.041209 
L 893.48551 837.155806 
L 894.903726 842.679715 
L 896.321942 842.518557 
L 897.740158 843.675158 
L 899.158374 843.928026 
L 901.994806 844.119012 
L 903.413022 843.998366 
L 904.831238 841.978542 
L 906.249454 843.849227 
L 907.66767 843.91378 
L 909.085886 843.392018 
L 910.504102 842.721118 
L 911.922318 843.694302 
L 913.340534 843.12624 
L 914.75875 838.185084 
L 916.176966 843.481946 
L 917.595182 840.643864 
L 919.013398 841.250657 
L 920.431614 839.282475 
L 921.84983 842.068915 
L 923.268046 722.116214 
L 924.686262 799.036025 
L 926.104478 777.391811 
L 927.522694 826.863029 
L 928.94091 800.048831 
L 930.359126 795.458038 
L 931.777342 833.257283 
L 933.195558 841.100629 
L 934.613774 841.228398 
L 936.03199 842.234971 
L 937.450205 799.814216 
L 938.868421 836.997764 
L 940.286637 839.090599 
L 941.704853 840.32778 
L 943.123069 842.580883 
L 944.541285 843.022956 
L 945.959501 842.098298 
L 947.377717 843.187231 
L 948.795933 843.784675 
L 950.214149 843.473488 
L 951.632365 843.496637 
L 953.050581 843.167197 
L 954.468797 843.244215 
L 955.887013 842.920117 
L 957.305229 843.463248 
L 958.723445 843.852789 
L 960.141661 843.94984 
L 961.559877 843.892411 
L 962.978093 842.307537 
L 964.396309 841.690504 
L 965.814525 842.586671 
L 968.650957 841.193673 
L 970.069173 843.100419 
L 971.487389 843.545163 
L 972.905605 842.771869 
L 974.323821 841.405583 
L 975.742037 843.121343 
L 977.160253 843.144938 
L 978.578469 844.019735 
L 981.414901 843.87861 
L 982.833117 844.181339 
L 984.251333 844.111889 
L 985.669549 843.33904 
L 987.087765 843.743272 
L 988.505981 844.014393 
L 989.924197 844.015728 
L 991.342413 843.626188 
L 992.760629 840.447981 
L 994.178845 838.202446 
L 995.597061 843.292296 
L 997.015277 800.114719 
L 998.433493 841.873032 
L 999.851709 843.831865 
L 1001.269925 842.275928 
L 1002.688141 791.544824 
L 1004.106357 838.993547 
L 1005.524573 841.551605 
L 1006.942789 840.473357 
L 1008.361005 843.150725 
L 1009.779221 838.320421 
L 1011.197437 843.652899 
L 1012.615653 842.230964 
L 1014.033869 842.362295 
L 1015.452085 843.531807 
L 1016.870301 842.601362 
L 1018.288517 843.465029 
L 1019.706733 844.084733 
L 1022.543165 844.137265 
L 1023.961381 843.905766 
L 1025.379597 843.486398 
L 1026.797813 843.624852 
L 1028.216029 842.46825 
L 1029.634245 843.127576 
L 1031.052461 843.147164 
L 1032.470677 842.396575 
L 1033.888893 839.103954 
L 1035.307109 839.532227 
L 1036.725325 843.445441 
L 1039.561756 840.719992 
L 1042.398188 842.852894 
L 1043.816404 842.056005 
L 1045.23462 843.416503 
L 1046.652836 841.601021 
L 1048.071052 843.557183 
L 1049.489268 843.221065 
L 1050.907484 838.156146 
L 1052.3257 834.111156 
L 1053.743916 842.887173 
L 1055.162132 840.778311 
L 1056.580348 841.233295 
L 1057.998564 839.535788 
L 1059.41678 748.741207 
L 1060.834996 791.978884 
L 1062.253212 786.87924 
L 1063.671428 825.743823 
L 1065.089644 827.890081 
L 1066.50786 800.582613 
L 1067.926076 802.500043 
L 1069.344292 835.041157 
L 1070.762508 837.679349 
L 1072.180724 841.470136 
L 1073.59894 832.088661 
L 1075.017156 833.350773 
L 1076.435372 819.281455 
L 1077.853588 842.981999 
L 1079.271804 840.992002 
L 1080.69002 843.524684 
L 1082.108236 843.810051 
L 1083.526452 843.60749 
L 1084.944668 840.572189 
L 1087.7811 844.027748 
L 1089.199316 844.028194 
L 1090.617532 842.09251 
L 1092.035748 841.079259 
L 1093.453964 843.103535 
L 1094.87218 843.23175 
L 1096.290396 843.702315 
L 1097.708612 843.025627 
L 1099.126828 840.12789 
L 1100.545044 843.344828 
L 1101.96326 837.939339 
L 1103.381476 837.990091 
L 1104.799692 843.816729 
L 1106.217908 842.263463 
L 1107.636124 843.514445 
L 1110.472556 843.861248 
L 1111.890772 844.150175 
L 1114.727204 843.97388 
L 1116.14542 843.554957 
L 1117.563636 844.013502 
L 1118.981852 844.087404 
L 1120.400068 844.020625 
L 1121.818284 843.009155 
L 1123.2365 843.79714 
L 1124.654716 843.806044 
L 1126.072932 842.442429 
L 1127.491148 843.906212 
L 1128.909364 843.926245 
L 1130.32758 843.811386 
L 1131.745796 842.380103 
L 1133.164012 822.894611 
L 1134.582228 843.769093 
L 1136.000444 839.018923 
L 1137.41866 836.664317 
L 1138.836876 810.934155 
L 1140.255091 843.210381 
L 1141.673307 841.700299 
L 1143.091523 842.623621 
L 1144.509739 836.368711 
L 1145.927955 843.623962 
L 1147.346171 843.028298 
L 1148.764387 842.792793 
L 1151.600819 843.642214 
L 1153.019035 843.059907 
L 1154.437251 842.719337 
L 1155.855467 841.294286 
L 1157.273683 841.792008 
L 1158.691899 843.806489 
L 1160.110115 843.135144 
L 1161.528331 839.419594 
L 1162.946547 839.460551 
L 1164.364763 840.373189 
L 1165.782979 843.613722 
L 1168.619411 840.264118 
L 1170.037627 843.087954 
L 1171.455843 843.895972 
L 1174.292275 844.114115 
L 1175.710491 844.063363 
L 1177.128707 843.848782 
L 1178.546923 839.003342 
L 1179.965139 843.780668 
L 1181.383355 843.485063 
L 1182.801571 843.489514 
L 1184.219787 843.614167 
L 1188.474435 843.406709 
L 1189.892651 840.272131 
L 1191.310867 843.598586 
L 1192.729083 838.742906 
L 1194.147299 843.638208 
L 1195.565515 516.452103 
L 1196.983731 826.851454 
L 1198.401947 819.609559 
L 1199.820163 825.694407 
L 1201.238379 794.488416 
L 1202.656595 842.412601 
L 1204.074811 832.92072 
L 1205.493027 842.111208 
L 1206.911243 749.798531 
L 1208.329459 838.383638 
L 1209.747675 842.951726 
L 1211.165891 841.898408 
L 1212.584107 834.703703 
L 1214.002323 842.453559 
L 1215.420539 840.345587 
L 1216.838755 836.925643 
L 1218.256971 813.875966 
L 1219.675187 841.507532 
L 1221.093403 842.445545 
L 1222.511619 843.143602 
L 1223.929835 843.5741 
L 1225.348051 842.799916 
L 1228.184483 843.461468 
L 1229.602699 843.704541 
L 1231.020915 843.610606 
L 1232.439131 843.184115 
L 1236.693779 843.763306 
L 1238.111995 843.683172 
L 1239.530211 843.076824 
L 1240.948426 843.466365 
L 1242.366642 842.890735 
L 1243.784858 842.539035 
L 1245.203074 843.124014 
L 1248.039506 843.61951 
L 1249.457722 843.692076 
L 1253.71237 843.39558 
L 1255.130586 843.564306 
L 1257.967018 843.578107 
L 1259.385234 843.860357 
L 1260.80345 843.73882 
L 1262.221666 843.944943 
L 1263.639882 843.456125 
L 1265.058098 843.219285 
L 1266.476314 843.31411 
L 1267.89453 842.678825 
L 1270.730962 843.143157 
L 1272.149178 843.050558 
L 1273.567394 843.421846 
L 1274.98561 843.2549 
L 1276.403826 843.656906 
L 1277.822042 843.670261 
L 1279.240258 843.9258 
L 1283.494906 844.00905 
L 1284.913122 843.829194 
L 1286.331338 843.846111 
L 1287.749554 843.586566 
L 1289.16777 843.833646 
L 1292.004202 843.91467 
L 1293.422418 843.938265 
L 1294.840634 843.703205 
L 1296.25885 843.825632 
L 1297.677066 843.38445 
L 1299.095282 843.435201 
L 1300.513498 843.663583 
L 1303.34993 843.292296 
L 1304.768146 843.06703 
L 1306.186362 843.268255 
L 1307.604578 843.790017 
L 1309.022794 843.424072 
L 1310.44101 843.83142 
L 1313.277442 843.722348 
L 1314.695658 842.365857 
L 1316.113874 841.662903 
L 1317.53209 843.995695 
L 1318.950306 843.934704 
L 1320.368522 843.40938 
L 1321.786738 842.25545 
L 1323.204954 842.213157 
L 1324.62317 841.978097 
L 1326.041386 839.862112 
L 1327.459602 842.320002 
L 1328.877818 835.327859 
L 1330.296034 833.33252 
L 1331.71425 643.548757 
L 1333.132466 791.851115 
L 1334.550682 813.510466 
L 1335.968898 823.599346 
L 1337.387114 828.7119 
L 1338.80533 816.574258 
L 1340.223546 809.483283 
L 1341.641762 836.519185 
L 1343.059977 774.179324 
L 1344.478193 842.617834 
L 1345.896409 832.022328 
L 1347.314625 838.013686 
L 1348.732841 817.638706 
L 1350.151057 837.899272 
L 1351.569273 841.352606 
L 1352.987489 842.697523 
L 1354.405705 842.516331 
L 1355.823921 843.04477 
L 1357.242137 842.332913 
L 1358.660353 843.530472 
L 1360.078569 843.137815 
L 1361.496785 843.759744 
L 1362.915001 843.253564 
L 1364.333217 843.217949 
L 1365.751433 842.625402 
L 1367.169649 842.734028 
L 1368.587865 843.085728 
L 1370.006081 841.891285 
L 1371.424297 842.979327 
L 1372.842513 841.39757 
L 1374.260729 842.764301 
L 1375.678945 842.028403 
L 1377.097161 843.04477 
L 1378.515377 841.320997 
L 1379.933593 842.864023 
L 1381.351809 840.218709 
L 1382.770025 843.530917 
L 1384.188241 843.6204 
L 1385.606457 842.870701 
L 1387.024673 843.777107 
L 1388.442889 843.728581 
L 1389.861105 842.675708 
L 1391.279321 843.964977 
L 1392.697537 843.989462 
L 1394.115753 843.858131 
L 1395.533969 843.140486 
L 1396.952185 841.502635 
L 1398.370401 843.544273 
L 1399.788617 843.423626 
L 1402.625049 843.883952 
L 1404.043265 843.646666 
L 1405.461481 842.976211 
L 1406.879697 841.029843 
L 1408.297913 843.320343 
L 1409.716129 843.528691 
L 1411.134345 843.087508 
L 1412.552561 843.483727 
L 1415.388993 843.756628 
L 1416.807209 843.460577 
L 1418.225425 843.464139 
L 1419.643641 843.737485 
L 1421.061857 843.399586 
L 1422.480073 843.987681 
L 1423.898289 843.621736 
L 1425.316505 840.437742 
L 1426.734721 843.04388 
L 1428.152937 843.903095 
L 1429.571153 842.612491 
L 1430.989369 836.254743 
L 1432.407585 843.931587 
L 1433.825801 843.881726 
L 1435.244017 843.989462 
L 1436.662233 843.58434 
L 1438.080449 841.847211 
L 1439.498665 843.545163 
L 1440.916881 840.65811 
L 1442.335097 842.347604 
L 1443.753312 842.262573 
L 1445.171528 837.974064 
L 1446.589744 843.695637 
L 1448.00796 843.176101 
L 1449.426176 843.410716 
L 1450.844392 843.522904 
L 1452.262608 841.7279 
L 1453.680824 843.681391 
L 1455.09904 843.998366 
L 1456.517256 844.078945 
L 1457.935472 843.717451 
L 1459.353688 841.819609 
L 1460.771904 842.923234 
L 1462.19012 842.98467 
L 1463.608336 840.656775 
L 1465.026552 841.815157 
L 1466.444768 841.496847 
L 1467.862984 628.163459 
L 1469.2812 780.825111 
L 1470.699416 828.141167 
L 1472.117632 805.966732 
L 1473.535848 829.543514 
L 1474.954064 835.406212 
L 1476.37228 791.713551 
L 1477.790496 832.426115 
L 1479.208712 805.443635 
L 1480.626928 828.676285 
L 1482.045144 843.73704 
L 1483.46336 833.2141 
L 1484.881576 811.276951 
L 1486.299792 841.851663 
L 1487.718008 842.448217 
L 1489.136224 841.454109 
L 1490.55444 839.028272 
L 1491.972656 842.795464 
L 1493.390872 843.220175 
L 1494.809088 841.816493 
L 1496.227304 842.972204 
L 1497.64552 843.227743 
L 1499.063736 842.971759 
L 1500.481952 842.296852 
L 1503.318384 843.280721 
L 1504.7366 843.667145 
L 1507.573032 843.557183 
L 1508.991248 842.203363 
L 1510.409464 843.484617 
L 1513.245896 843.599476 
L 1514.664112 842.769643 
L 1516.082328 843.63242 
L 1517.500544 843.124459 
L 1518.91876 839.537569 
L 1520.336976 839.824271 
L 1521.755192 842.819059 
L 1524.591624 843.622626 
L 1526.00984 842.699303 
L 1528.846272 843.602147 
L 1530.264488 843.705431 
L 1531.682704 843.924019 
L 1534.519136 843.804708 
L 1535.937352 843.73882 
L 1537.355568 841.714545 
L 1538.773784 842.933028 
L 1540.192 842.187336 
L 1541.610216 842.359179 
L 1543.028432 843.391573 
L 1545.864863 843.647111 
L 1547.283079 843.103535 
L 1550.119511 843.235311 
L 1551.537727 843.030969 
L 1552.955943 843.704541 
L 1554.374159 843.220175 
L 1555.792375 843.331917 
L 1557.210591 842.483387 
L 1558.628807 842.665024 
L 1560.047023 842.504756 
L 1561.465239 841.731907 
L 1562.883455 843.652899 
L 1564.301671 843.505541 
L 1565.719887 843.038983 
L 1567.138103 837.876567 
L 1568.556319 842.945493 
L 1572.810967 842.184665 
L 1574.229183 843.619065 
L 1577.065615 843.334143 
L 1579.902047 843.688514 
L 1581.320263 843.084392 
L 1582.738479 843.653344 
L 1584.156695 843.444105 
L 1585.574911 842.955732 
L 1586.993127 842.25545 
L 1588.411343 843.707212 
L 1589.829559 844.012167 
L 1591.247775 843.953402 
L 1592.665991 843.457906 
L 1594.084207 841.317881 
L 1596.920639 842.311544 
L 1598.338855 841.171414 
L 1599.757071 839.060326 
L 1601.175287 843.385785 
L 1602.593503 843.201922 
L 1604.011719 525.492117 
L 1605.429935 844.70132 
L 1612.521015 844.70132 
L 1612.521015 844.70132 
" style="fill:none;stroke:#1f77b4;stroke-linecap:square;stroke-width:1.5;"/>
   </g>
   <g id="patch_13">
    <path d="M 223.92 854.8272 
L 223.92 637.306729 
" style="fill:none;stroke:#000000;stroke-linecap:square;stroke-linejoin:miter;stroke-width:0.8;"/>
   </g>
   <g id="patch_14">
    <path d="M 1612.224 854.8272 
L 1612.224 637.306729 
" style="fill:none;stroke:#000000;stroke-linecap:square;stroke-linejoin:miter;stroke-width:0.8;"/>
   </g>
   <g id="patch_15">
    <path d="M 223.92 854.8272 
L 1612.224 854.8272 
" style="fill:none;stroke:#000000;stroke-linecap:square;stroke-linejoin:miter;stroke-width:0.8;"/>
   </g>
   <g id="patch_16">
    <path d="M 223.92 637.306729 
L 1612.224 637.306729 
" style="fill:none;stroke:#000000;stroke-linecap:square;stroke-linejoin:miter;stroke-width:0.8;"/>
   </g>
  </g>
  <g id="text_37">
   <!-- Calibration Table -->
   <g transform="translate(845.608125 28.327725)scale(0.12 -0.12)">
    <defs>
     <path d="M 4122 4306 
L 4122 3641 
Q 3803 3938 3442 4084 
Q 3081 4231 2675 4231 
Q 1875 4231 1450 3742 
Q 1025 3253 1025 2328 
Q 1025 1406 1450 917 
Q 1875 428 2675 428 
Q 3081 428 3442 575 
Q 3803 722 4122 1019 
L 4122 359 
Q 3791 134 3420 21 
Q 3050 -91 2638 -91 
Q 1578 -91 968 557 
Q 359 1206 359 2328 
Q 359 3453 968 4101 
Q 1578 4750 2638 4750 
Q 3056 4750 3426 4639 
Q 3797 4528 4122 4306 
z
" id="DejaVuSans-43" transform="scale(0.015625)"/>
     <path d="M 2194 1759 
Q 1497 1759 1228 1600 
Q 959 1441 959 1056 
Q 959 750 1161 570 
Q 1363 391 1709 391 
Q 2188 391 2477 730 
Q 2766 1069 2766 1631 
L 2766 1759 
L 2194 1759 
z
M 3341 1997 
L 3341 0 
L 2766 0 
L 2766 531 
Q 2569 213 2275 61 
Q 1981 -91 1556 -91 
Q 1019 -91 701 211 
Q 384 513 384 1019 
Q 384 1609 779 1909 
Q 1175 2209 1959 2209 
L 2766 2209 
L 2766 2266 
Q 2766 2663 2505 2880 
Q 2244 3097 1772 3097 
Q 1472 3097 1187 3025 
Q 903 2953 641 2809 
L 641 3341 
Q 956 3463 1253 3523 
Q 1550 3584 1831 3584 
Q 2591 3584 2966 3190 
Q 3341 2797 3341 1997 
z
" id="DejaVuSans-61" transform="scale(0.015625)"/>
     <path d="M 603 4863 
L 1178 4863 
L 1178 0 
L 603 0 
L 603 4863 
z
" id="DejaVuSans-6c" transform="scale(0.015625)"/>
     <path d="M 603 3500 
L 1178 3500 
L 1178 0 
L 603 0 
L 603 3500 
z
M 603 4863 
L 1178 4863 
L 1178 4134 
L 603 4134 
L 603 4863 
z
" id="DejaVuSans-69" transform="scale(0.015625)"/>
     <path d="M 3116 1747 
Q 3116 2381 2855 2742 
Q 2594 3103 2138 3103 
Q 1681 3103 1420 2742 
Q 1159 2381 1159 1747 
Q 1159 1113 1420 752 
Q 1681 391 2138 391 
Q 2594 391 2855 752 
Q 3116 1113 3116 1747 
z
M 1159 2969 
Q 1341 3281 1617 3432 
Q 1894 3584 2278 3584 
Q 2916 3584 3314 3078 
Q 3713 2572 3713 1747 
Q 3713 922 3314 415 
Q 2916 -91 2278 -91 
Q 1894 -91 1617 61 
Q 1341 213 1159 525 
L 1159 0 
L 581 0 
L 581 4863 
L 1159 4863 
L 1159 2969 
z
" id="DejaVuSans-62" transform="scale(0.015625)"/>
     <path d="M 2631 2963 
Q 2534 3019 2420 3045 
Q 2306 3072 2169 3072 
Q 1681 3072 1420 2755 
Q 1159 2438 1159 1844 
L 1159 0 
L 581 0 
L 581 3500 
L 1159 3500 
L 1159 2956 
Q 1341 3275 1631 3429 
Q 1922 3584 2338 3584 
Q 2397 3584 2469 3576 
Q 2541 3569 2628 3553 
L 2631 2963 
z
" id="DejaVuSans-72" transform="scale(0.015625)"/>
     <path d="M 1172 4494 
L 1172 3500 
L 2356 3500 
L 2356 3053 
L 1172 3053 
L 1172 1153 
Q 1172 725 1289 603 
Q 1406 481 1766 481 
L 2356 481 
L 2356 0 
L 1766 0 
Q 1100 0 847 248 
Q 594 497 594 1153 
L 594 3053 
L 172 3053 
L 172 3500 
L 594 3500 
L 594 4494 
L 1172 4494 
z
" id="DejaVuSans-74" transform="scale(0.015625)"/>
     <path d="M 1959 3097 
Q 1497 3097 1228 2736 
Q 959 2375 959 1747 
Q 959 1119 1226 758 
Q 1494 397 1959 397 
Q 2419 397 2687 759 
Q 2956 1122 2956 1747 
Q 2956 2369 2687 2733 
Q 2419 3097 1959 3097 
z
M 1959 3584 
Q 2709 3584 3137 3096 
Q 3566 2609 3566 1747 
Q 3566 888 3137 398 
Q 2709 -91 1959 -91 
Q 1206 -91 779 398 
Q 353 888 353 1747 
Q 353 2609 779 3096 
Q 1206 3584 1959 3584 
z
" id="DejaVuSans-6f" transform="scale(0.015625)"/>
     <path d="M 3513 2113 
L 3513 0 
L 2938 0 
L 2938 2094 
Q 2938 2591 2744 2837 
Q 2550 3084 2163 3084 
Q 1697 3084 1428 2787 
Q 1159 2491 1159 1978 
L 1159 0 
L 581 0 
L 581 3500 
L 1159 3500 
L 1159 2956 
Q 1366 3272 1645 3428 
Q 1925 3584 2291 3584 
Q 2894 3584 3203 3211 
Q 3513 2838 3513 2113 
z
" id="DejaVuSans-6e" transform="scale(0.015625)"/>
     <path id="DejaVuSans-20" transform="scale(0.015625)"/>
     <path d="M -19 4666 
L 3928 4666 
L 3928 4134 
L 2272 4134 
L 2272 0 
L 1638 0 
L 1638 4134 
L -19 4134 
L -19 4666 
z
" id="DejaVuSans-54" transform="scale(0.015625)"/>
     <path d="M 3597 1894 
L 3597 1613 
L 953 1613 
Q 991 1019 1311 708 
Q 1631 397 2203 397 
Q 2534 397 2845 478 
Q 3156 559 3463 722 
L 3463 178 
Q 3153 47 2828 -22 
Q 2503 -91 2169 -91 
Q 1331 -91 842 396 
Q 353 884 353 1716 
Q 353 2575 817 3079 
Q 1281 3584 2069 3584 
Q 2775 3584 3186 3129 
Q 3597 2675 3597 1894 
z
M 3022 2063 
Q 3016 2534 2758 2815 
Q 2500 3097 2075 3097 
Q 1594 3097 1305 2825 
Q 1016 2553 972 2059 
L 3022 2063 
z
" id="DejaVuSans-65" transform="scale(0.015625)"/>
    </defs>
    <use xlink:href="#DejaVuSans-43"/>
    <use x="69.824219" xlink:href="#DejaVuSans-61"/>
    <use x="131.103516" xlink:href="#DejaVuSans-6c"/>
    <use x="158.886719" xlink:href="#DejaVuSans-69"/>
    <use x="186.669922" xlink:href="#DejaVuSans-62"/>
    <use x="250.146484" xlink:href="#DejaVuSans-72"/>
    <use x="291.259766" xlink:href="#DejaVuSans-61"/>
    <use x="352.539062" xlink:href="#DejaVuSans-74"/>
    <use x="391.748047" xlink:href="#DejaVuSans-69"/>
    <use x="419.53125" xlink:href="#DejaVuSans-6f"/>
    <use x="480.712891" xlink:href="#DejaVuSans-6e"/>
    <use x="544.091797" xlink:href="#DejaVuSans-20"/>
    <use x="575.878906" xlink:href="#DejaVuSans-54"/>
    <use x="620.462891" xlink:href="#DejaVuSans-61"/>
    <use x="681.742188" xlink:href="#DejaVuSans-62"/>
    <use x="745.21875" xlink:href="#DejaVuSans-6c"/>
    <use x="773.001953" xlink:href="#DejaVuSans-65"/>
   </g>
  </g>
 </g>
 <defs>
  <clipPath id="pf6840dae46">
   <rect height="217.520471" width="1388.304" x="223.92" y="115.2576"/>
  </clipPath>
  <clipPath id="p8081fc4333">
   <rect height="217.520471" width="1388.304" x="223.92" y="376.282165"/>
  </clipPath>
  <clipPath id="p6cc2d3adc8">
   <rect height="217.520471" width="1388.304" x="223.92" y="637.306729"/>
  </clipPath>
 </defs>
</svg>
