<?xml version="1.0" encoding="utf-8" standalone="no"?>
<!DOCTYPE svg PUBLIC "-//W3C//DTD SVG 1.1//EN"
  "http://www.w3.org/Graphics/SVG/1.1/DTD/svg11.dtd">
<svg height="960.48pt" version="1.1" viewBox="0 0 1791.36 960.48" width="1791.36pt" xmlns="http://www.w3.org/2000/svg" xmlns:xlink="http://www.w3.org/1999/xlink">
 <metadata>
  <rdf:RDF xmlns:cc="http://creativecommons.org/ns#" xmlns:dc="http://purl.org/dc/elements/1.1/" xmlns:rdf="http://www.w3.org/1999/02/22-rdf-syntax-ns#">
   <cc:Work>
    <dc:type rdf:resource="http://purl.org/dc/dcmitype/StillImage"/>
    <dc:date>2022-04-26T12:33:52.603886</dc:date>
    <dc:format>image/svg+xml</dc:format>
    <dc:creator>
     <cc:Agent>
      <dc:title>Matplotlib v3.4.3, https://matplotlib.org/</dc:title>
     </cc:Agent>
    </dc:creator>
   </cc:Work>
  </rdf:RDF>
 </metadata>
 <defs>
  <style type="text/css">*{stroke-linecap:butt;stroke-linejoin:round;}</style>
 </defs>
 <g id="figure_1">
  <g id="patch_1">
   <path d="M 0 960.48 
L 1791.36 960.48 
L 1791.36 0 
L 0 0 
z
" style="fill:#ffffff;"/>
  </g>
  <g id="axes_1">
   <g id="patch_2">
    <path d="M 223.92 332.778071 
L 1612.224 332.778071 
L 1612.224 115.2576 
L 223.92 115.2576 
z
" style="fill:#ffffff;"/>
   </g>
   <g id="matplotlib.axis_1">
    <g id="xtick_1">
     <g id="line2d_1">
      <defs>
       <path d="M 0 0 
L 0 3.5 
" id="m0fee1c361b" style="stroke:#000000;stroke-width:0.8;"/>
      </defs>
      <g>
       <use style="stroke:#000000;stroke-width:0.8;" x="285.789801" xlink:href="#m0fee1c361b" y="332.778071"/>
      </g>
     </g>
     <g id="text_1">
      <!-- 0 -->
      <g transform="translate(282.608551 347.376508)scale(0.1 -0.1)">
       <defs>
        <path d="M 2034 4250 
Q 1547 4250 1301 3770 
Q 1056 3291 1056 2328 
Q 1056 1369 1301 889 
Q 1547 409 2034 409 
Q 2525 409 2770 889 
Q 3016 1369 3016 2328 
Q 3016 3291 2770 3770 
Q 2525 4250 2034 4250 
z
M 2034 4750 
Q 2819 4750 3233 4129 
Q 3647 3509 3647 2328 
Q 3647 1150 3233 529 
Q 2819 -91 2034 -91 
Q 1250 -91 836 529 
Q 422 1150 422 2328 
Q 422 3509 836 4129 
Q 1250 4750 2034 4750 
z
" id="DejaVuSans-30" transform="scale(0.015625)"/>
       </defs>
       <use xlink:href="#DejaVuSans-30"/>
      </g>
     </g>
    </g>
    <g id="xtick_2">
     <g id="line2d_2">
      <g>
       <use style="stroke:#000000;stroke-width:0.8;" x="532.775035" xlink:href="#m0fee1c361b" y="332.778071"/>
      </g>
     </g>
     <g id="text_2">
      <!-- 200 -->
      <g transform="translate(523.231285 347.376508)scale(0.1 -0.1)">
       <defs>
        <path d="M 1228 531 
L 3431 531 
L 3431 0 
L 469 0 
L 469 531 
Q 828 903 1448 1529 
Q 2069 2156 2228 2338 
Q 2531 2678 2651 2914 
Q 2772 3150 2772 3378 
Q 2772 3750 2511 3984 
Q 2250 4219 1831 4219 
Q 1534 4219 1204 4116 
Q 875 4013 500 3803 
L 500 4441 
Q 881 4594 1212 4672 
Q 1544 4750 1819 4750 
Q 2544 4750 2975 4387 
Q 3406 4025 3406 3419 
Q 3406 3131 3298 2873 
Q 3191 2616 2906 2266 
Q 2828 2175 2409 1742 
Q 1991 1309 1228 531 
z
" id="DejaVuSans-32" transform="scale(0.015625)"/>
       </defs>
       <use xlink:href="#DejaVuSans-32"/>
       <use x="63.623047" xlink:href="#DejaVuSans-30"/>
       <use x="127.246094" xlink:href="#DejaVuSans-30"/>
      </g>
     </g>
    </g>
    <g id="xtick_3">
     <g id="line2d_3">
      <g>
       <use style="stroke:#000000;stroke-width:0.8;" x="779.760269" xlink:href="#m0fee1c361b" y="332.778071"/>
      </g>
     </g>
     <g id="text_3">
      <!-- 400 -->
      <g transform="translate(770.216519 347.376508)scale(0.1 -0.1)">
       <defs>
        <path d="M 2419 4116 
L 825 1625 
L 2419 1625 
L 2419 4116 
z
M 2253 4666 
L 3047 4666 
L 3047 1625 
L 3713 1625 
L 3713 1100 
L 3047 1100 
L 3047 0 
L 2419 0 
L 2419 1100 
L 313 1100 
L 313 1709 
L 2253 4666 
z
" id="DejaVuSans-34" transform="scale(0.015625)"/>
       </defs>
       <use xlink:href="#DejaVuSans-34"/>
       <use x="63.623047" xlink:href="#DejaVuSans-30"/>
       <use x="127.246094" xlink:href="#DejaVuSans-30"/>
      </g>
     </g>
    </g>
    <g id="xtick_4">
     <g id="line2d_4">
      <g>
       <use style="stroke:#000000;stroke-width:0.8;" x="1026.745503" xlink:href="#m0fee1c361b" y="332.778071"/>
      </g>
     </g>
     <g id="text_4">
      <!-- 600 -->
      <g transform="translate(1017.201753 347.376508)scale(0.1 -0.1)">
       <defs>
        <path d="M 2113 2584 
Q 1688 2584 1439 2293 
Q 1191 2003 1191 1497 
Q 1191 994 1439 701 
Q 1688 409 2113 409 
Q 2538 409 2786 701 
Q 3034 994 3034 1497 
Q 3034 2003 2786 2293 
Q 2538 2584 2113 2584 
z
M 3366 4563 
L 3366 3988 
Q 3128 4100 2886 4159 
Q 2644 4219 2406 4219 
Q 1781 4219 1451 3797 
Q 1122 3375 1075 2522 
Q 1259 2794 1537 2939 
Q 1816 3084 2150 3084 
Q 2853 3084 3261 2657 
Q 3669 2231 3669 1497 
Q 3669 778 3244 343 
Q 2819 -91 2113 -91 
Q 1303 -91 875 529 
Q 447 1150 447 2328 
Q 447 3434 972 4092 
Q 1497 4750 2381 4750 
Q 2619 4750 2861 4703 
Q 3103 4656 3366 4563 
z
" id="DejaVuSans-36" transform="scale(0.015625)"/>
       </defs>
       <use xlink:href="#DejaVuSans-36"/>
       <use x="63.623047" xlink:href="#DejaVuSans-30"/>
       <use x="127.246094" xlink:href="#DejaVuSans-30"/>
      </g>
     </g>
    </g>
    <g id="xtick_5">
     <g id="line2d_5">
      <g>
       <use style="stroke:#000000;stroke-width:0.8;" x="1273.730737" xlink:href="#m0fee1c361b" y="332.778071"/>
      </g>
     </g>
     <g id="text_5">
      <!-- 800 -->
      <g transform="translate(1264.186987 347.376508)scale(0.1 -0.1)">
       <defs>
        <path d="M 2034 2216 
Q 1584 2216 1326 1975 
Q 1069 1734 1069 1313 
Q 1069 891 1326 650 
Q 1584 409 2034 409 
Q 2484 409 2743 651 
Q 3003 894 3003 1313 
Q 3003 1734 2745 1975 
Q 2488 2216 2034 2216 
z
M 1403 2484 
Q 997 2584 770 2862 
Q 544 3141 544 3541 
Q 544 4100 942 4425 
Q 1341 4750 2034 4750 
Q 2731 4750 3128 4425 
Q 3525 4100 3525 3541 
Q 3525 3141 3298 2862 
Q 3072 2584 2669 2484 
Q 3125 2378 3379 2068 
Q 3634 1759 3634 1313 
Q 3634 634 3220 271 
Q 2806 -91 2034 -91 
Q 1263 -91 848 271 
Q 434 634 434 1313 
Q 434 1759 690 2068 
Q 947 2378 1403 2484 
z
M 1172 3481 
Q 1172 3119 1398 2916 
Q 1625 2713 2034 2713 
Q 2441 2713 2670 2916 
Q 2900 3119 2900 3481 
Q 2900 3844 2670 4047 
Q 2441 4250 2034 4250 
Q 1625 4250 1398 4047 
Q 1172 3844 1172 3481 
z
" id="DejaVuSans-38" transform="scale(0.015625)"/>
       </defs>
       <use xlink:href="#DejaVuSans-38"/>
       <use x="63.623047" xlink:href="#DejaVuSans-30"/>
       <use x="127.246094" xlink:href="#DejaVuSans-30"/>
      </g>
     </g>
    </g>
    <g id="xtick_6">
     <g id="line2d_6">
      <g>
       <use style="stroke:#000000;stroke-width:0.8;" x="1520.715971" xlink:href="#m0fee1c361b" y="332.778071"/>
      </g>
     </g>
     <g id="text_6">
      <!-- 1000 -->
      <g transform="translate(1507.990971 347.376508)scale(0.1 -0.1)">
       <defs>
        <path d="M 794 531 
L 1825 531 
L 1825 4091 
L 703 3866 
L 703 4441 
L 1819 4666 
L 2450 4666 
L 2450 531 
L 3481 531 
L 3481 0 
L 794 0 
L 794 531 
z
" id="DejaVuSans-31" transform="scale(0.015625)"/>
       </defs>
       <use xlink:href="#DejaVuSans-31"/>
       <use x="63.623047" xlink:href="#DejaVuSans-30"/>
       <use x="127.246094" xlink:href="#DejaVuSans-30"/>
       <use x="190.869141" xlink:href="#DejaVuSans-30"/>
      </g>
     </g>
    </g>
   </g>
   <g id="matplotlib.axis_2">
    <g id="ytick_1">
     <g id="line2d_7">
      <defs>
       <path d="M 0 0 
L -3.5 0 
" id="mdf2b70df3e" style="stroke:#000000;stroke-width:0.8;"/>
      </defs>
      <g>
       <use style="stroke:#000000;stroke-width:0.8;" x="223.92" xlink:href="#mdf2b70df3e" y="322.890776"/>
      </g>
     </g>
     <g id="text_7">
      <!-- 0 -->
      <g transform="translate(210.5575 326.689995)scale(0.1 -0.1)">
       <use xlink:href="#DejaVuSans-30"/>
      </g>
     </g>
    </g>
    <g id="ytick_2">
     <g id="line2d_8">
      <g>
       <use style="stroke:#000000;stroke-width:0.8;" x="223.92" xlink:href="#mdf2b70df3e" y="289.688095"/>
      </g>
     </g>
     <g id="text_8">
      <!-- 200 -->
      <g transform="translate(197.8325 293.487314)scale(0.1 -0.1)">
       <use xlink:href="#DejaVuSans-32"/>
       <use x="63.623047" xlink:href="#DejaVuSans-30"/>
       <use x="127.246094" xlink:href="#DejaVuSans-30"/>
      </g>
     </g>
    </g>
    <g id="ytick_3">
     <g id="line2d_9">
      <g>
       <use style="stroke:#000000;stroke-width:0.8;" x="223.92" xlink:href="#mdf2b70df3e" y="256.485414"/>
      </g>
     </g>
     <g id="text_9">
      <!-- 400 -->
      <g transform="translate(197.8325 260.284633)scale(0.1 -0.1)">
       <use xlink:href="#DejaVuSans-34"/>
       <use x="63.623047" xlink:href="#DejaVuSans-30"/>
       <use x="127.246094" xlink:href="#DejaVuSans-30"/>
      </g>
     </g>
    </g>
    <g id="ytick_4">
     <g id="line2d_10">
      <g>
       <use style="stroke:#000000;stroke-width:0.8;" x="223.92" xlink:href="#mdf2b70df3e" y="223.282733"/>
      </g>
     </g>
     <g id="text_10">
      <!-- 600 -->
      <g transform="translate(197.8325 227.081952)scale(0.1 -0.1)">
       <use xlink:href="#DejaVuSans-36"/>
       <use x="63.623047" xlink:href="#DejaVuSans-30"/>
       <use x="127.246094" xlink:href="#DejaVuSans-30"/>
      </g>
     </g>
    </g>
    <g id="ytick_5">
     <g id="line2d_11">
      <g>
       <use style="stroke:#000000;stroke-width:0.8;" x="223.92" xlink:href="#mdf2b70df3e" y="190.080052"/>
      </g>
     </g>
     <g id="text_11">
      <!-- 800 -->
      <g transform="translate(197.8325 193.879271)scale(0.1 -0.1)">
       <use xlink:href="#DejaVuSans-38"/>
       <use x="63.623047" xlink:href="#DejaVuSans-30"/>
       <use x="127.246094" xlink:href="#DejaVuSans-30"/>
      </g>
     </g>
    </g>
    <g id="ytick_6">
     <g id="line2d_12">
      <g>
       <use style="stroke:#000000;stroke-width:0.8;" x="223.92" xlink:href="#mdf2b70df3e" y="156.877371"/>
      </g>
     </g>
     <g id="text_12">
      <!-- 1000 -->
      <g transform="translate(191.47 160.676589)scale(0.1 -0.1)">
       <use xlink:href="#DejaVuSans-31"/>
       <use x="63.623047" xlink:href="#DejaVuSans-30"/>
       <use x="127.246094" xlink:href="#DejaVuSans-30"/>
       <use x="190.869141" xlink:href="#DejaVuSans-30"/>
      </g>
     </g>
    </g>
    <g id="ytick_7">
     <g id="line2d_13">
      <g>
       <use style="stroke:#000000;stroke-width:0.8;" x="223.92" xlink:href="#mdf2b70df3e" y="123.674689"/>
      </g>
     </g>
     <g id="text_13">
      <!-- 1200 -->
      <g transform="translate(191.47 127.473908)scale(0.1 -0.1)">
       <use xlink:href="#DejaVuSans-31"/>
       <use x="63.623047" xlink:href="#DejaVuSans-32"/>
       <use x="127.246094" xlink:href="#DejaVuSans-30"/>
       <use x="190.869141" xlink:href="#DejaVuSans-30"/>
      </g>
     </g>
    </g>
   </g>
   <g id="line2d_14">
    <path clip-path="url(#p82356710d7)" d="M 287.024727 322.890776 
L 821.747759 322.890776 
L 822.982685 322.184024 
L 824.217611 322.815138 
L 825.452537 322.813238 
L 826.687463 322.597602 
L 827.92239 321.456563 
L 829.157316 322.864036 
L 837.801799 322.787115 
L 839.036725 322.664145 
L 841.506577 322.786996 
L 855.090765 322.753321 
L 856.325692 322.846604 
L 858.795544 322.803952 
L 861.265396 322.851378 
L 864.970175 322.859191 
L 874.849584 322.8429 
L 876.08451 322.519066 
L 877.319436 125.144894 
L 878.554363 322.890776 
L 1467.614146 322.890658 
L 1468.849072 128.06564 
L 1470.083998 322.890776 
L 1549.119273 322.890776 
L 1549.119273 322.890776 
" style="fill:none;stroke:#1f77b4;stroke-linecap:square;stroke-width:1.5;"/>
   </g>
   <g id="patch_3">
    <path d="M 223.92 332.778071 
L 223.92 115.2576 
" style="fill:none;stroke:#000000;stroke-linecap:square;stroke-linejoin:miter;stroke-width:0.8;"/>
   </g>
   <g id="patch_4">
    <path d="M 1612.224 332.778071 
L 1612.224 115.2576 
" style="fill:none;stroke:#000000;stroke-linecap:square;stroke-linejoin:miter;stroke-width:0.8;"/>
   </g>
   <g id="patch_5">
    <path d="M 223.92 332.778071 
L 1612.224 332.778071 
" style="fill:none;stroke:#000000;stroke-linecap:square;stroke-linejoin:miter;stroke-width:0.8;"/>
   </g>
   <g id="patch_6">
    <path d="M 223.92 115.2576 
L 1612.224 115.2576 
" style="fill:none;stroke:#000000;stroke-linecap:square;stroke-linejoin:miter;stroke-width:0.8;"/>
   </g>
  </g>
  <g id="axes_2">
   <g id="patch_7">
    <path d="M 223.92 593.802635 
L 1612.224 593.802635 
L 1612.224 376.282165 
L 223.92 376.282165 
z
" style="fill:#ffffff;"/>
   </g>
   <g id="matplotlib.axis_3">
    <g id="xtick_7">
     <g id="line2d_15">
      <g>
       <use style="stroke:#000000;stroke-width:0.8;" x="285.789801" xlink:href="#m0fee1c361b" y="593.802635"/>
      </g>
     </g>
     <g id="text_14">
      <!-- 0 -->
      <g transform="translate(282.608551 608.401073)scale(0.1 -0.1)">
       <use xlink:href="#DejaVuSans-30"/>
      </g>
     </g>
    </g>
    <g id="xtick_8">
     <g id="line2d_16">
      <g>
       <use style="stroke:#000000;stroke-width:0.8;" x="532.775035" xlink:href="#m0fee1c361b" y="593.802635"/>
      </g>
     </g>
     <g id="text_15">
      <!-- 200 -->
      <g transform="translate(523.231285 608.401073)scale(0.1 -0.1)">
       <use xlink:href="#DejaVuSans-32"/>
       <use x="63.623047" xlink:href="#DejaVuSans-30"/>
       <use x="127.246094" xlink:href="#DejaVuSans-30"/>
      </g>
     </g>
    </g>
    <g id="xtick_9">
     <g id="line2d_17">
      <g>
       <use style="stroke:#000000;stroke-width:0.8;" x="779.760269" xlink:href="#m0fee1c361b" y="593.802635"/>
      </g>
     </g>
     <g id="text_16">
      <!-- 400 -->
      <g transform="translate(770.216519 608.401073)scale(0.1 -0.1)">
       <use xlink:href="#DejaVuSans-34"/>
       <use x="63.623047" xlink:href="#DejaVuSans-30"/>
       <use x="127.246094" xlink:href="#DejaVuSans-30"/>
      </g>
     </g>
    </g>
    <g id="xtick_10">
     <g id="line2d_18">
      <g>
       <use style="stroke:#000000;stroke-width:0.8;" x="1026.745503" xlink:href="#m0fee1c361b" y="593.802635"/>
      </g>
     </g>
     <g id="text_17">
      <!-- 600 -->
      <g transform="translate(1017.201753 608.401073)scale(0.1 -0.1)">
       <use xlink:href="#DejaVuSans-36"/>
       <use x="63.623047" xlink:href="#DejaVuSans-30"/>
       <use x="127.246094" xlink:href="#DejaVuSans-30"/>
      </g>
     </g>
    </g>
    <g id="xtick_11">
     <g id="line2d_19">
      <g>
       <use style="stroke:#000000;stroke-width:0.8;" x="1273.730737" xlink:href="#m0fee1c361b" y="593.802635"/>
      </g>
     </g>
     <g id="text_18">
      <!-- 800 -->
      <g transform="translate(1264.186987 608.401073)scale(0.1 -0.1)">
       <use xlink:href="#DejaVuSans-38"/>
       <use x="63.623047" xlink:href="#DejaVuSans-30"/>
       <use x="127.246094" xlink:href="#DejaVuSans-30"/>
      </g>
     </g>
    </g>
    <g id="xtick_12">
     <g id="line2d_20">
      <g>
       <use style="stroke:#000000;stroke-width:0.8;" x="1520.715971" xlink:href="#m0fee1c361b" y="593.802635"/>
      </g>
     </g>
     <g id="text_19">
      <!-- 1000 -->
      <g transform="translate(1507.990971 608.401073)scale(0.1 -0.1)">
       <use xlink:href="#DejaVuSans-31"/>
       <use x="63.623047" xlink:href="#DejaVuSans-30"/>
       <use x="127.246094" xlink:href="#DejaVuSans-30"/>
       <use x="190.869141" xlink:href="#DejaVuSans-30"/>
      </g>
     </g>
    </g>
   </g>
   <g id="matplotlib.axis_4">
    <g id="ytick_8">
     <g id="line2d_21">
      <g>
       <use style="stroke:#000000;stroke-width:0.8;" x="223.92" xlink:href="#mdf2b70df3e" y="583.915341"/>
      </g>
     </g>
     <g id="text_20">
      <!-- 0 -->
      <g transform="translate(210.5575 587.71456)scale(0.1 -0.1)">
       <use xlink:href="#DejaVuSans-30"/>
      </g>
     </g>
    </g>
    <g id="ytick_9">
     <g id="line2d_22">
      <g>
       <use style="stroke:#000000;stroke-width:0.8;" x="223.92" xlink:href="#mdf2b70df3e" y="539.730233"/>
      </g>
     </g>
     <g id="text_21">
      <!-- 500 -->
      <g transform="translate(197.8325 543.529452)scale(0.1 -0.1)">
       <defs>
        <path d="M 691 4666 
L 3169 4666 
L 3169 4134 
L 1269 4134 
L 1269 2991 
Q 1406 3038 1543 3061 
Q 1681 3084 1819 3084 
Q 2600 3084 3056 2656 
Q 3513 2228 3513 1497 
Q 3513 744 3044 326 
Q 2575 -91 1722 -91 
Q 1428 -91 1123 -41 
Q 819 9 494 109 
L 494 744 
Q 775 591 1075 516 
Q 1375 441 1709 441 
Q 2250 441 2565 725 
Q 2881 1009 2881 1497 
Q 2881 1984 2565 2268 
Q 2250 2553 1709 2553 
Q 1456 2553 1204 2497 
Q 953 2441 691 2322 
L 691 4666 
z
" id="DejaVuSans-35" transform="scale(0.015625)"/>
       </defs>
       <use xlink:href="#DejaVuSans-35"/>
       <use x="63.623047" xlink:href="#DejaVuSans-30"/>
       <use x="127.246094" xlink:href="#DejaVuSans-30"/>
      </g>
     </g>
    </g>
    <g id="ytick_10">
     <g id="line2d_23">
      <g>
       <use style="stroke:#000000;stroke-width:0.8;" x="223.92" xlink:href="#mdf2b70df3e" y="495.545125"/>
      </g>
     </g>
     <g id="text_22">
      <!-- 1000 -->
      <g transform="translate(191.47 499.344344)scale(0.1 -0.1)">
       <use xlink:href="#DejaVuSans-31"/>
       <use x="63.623047" xlink:href="#DejaVuSans-30"/>
       <use x="127.246094" xlink:href="#DejaVuSans-30"/>
       <use x="190.869141" xlink:href="#DejaVuSans-30"/>
      </g>
     </g>
    </g>
    <g id="ytick_11">
     <g id="line2d_24">
      <g>
       <use style="stroke:#000000;stroke-width:0.8;" x="223.92" xlink:href="#mdf2b70df3e" y="451.360017"/>
      </g>
     </g>
     <g id="text_23">
      <!-- 1500 -->
      <g transform="translate(191.47 455.159236)scale(0.1 -0.1)">
       <use xlink:href="#DejaVuSans-31"/>
       <use x="63.623047" xlink:href="#DejaVuSans-35"/>
       <use x="127.246094" xlink:href="#DejaVuSans-30"/>
       <use x="190.869141" xlink:href="#DejaVuSans-30"/>
      </g>
     </g>
    </g>
    <g id="ytick_12">
     <g id="line2d_25">
      <g>
       <use style="stroke:#000000;stroke-width:0.8;" x="223.92" xlink:href="#mdf2b70df3e" y="407.17491"/>
      </g>
     </g>
     <g id="text_24">
      <!-- 2000 -->
      <g transform="translate(191.47 410.974128)scale(0.1 -0.1)">
       <use xlink:href="#DejaVuSans-32"/>
       <use x="63.623047" xlink:href="#DejaVuSans-30"/>
       <use x="127.246094" xlink:href="#DejaVuSans-30"/>
       <use x="190.869141" xlink:href="#DejaVuSans-30"/>
      </g>
     </g>
    </g>
   </g>
   <g id="line2d_26">
    <path clip-path="url(#p9f7110d4ac)" d="M 287.024727 583.915341 
L 1465.144293 583.915341 
L 1466.379219 569.662119 
L 1467.614146 583.825928 
L 1468.849072 386.169459 
L 1470.083998 583.915341 
L 1549.119273 583.915341 
L 1549.119273 583.915341 
" style="fill:none;stroke:#1f77b4;stroke-linecap:square;stroke-width:1.5;"/>
   </g>
   <g id="patch_8">
    <path d="M 223.92 593.802635 
L 223.92 376.282165 
" style="fill:none;stroke:#000000;stroke-linecap:square;stroke-linejoin:miter;stroke-width:0.8;"/>
   </g>
   <g id="patch_9">
    <path d="M 1612.224 593.802635 
L 1612.224 376.282165 
" style="fill:none;stroke:#000000;stroke-linecap:square;stroke-linejoin:miter;stroke-width:0.8;"/>
   </g>
   <g id="patch_10">
    <path d="M 223.92 593.802635 
L 1612.224 593.802635 
" style="fill:none;stroke:#000000;stroke-linecap:square;stroke-linejoin:miter;stroke-width:0.8;"/>
   </g>
   <g id="patch_11">
    <path d="M 223.92 376.282165 
L 1612.224 376.282165 
" style="fill:none;stroke:#000000;stroke-linecap:square;stroke-linejoin:miter;stroke-width:0.8;"/>
   </g>
  </g>
  <g id="axes_3">
   <g id="patch_12">
    <path d="M 223.92 854.8272 
L 1612.224 854.8272 
L 1612.224 637.306729 
L 223.92 637.306729 
z
" style="fill:#ffffff;"/>
   </g>
   <g id="matplotlib.axis_5">
    <g id="xtick_13">
     <g id="line2d_27">
      <g>
       <use style="stroke:#000000;stroke-width:0.8;" x="233.879946" xlink:href="#m0fee1c361b" y="854.8272"/>
      </g>
     </g>
     <g id="text_25">
      <!-- 0 -->
      <g transform="translate(230.698696 869.425637)scale(0.1 -0.1)">
       <use xlink:href="#DejaVuSans-30"/>
      </g>
     </g>
    </g>
    <g id="xtick_14">
     <g id="line2d_28">
      <g>
       <use style="stroke:#000000;stroke-width:0.8;" x="514.755019" xlink:href="#m0fee1c361b" y="854.8272"/>
      </g>
     </g>
     <g id="text_26">
      <!-- 200 -->
      <g transform="translate(505.211269 869.425637)scale(0.1 -0.1)">
       <use xlink:href="#DejaVuSans-32"/>
       <use x="63.623047" xlink:href="#DejaVuSans-30"/>
       <use x="127.246094" xlink:href="#DejaVuSans-30"/>
      </g>
     </g>
    </g>
    <g id="xtick_15">
     <g id="line2d_29">
      <g>
       <use style="stroke:#000000;stroke-width:0.8;" x="795.630093" xlink:href="#m0fee1c361b" y="854.8272"/>
      </g>
     </g>
     <g id="text_27">
      <!-- 400 -->
      <g transform="translate(786.086343 869.425637)scale(0.1 -0.1)">
       <use xlink:href="#DejaVuSans-34"/>
       <use x="63.623047" xlink:href="#DejaVuSans-30"/>
       <use x="127.246094" xlink:href="#DejaVuSans-30"/>
      </g>
     </g>
    </g>
    <g id="xtick_16">
     <g id="line2d_30">
      <g>
       <use style="stroke:#000000;stroke-width:0.8;" x="1076.505166" xlink:href="#m0fee1c361b" y="854.8272"/>
      </g>
     </g>
     <g id="text_28">
      <!-- 600 -->
      <g transform="translate(1066.961416 869.425637)scale(0.1 -0.1)">
       <use xlink:href="#DejaVuSans-36"/>
       <use x="63.623047" xlink:href="#DejaVuSans-30"/>
       <use x="127.246094" xlink:href="#DejaVuSans-30"/>
      </g>
     </g>
    </g>
    <g id="xtick_17">
     <g id="line2d_31">
      <g>
       <use style="stroke:#000000;stroke-width:0.8;" x="1357.38024" xlink:href="#m0fee1c361b" y="854.8272"/>
      </g>
     </g>
     <g id="text_29">
      <!-- 800 -->
      <g transform="translate(1347.83649 869.425637)scale(0.1 -0.1)">
       <use xlink:href="#DejaVuSans-38"/>
       <use x="63.623047" xlink:href="#DejaVuSans-30"/>
       <use x="127.246094" xlink:href="#DejaVuSans-30"/>
      </g>
     </g>
    </g>
   </g>
   <g id="matplotlib.axis_6">
    <g id="ytick_13">
     <g id="line2d_32">
      <g>
       <use style="stroke:#000000;stroke-width:0.8;" x="223.92" xlink:href="#mdf2b70df3e" y="843.863867"/>
      </g>
     </g>
     <g id="text_30">
      <!-- 0 -->
      <g transform="translate(210.5575 847.663086)scale(0.1 -0.1)">
       <use xlink:href="#DejaVuSans-30"/>
      </g>
     </g>
    </g>
    <g id="ytick_14">
     <g id="line2d_33">
      <g>
       <use style="stroke:#000000;stroke-width:0.8;" x="223.92" xlink:href="#mdf2b70df3e" y="801.198602"/>
      </g>
     </g>
     <g id="text_31">
      <!-- 20 -->
      <g transform="translate(204.195 804.997821)scale(0.1 -0.1)">
       <use xlink:href="#DejaVuSans-32"/>
       <use x="63.623047" xlink:href="#DejaVuSans-30"/>
      </g>
     </g>
    </g>
    <g id="ytick_15">
     <g id="line2d_34">
      <g>
       <use style="stroke:#000000;stroke-width:0.8;" x="223.92" xlink:href="#mdf2b70df3e" y="758.533338"/>
      </g>
     </g>
     <g id="text_32">
      <!-- 40 -->
      <g transform="translate(204.195 762.332556)scale(0.1 -0.1)">
       <use xlink:href="#DejaVuSans-34"/>
       <use x="63.623047" xlink:href="#DejaVuSans-30"/>
      </g>
     </g>
    </g>
    <g id="ytick_16">
     <g id="line2d_35">
      <g>
       <use style="stroke:#000000;stroke-width:0.8;" x="223.92" xlink:href="#mdf2b70df3e" y="715.868073"/>
      </g>
     </g>
     <g id="text_33">
      <!-- 60 -->
      <g transform="translate(204.195 719.667291)scale(0.1 -0.1)">
       <use xlink:href="#DejaVuSans-36"/>
       <use x="63.623047" xlink:href="#DejaVuSans-30"/>
      </g>
     </g>
    </g>
    <g id="ytick_17">
     <g id="line2d_36">
      <g>
       <use style="stroke:#000000;stroke-width:0.8;" x="223.92" xlink:href="#mdf2b70df3e" y="673.202808"/>
      </g>
     </g>
     <g id="text_34">
      <!-- 80 -->
      <g transform="translate(204.195 677.002026)scale(0.1 -0.1)">
       <use xlink:href="#DejaVuSans-38"/>
       <use x="63.623047" xlink:href="#DejaVuSans-30"/>
      </g>
     </g>
    </g>
   </g>
   <g id="line2d_37">
    <path clip-path="url(#p6f4050e205)" d="M 235.284321 809.444692 
L 236.688697 828.159841 
L 238.093072 836.01218 
L 239.497447 808.736921 
L 240.901823 826.671566 
L 242.306198 829.245633 
L 243.710574 838.446976 
L 245.114949 842.005399 
L 246.519324 838.870008 
L 247.9237 811.873943 
L 249.328075 843.054008 
L 250.73245 841.746427 
L 252.136826 842.312317 
L 253.541201 842.589228 
L 254.945577 843.183168 
L 256.349952 843.041614 
L 257.754327 842.152824 
L 259.158703 842.776445 
L 261.967453 842.747743 
L 263.371829 842.212185 
L 264.776204 842.505404 
L 266.180579 843.036395 
L 268.98933 843.042266 
L 270.393706 842.612712 
L 273.202456 843.081732 
L 274.606832 842.861573 
L 276.011207 843.256555 
L 277.415582 843.184473 
L 278.819958 842.084982 
L 280.224333 840.299574 
L 281.628709 839.235961 
L 283.033084 840.234342 
L 284.437459 843.294063 
L 285.841835 842.925174 
L 288.650585 842.98584 
L 290.054961 843.159358 
L 291.459336 842.591837 
L 292.863711 840.653459 
L 294.268087 843.172405 
L 295.672462 843.128047 
L 297.076838 843.300586 
L 299.885588 843.16262 
L 301.289964 842.789817 
L 302.694339 842.811344 
L 304.098714 843.27645 
L 305.50309 843.234049 
L 306.907465 840.168783 
L 308.31184 842.021707 
L 309.716216 842.002463 
L 311.120591 843.053356 
L 313.929342 842.361241 
L 315.333717 841.278711 
L 316.738093 842.854724 
L 318.142468 842.988124 
L 319.546843 842.448979 
L 320.951219 843.107499 
L 323.75997 842.745786 
L 325.164345 842.75394 
L 326.56872 839.954495 
L 327.973096 840.996581 
L 329.377471 843.197193 
L 330.781846 842.435606 
L 332.186222 843.184473 
L 333.590597 842.724259 
L 334.994972 842.608472 
L 336.399348 841.996266 
L 337.803723 842.948332 
L 339.208099 840.092461 
L 340.612474 843.2833 
L 342.016849 843.357338 
L 343.421225 843.261773 
L 344.8256 842.893863 
L 346.229975 839.967215 
L 349.038726 843.022044 
L 350.443101 841.903636 
L 351.847477 843.209587 
L 354.656228 843.37593 
L 356.060603 843.252641 
L 357.464978 842.988776 
L 358.869354 839.747382 
L 360.273729 839.216065 
L 361.678104 838.434582 
L 363.08248 840.212163 
L 364.486855 841.498544 
L 365.891231 701.766698 
L 367.295606 792.591925 
L 368.699981 795.588371 
L 370.104357 833.760361 
L 371.508732 761.585052 
L 372.913107 835.80833 
L 374.317483 840.352086 
L 375.721858 841.290453 
L 377.126233 841.432659 
L 378.530609 824.212308 
L 379.934984 835.721571 
L 381.33936 839.838708 
L 382.743735 842.871358 
L 384.14811 838.788468 
L 385.552486 843.012912 
L 386.956861 841.504089 
L 388.361236 843.153487 
L 389.765612 843.060205 
L 396.787489 843.447685 
L 398.191864 843.303848 
L 399.596239 841.077143 
L 401.000615 842.731108 
L 402.40499 842.962031 
L 403.809365 841.371341 
L 405.213741 842.210228 
L 406.618116 840.515493 
L 408.022492 839.598653 
L 409.426867 841.8795 
L 410.831242 841.083992 
L 412.235618 842.342324 
L 413.639993 841.823727 
L 415.044368 842.370047 
L 416.448744 842.02823 
L 417.853119 842.849179 
L 419.257494 842.378528 
L 420.66187 842.869401 
L 422.066245 843.167186 
L 423.470621 842.989428 
L 424.874996 841.019086 
L 426.279371 843.120545 
L 427.683747 842.556938 
L 430.492497 843.018457 
L 431.896873 841.392215 
L 433.301248 843.163272 
L 434.705624 843.007693 
L 436.109999 842.353739 
L 437.514374 841.952235 
L 438.91875 778.529796 
L 440.323125 835.697108 
L 441.7275 843.151531 
L 443.131876 841.331549 
L 444.536251 807.24832 
L 445.940626 842.09281 
L 447.345002 843.159358 
L 448.749377 842.721323 
L 450.153753 842.758506 
L 451.558128 842.051714 
L 452.962503 842.790796 
L 454.366879 843.37169 
L 455.771254 843.478018 
L 457.175629 843.378865 
L 458.580005 843.136853 
L 459.98438 841.057573 
L 461.388755 842.259153 
L 462.793131 842.965945 
L 464.197506 842.964966 
L 465.601882 837.014475 
L 467.006257 843.2272 
L 468.410632 843.27221 
L 471.219383 842.579769 
L 472.623758 841.211195 
L 474.028134 836.286482 
L 475.432509 841.182819 
L 476.836885 842.264697 
L 478.24126 842.282636 
L 479.645635 842.915716 
L 481.050011 843.248727 
L 482.454386 843.36908 
L 483.858761 843.298303 
L 485.263137 841.875587 
L 486.667512 843.068685 
L 488.071887 842.641414 
L 489.476263 843.006389 
L 490.880638 840.769247 
L 492.285014 843.215784 
L 493.689389 843.236659 
L 495.093764 836.977945 
L 496.49814 842.693274 
L 497.902515 843.027589 
L 499.30689 835.736248 
L 500.711266 826.558062 
L 502.115641 792.273591 
L 503.520016 811.075826 
L 504.924392 827.40282 
L 506.328767 816.922598 
L 507.733143 808.03861 
L 509.137518 838.385332 
L 510.541893 839.573538 
L 511.946269 838.150169 
L 513.350644 841.257837 
L 514.755019 811.350454 
L 516.159395 838.504381 
L 517.56377 837.870975 
L 518.968146 839.778042 
L 520.372521 841.957453 
L 521.776896 840.932327 
L 523.181272 842.851462 
L 524.585647 841.724248 
L 525.990022 841.234679 
L 527.394398 841.667169 
L 528.798773 839.562449 
L 530.203148 837.069596 
L 531.607524 843.085972 
L 533.011899 841.853081 
L 534.416275 842.872336 
L 535.82065 842.074871 
L 537.225025 840.439823 
L 538.629401 843.341357 
L 540.033776 843.341683 
L 541.438151 839.644315 
L 542.842527 842.896472 
L 544.246902 841.630313 
L 545.651278 842.472788 
L 547.055653 840.288158 
L 548.460028 839.446335 
L 549.864404 841.610091 
L 551.268779 843.240899 
L 552.673154 843.32407 
L 554.07753 843.110434 
L 555.481905 843.138158 
L 556.88628 843.278081 
L 558.290656 843.290801 
L 559.695031 842.876576 
L 561.099407 843.22296 
L 562.503782 843.205021 
L 563.908157 842.800581 
L 566.716908 843.215132 
L 569.525659 842.088244 
L 570.930034 837.569928 
L 572.334409 841.906246 
L 573.738785 822.825143 
L 575.14316 842.522691 
L 576.547536 842.381789 
L 577.951911 835.142634 
L 579.356286 811.024292 
L 580.760662 839.606807 
L 582.165037 842.706972 
L 583.569412 842.257196 
L 584.973788 842.72165 
L 586.378163 839.154421 
L 587.782539 842.595751 
L 589.186914 842.801559 
L 590.591289 842.171741 
L 591.995665 842.207293 
L 593.40004 843.29178 
L 594.804415 843.345923 
L 596.208791 840.655416 
L 597.613166 840.069956 
L 599.017541 840.680204 
L 600.421917 843.374625 
L 603.230668 843.478018 
L 606.039418 843.381474 
L 607.443794 842.153802 
L 608.848169 840.718365 
L 610.252544 843.250357 
L 613.061295 843.410177 
L 614.46567 843.326027 
L 615.870046 842.771226 
L 617.274421 843.125111 
L 618.678797 842.686098 
L 620.083172 842.890275 
L 621.487547 841.368079 
L 622.891923 840.655742 
L 624.296298 843.226221 
L 625.700673 842.764703 
L 627.105049 843.07423 
L 628.509424 842.494641 
L 629.9138 842.953877 
L 631.318175 831.700651 
L 632.72255 841.9144 
L 634.126926 838.864789 
L 635.531301 748.508909 
L 636.935676 807.39444 
L 638.340052 786.294724 
L 639.744427 841.112369 
L 641.148802 801.519945 
L 642.553178 805.253516 
L 643.957553 832.617817 
L 645.361929 842.599991 
L 646.766304 837.770517 
L 648.170679 840.255216 
L 649.575055 819.740633 
L 650.97943 840.888622 
L 652.383805 841.452555 
L 653.788181 842.20501 
L 655.192556 841.599654 
L 656.596932 841.260446 
L 658.001307 842.113684 
L 659.405682 841.778064 
L 660.810058 842.796667 
L 662.214433 842.2585 
L 663.618808 842.564766 
L 665.023184 841.84297 
L 666.427559 842.189354 
L 667.831934 839.93623 
L 669.23631 842.547805 
L 670.640685 842.911149 
L 672.045061 842.338736 
L 673.449436 843.205347 
L 674.853811 841.233048 
L 676.258187 841.436573 
L 677.662562 843.054334 
L 679.066937 839.94471 
L 680.471313 841.913747 
L 681.875688 842.857007 
L 683.280063 841.150529 
L 684.684439 842.990081 
L 686.088814 841.655101 
L 687.49319 842.51258 
L 688.897565 841.472777 
L 690.30194 843.288518 
L 691.706316 843.348532 
L 693.110691 843.064772 
L 694.515066 840.737283 
L 695.919442 843.092821 
L 697.323817 843.191322 
L 698.728193 842.401033 
L 700.132568 842.672073 
L 701.536943 842.119555 
L 704.345694 842.407556 
L 705.750069 842.584009 
L 707.154445 836.685378 
L 708.55882 835.438136 
L 709.963195 833.823637 
L 711.367571 842.853419 
L 712.771946 839.29728 
L 714.176322 810.973411 
L 715.580697 839.935252 
L 716.985072 841.333506 
L 718.389448 843.019761 
L 719.793823 837.626354 
L 721.198198 842.790796 
L 722.602574 841.944733 
L 725.411324 842.87625 
L 726.8157 839.363817 
L 728.220075 838.573853 
L 729.624451 843.08532 
L 731.028826 842.512254 
L 732.433201 842.948658 
L 733.837577 841.46658 
L 735.241952 843.065424 
L 736.646327 839.607133 
L 738.050703 840.903951 
L 739.455078 841.427441 
L 740.859454 839.78587 
L 742.263829 840.377527 
L 743.668204 843.063467 
L 745.07258 842.073567 
L 746.476955 843.178928 
L 747.88133 843.348858 
L 749.285706 842.623149 
L 750.690081 843.050094 
L 752.094456 843.247748 
L 753.498832 843.193279 
L 754.903207 843.289823 
L 756.307583 843.108151 
L 757.711958 842.54063 
L 759.116333 841.100953 
L 760.520709 841.149877 
L 761.925084 837.634182 
L 763.329459 843.175014 
L 764.733835 843.034439 
L 766.13821 841.790458 
L 767.542586 841.815247 
L 768.946961 838.897405 
L 770.351336 753.010917 
L 771.755712 808.534049 
L 773.160087 796.201555 
L 774.564462 838.910452 
L 775.968838 837.274099 
L 777.373213 813.218381 
L 778.777588 805.057167 
L 780.181964 841.503436 
L 781.586339 842.615973 
L 782.990715 839.201714 
L 784.39509 839.347835 
L 785.799465 837.023281 
L 787.203841 835.235916 
L 788.608216 840.104529 
L 790.012591 843.251662 
L 791.416967 843.325048 
L 792.821342 843.045854 
L 794.225717 840.343932 
L 795.630093 843.305479 
L 797.034468 840.564417 
L 798.438844 836.295941 
L 799.843219 841.459078 
L 801.247594 842.983883 
L 802.65197 842.210881 
L 804.056345 843.26373 
L 805.46072 842.98421 
L 806.865096 842.191637 
L 808.269471 843.078144 
L 809.673847 843.13457 
L 811.078222 841.462666 
L 813.886973 843.276124 
L 815.291348 843.337769 
L 816.695723 842.729477 
L 818.100099 838.604512 
L 819.504474 842.753287 
L 820.908849 843.105868 
L 822.313225 841.633901 
L 823.7176 842.367438 
L 825.121976 842.679249 
L 826.526351 843.17534 
L 827.930726 842.851788 
L 829.335102 843.217415 
L 830.739477 843.165229 
L 832.143852 843.341357 
L 833.548228 843.267318 
L 834.952603 842.609124 
L 836.356978 841.812311 
L 837.761354 841.499522 
L 839.165729 841.534748 
L 840.570105 842.409513 
L 841.97448 842.020402 
L 843.378855 840.208249 
L 844.783231 842.733391 
L 846.187606 842.441477 
L 847.591981 837.639074 
L 848.996357 825.433783 
L 850.400732 840.871661 
L 851.805108 843.134896 
L 853.209483 841.776433 
L 854.613858 843.122828 
L 856.018234 842.902343 
L 857.422609 841.833512 
L 858.826984 843.006715 
L 860.23136 843.338095 
L 861.635735 842.708277 
L 864.444486 842.077807 
L 865.848861 840.65509 
L 867.253237 843.06151 
L 868.657612 842.85081 
L 870.061987 840.426125 
L 871.466363 840.518428 
L 872.870738 842.520734 
L 874.275113 842.970837 
L 875.679489 838.169413 
L 877.083864 842.525953 
L 878.488239 842.286876 
L 879.892615 842.91539 
L 881.29699 843.305153 
L 884.105741 843.406589 
L 885.510116 843.278081 
L 886.914492 842.195877 
L 888.318867 843.185451 
L 891.127618 843.073904 
L 892.531993 842.236321 
L 893.936369 843.271232 
L 895.340744 842.728499 
L 896.745119 839.145288 
L 898.149495 843.055639 
L 899.55387 841.11563 
L 900.958245 841.084971 
L 902.362621 840.325341 
L 903.766996 841.712506 
L 905.171371 752.688017 
L 906.575747 809.535691 
L 907.980122 794.397229 
L 909.384498 830.890792 
L 910.788873 812.88961 
L 912.193248 806.990979 
L 913.597624 834.958026 
L 915.001999 841.463645 
L 916.406374 841.229461 
L 917.81075 842.417341 
L 919.215125 811.176284 
L 920.619501 838.018074 
L 922.023876 839.966237 
L 923.428251 840.80121 
L 924.832627 841.906898 
L 926.237002 842.612059 
L 927.641377 841.807093 
L 930.450128 843.159358 
L 933.258879 842.910497 
L 936.06763 842.887013 
L 937.472005 842.67827 
L 938.87638 842.897777 
L 940.280756 843.260142 
L 943.089506 843.203064 
L 944.493882 842.093136 
L 945.898257 841.695545 
L 947.302632 842.326994 
L 948.707008 842.376897 
L 950.111383 841.169773 
L 951.515759 842.777749 
L 952.920134 842.486813 
L 954.324509 842.888318 
L 955.728885 840.8896 
L 957.13326 842.835154 
L 959.942011 843.142072 
L 962.750762 843.061184 
L 964.155137 843.387019 
L 965.559512 843.431377 
L 966.963888 843.05303 
L 971.177014 843.419635 
L 972.581389 843.279712 
L 973.985764 840.945048 
L 975.39014 839.164206 
L 976.794515 842.901365 
L 978.198891 813.876901 
L 979.603266 841.94408 
L 981.007641 842.777749 
L 982.412017 842.510623 
L 983.816392 804.778951 
L 985.220767 839.360555 
L 986.625143 841.4793 
L 988.029518 841.376233 
L 989.433893 842.67403 
L 990.838269 839.204324 
L 992.242644 842.917347 
L 993.64702 842.04095 
L 995.051395 842.492684 
L 996.45577 843.076513 
L 997.860146 841.701416 
L 999.264521 843.123154 
L 1000.668896 843.441814 
L 1003.477647 843.485194 
L 1004.882023 843.357991 
L 1006.286398 843.060858 
L 1007.690773 843.109456 
L 1009.095149 841.821118 
L 1010.499524 842.908214 
L 1011.903899 842.340367 
L 1013.308275 842.806778 
L 1014.71265 840.241191 
L 1016.117025 839.47145 
L 1017.521401 842.935285 
L 1018.925776 842.251651 
L 1020.330152 840.63389 
L 1021.734527 842.094441 
L 1023.138902 842.886035 
L 1024.543278 841.953539 
L 1025.947653 842.950615 
L 1027.352028 841.368405 
L 1028.756404 843.018783 
L 1030.160779 842.692947 
L 1031.565155 839.933947 
L 1032.96953 835.255812 
L 1034.373905 842.361893 
L 1035.778281 840.709233 
L 1037.182656 841.329266 
L 1038.587031 840.075827 
L 1039.991407 771.622347 
L 1041.395782 805.058145 
L 1042.800157 801.12692 
L 1044.204533 830.648454 
L 1045.608908 831.816438 
L 1047.013284 810.761732 
L 1048.417659 812.437224 
L 1049.822034 836.850089 
L 1051.22641 838.836739 
L 1052.630785 841.541271 
L 1054.03516 834.554238 
L 1055.439536 835.916289 
L 1056.843911 824.998357 
L 1058.248286 842.573898 
L 1059.652662 841.396129 
L 1061.057037 843.072273 
L 1062.461413 843.154792 
L 1063.865788 843.019761 
L 1065.270163 840.60323 
L 1066.674539 842.066391 
L 1068.078914 843.342661 
L 1069.483289 843.32831 
L 1070.887665 841.817204 
L 1072.29204 841.857974 
L 1073.696416 842.940178 
L 1075.100791 842.60521 
L 1076.505166 843.124785 
L 1077.909542 842.621844 
L 1079.313917 840.143016 
L 1080.718292 843.035743 
L 1082.122668 838.848807 
L 1083.527043 839.047766 
L 1084.931418 843.24253 
L 1086.335794 842.370047 
L 1087.740169 843.007041 
L 1089.144545 843.204695 
L 1093.357671 843.415721 
L 1094.762046 843.078144 
L 1096.166421 843.247748 
L 1097.570797 843.197845 
L 1098.975172 843.348206 
L 1100.379547 843.324722 
L 1101.783923 842.91278 
L 1103.188298 843.251336 
L 1104.592674 843.250031 
L 1105.997049 842.450609 
L 1107.401424 843.257207 
L 1110.210175 843.245791 
L 1111.61455 842.259153 
L 1113.018926 827.546658 
L 1114.423301 843.223286 
L 1115.827677 839.618875 
L 1117.232052 838.760744 
L 1118.636427 819.021447 
L 1120.040803 842.650873 
L 1121.445178 841.728162 
L 1122.849553 842.683815 
L 1124.253929 837.604501 
L 1125.658304 842.914737 
L 1127.062679 842.793079 
L 1128.467055 842.401033 
L 1129.87143 843.032482 
L 1131.275806 843.199476 
L 1132.680181 843.10652 
L 1134.084556 841.625747 
L 1136.893307 841.676628 
L 1138.297682 843.238616 
L 1139.702058 842.78786 
L 1141.106433 840.032122 
L 1142.510809 839.980588 
L 1143.915184 841.059857 
L 1145.319559 843.151857 
L 1146.723935 840.98647 
L 1148.12831 841.364491 
L 1149.532685 842.499534 
L 1150.937061 843.104237 
L 1152.341436 843.357338 
L 1156.554562 843.36908 
L 1157.958938 839.911116 
L 1159.363313 843.127721 
L 1163.576439 843.073904 
L 1164.980814 842.758832 
L 1166.38519 843.149574 
L 1167.789565 843.087603 
L 1169.19394 840.0892 
L 1170.598316 843.052051 
L 1172.002691 839.674648 
L 1173.407067 843.152509 
L 1174.811442 605.16776 
L 1176.215817 830.136054 
L 1177.620193 825.030974 
L 1179.024568 829.122344 
L 1180.428943 807.379763 
L 1181.833319 841.996592 
L 1183.237694 834.953134 
L 1184.64207 841.550077 
L 1186.046445 774.686961 
L 1187.45082 838.859897 
L 1188.855196 842.547153 
L 1190.259571 841.838404 
L 1191.663946 836.17624 
L 1193.068322 842.007356 
L 1194.472697 840.668789 
L 1195.877072 838.340648 
L 1197.281448 821.197271 
L 1198.685823 841.469842 
L 1200.090199 842.573246 
L 1201.494574 842.956812 
L 1202.898949 843.080427 
L 1204.303325 842.463003 
L 1205.7077 842.584988 
L 1207.112075 843.006389 
L 1208.516451 843.180885 
L 1209.920826 843.160337 
L 1211.325201 842.642718 
L 1212.729577 843.001496 
L 1214.133952 843.168491 
L 1215.538328 843.214806 
L 1218.347078 842.709582 
L 1219.751454 842.972142 
L 1222.560204 842.179895 
L 1223.96458 842.655113 
L 1226.773331 843.124133 
L 1228.177706 843.146964 
L 1229.582081 843.037374 
L 1239.412709 843.215784 
L 1240.817084 843.330267 
L 1242.22146 843.002475 
L 1245.03021 842.837437 
L 1246.434586 842.308729 
L 1247.838961 842.694904 
L 1249.243336 842.583031 
L 1250.647712 842.638805 
L 1252.052087 842.935285 
L 1253.456462 842.797319 
L 1254.860838 843.147617 
L 1256.265213 843.158706 
L 1257.669589 843.357665 
L 1264.691465 843.23992 
L 1266.095841 843.061184 
L 1267.500216 843.313633 
L 1271.713342 843.264382 
L 1274.522093 843.223938 
L 1275.926468 842.893863 
L 1280.139594 843.006062 
L 1281.54397 842.744481 
L 1284.352721 842.711212 
L 1285.757096 843.251988 
L 1287.161471 843.093474 
L 1288.565847 843.065424 
L 1291.374597 843.25525 
L 1292.778973 842.244149 
L 1294.183348 841.392215 
L 1295.587724 843.339073 
L 1296.992099 843.372342 
L 1298.396474 842.893537 
L 1299.80085 842.150541 
L 1301.205225 842.26274 
L 1302.6096 842.151519 
L 1304.013976 840.294029 
L 1305.418351 842.179895 
L 1306.822726 837.201039 
L 1308.227102 835.713743 
L 1309.631477 697.678263 
L 1311.035853 805.370282 
L 1312.440228 820.596481 
L 1313.844603 827.525457 
L 1315.248979 831.632483 
L 1316.653354 823.809825 
L 1318.057729 817.801929 
L 1319.462105 837.4075 
L 1320.86648 791.847624 
L 1322.270855 842.660331 
L 1323.675231 834.483135 
L 1325.079606 838.833804 
L 1326.483982 824.393328 
L 1327.888357 838.492965 
L 1329.292732 841.598675 
L 1330.697108 842.402664 
L 1333.505858 842.637174 
L 1334.910234 841.973435 
L 1336.314609 843.062162 
L 1337.718985 842.820477 
L 1339.12336 843.198824 
L 1340.527735 842.85929 
L 1341.932111 842.74709 
L 1343.336486 842.250346 
L 1344.740861 842.49725 
L 1346.145237 842.626084 
L 1347.549612 841.887002 
L 1348.953987 842.365807 
L 1350.358363 841.670105 
L 1351.762738 842.43267 
L 1353.167114 842.027904 
L 1354.571489 842.710234 
L 1355.975864 841.082362 
L 1357.38024 842.645328 
L 1358.784615 840.490378 
L 1360.18899 842.937569 
L 1361.593366 843.106846 
L 1362.997741 842.539325 
L 1364.402116 843.14729 
L 1365.806492 843.155444 
L 1367.210867 842.296987 
L 1368.615243 843.301891 
L 1370.019618 843.395173 
L 1371.423993 843.323091 
L 1372.828369 842.789491 
L 1374.232744 841.496913 
L 1375.637119 842.945396 
L 1377.041495 842.717083 
L 1378.44587 843.213501 
L 1379.850246 843.331572 
L 1381.254621 843.206326 
L 1382.658996 842.456806 
L 1384.063372 840.975055 
L 1385.467747 842.686424 
L 1386.872122 843.065424 
L 1388.276498 842.592816 
L 1392.489624 843.178276 
L 1393.893999 842.980622 
L 1395.298375 842.963661 
L 1396.70275 843.14305 
L 1398.107125 842.874293 
L 1399.511501 843.304826 
L 1400.915876 843.164577 
L 1402.320251 840.426451 
L 1403.724627 842.527583 
L 1405.129002 843.277429 
L 1406.533378 842.155759 
L 1407.937753 837.857602 
L 1409.342128 843.296999 
L 1410.746504 843.166208 
L 1412.150879 843.278407 
L 1413.555254 842.910171 
L 1414.95963 841.931686 
L 1416.364005 842.938547 
L 1417.76838 841.139114 
L 1419.172756 842.001811 
L 1420.577131 842.026599 
L 1421.981507 838.730737 
L 1423.385882 842.91539 
L 1424.790257 843.142398 
L 1426.194633 843.214806 
L 1427.599008 842.869075 
L 1429.003383 841.462014 
L 1430.407759 843.197845 
L 1431.812134 843.383431 
L 1433.216509 843.455839 
L 1434.620885 843.335812 
L 1436.02526 841.872651 
L 1437.429636 842.458437 
L 1438.834011 842.650546 
L 1441.642762 840.782619 
L 1443.047137 842.009639 
L 1444.451512 687.221524 
L 1445.855888 795.093584 
L 1447.260263 831.775994 
L 1448.664639 815.080111 
L 1450.069014 833.132826 
L 1451.473389 837.477624 
L 1452.877765 803.807968 
L 1454.28214 835.824964 
L 1455.686515 816.884763 
L 1457.090891 832.204244 
L 1458.495266 842.957138 
L 1459.899641 834.748304 
L 1461.304017 818.701483 
L 1462.708392 841.721964 
L 1464.112768 842.345585 
L 1465.517143 841.46658 
L 1466.921518 840.217055 
L 1468.325894 842.574551 
L 1469.730269 842.699797 
L 1471.134644 841.477343 
L 1472.53902 842.630324 
L 1473.943395 842.739588 
L 1475.34777 842.674356 
L 1476.752146 842.006703 
L 1478.156521 842.65707 
L 1479.560897 842.700449 
L 1480.965272 843.131308 
L 1483.774023 843.022697 
L 1485.178398 842.340367 
L 1486.582773 842.732413 
L 1489.391524 843.105868 
L 1490.7959 842.295356 
L 1492.200275 843.066729 
L 1493.60465 842.538347 
L 1495.009026 840.33219 
L 1496.413401 840.094745 
L 1497.817776 842.636195 
L 1499.222152 843.164903 
L 1500.626527 842.423864 
L 1502.030902 842.014531 
L 1503.435278 842.994321 
L 1506.244029 843.212197 
L 1509.052779 843.363862 
L 1511.86153 843.099018 
L 1513.265905 841.417003 
L 1514.670281 842.624127 
L 1516.074656 841.591826 
L 1517.479032 842.106835 
L 1518.883407 842.78362 
L 1520.287782 843.022044 
L 1521.692158 843.102606 
L 1523.096533 842.724259 
L 1524.500908 842.826021 
L 1525.905284 842.680879 
L 1527.309659 842.740567 
L 1528.714034 843.138484 
L 1530.11841 842.675987 
L 1531.522785 842.815584 
L 1532.927161 842.000833 
L 1534.331536 842.301554 
L 1535.735911 842.396467 
L 1537.140287 841.447663 
L 1538.544662 843.105542 
L 1541.353413 842.808409 
L 1542.757788 838.462958 
L 1544.162163 842.752961 
L 1545.566539 842.449957 
L 1548.37529 841.447989 
L 1549.779665 843.171753 
L 1551.18404 843.190344 
L 1552.588416 843.054008 
L 1555.397166 843.128047 
L 1556.801542 842.376897 
L 1558.205917 842.993342 
L 1559.610293 843.018783 
L 1561.014668 842.926153 
L 1562.419043 841.830576 
L 1563.823419 842.716105 
L 1565.227794 843.30711 
L 1566.632169 843.407241 
L 1568.036545 843.238942 
L 1569.44092 841.218045 
L 1570.845295 841.894178 
L 1572.249671 842.363198 
L 1573.654046 840.348172 
L 1575.058422 840.127361 
L 1576.462797 843.150552 
L 1577.867172 842.214142 
L 1579.271548 606.456098 
L 1580.675923 843.863867 
L 1612.976556 843.863867 
L 1612.976556 843.863867 
" style="fill:none;stroke:#1f77b4;stroke-linecap:square;stroke-width:1.5;"/>
   </g>
   <g id="patch_13">
    <path d="M 223.92 854.8272 
L 223.92 637.306729 
" style="fill:none;stroke:#000000;stroke-linecap:square;stroke-linejoin:miter;stroke-width:0.8;"/>
   </g>
   <g id="patch_14">
    <path d="M 1612.224 854.8272 
L 1612.224 637.306729 
" style="fill:none;stroke:#000000;stroke-linecap:square;stroke-linejoin:miter;stroke-width:0.8;"/>
   </g>
   <g id="patch_15">
    <path d="M 223.92 854.8272 
L 1612.224 854.8272 
" style="fill:none;stroke:#000000;stroke-linecap:square;stroke-linejoin:miter;stroke-width:0.8;"/>
   </g>
   <g id="patch_16">
    <path d="M 223.92 637.306729 
L 1612.224 637.306729 
" style="fill:none;stroke:#000000;stroke-linecap:square;stroke-linejoin:miter;stroke-width:0.8;"/>
   </g>
  </g>
  <g id="text_35">
   <!-- Calibration Table -->
   <g transform="translate(845.608125 28.327725)scale(0.12 -0.12)">
    <defs>
     <path d="M 4122 4306 
L 4122 3641 
Q 3803 3938 3442 4084 
Q 3081 4231 2675 4231 
Q 1875 4231 1450 3742 
Q 1025 3253 1025 2328 
Q 1025 1406 1450 917 
Q 1875 428 2675 428 
Q 3081 428 3442 575 
Q 3803 722 4122 1019 
L 4122 359 
Q 3791 134 3420 21 
Q 3050 -91 2638 -91 
Q 1578 -91 968 557 
Q 359 1206 359 2328 
Q 359 3453 968 4101 
Q 1578 4750 2638 4750 
Q 3056 4750 3426 4639 
Q 3797 4528 4122 4306 
z
" id="DejaVuSans-43" transform="scale(0.015625)"/>
     <path d="M 2194 1759 
Q 1497 1759 1228 1600 
Q 959 1441 959 1056 
Q 959 750 1161 570 
Q 1363 391 1709 391 
Q 2188 391 2477 730 
Q 2766 1069 2766 1631 
L 2766 1759 
L 2194 1759 
z
M 3341 1997 
L 3341 0 
L 2766 0 
L 2766 531 
Q 2569 213 2275 61 
Q 1981 -91 1556 -91 
Q 1019 -91 701 211 
Q 384 513 384 1019 
Q 384 1609 779 1909 
Q 1175 2209 1959 2209 
L 2766 2209 
L 2766 2266 
Q 2766 2663 2505 2880 
Q 2244 3097 1772 3097 
Q 1472 3097 1187 3025 
Q 903 2953 641 2809 
L 641 3341 
Q 956 3463 1253 3523 
Q 1550 3584 1831 3584 
Q 2591 3584 2966 3190 
Q 3341 2797 3341 1997 
z
" id="DejaVuSans-61" transform="scale(0.015625)"/>
     <path d="M 603 4863 
L 1178 4863 
L 1178 0 
L 603 0 
L 603 4863 
z
" id="DejaVuSans-6c" transform="scale(0.015625)"/>
     <path d="M 603 3500 
L 1178 3500 
L 1178 0 
L 603 0 
L 603 3500 
z
M 603 4863 
L 1178 4863 
L 1178 4134 
L 603 4134 
L 603 4863 
z
" id="DejaVuSans-69" transform="scale(0.015625)"/>
     <path d="M 3116 1747 
Q 3116 2381 2855 2742 
Q 2594 3103 2138 3103 
Q 1681 3103 1420 2742 
Q 1159 2381 1159 1747 
Q 1159 1113 1420 752 
Q 1681 391 2138 391 
Q 2594 391 2855 752 
Q 3116 1113 3116 1747 
z
M 1159 2969 
Q 1341 3281 1617 3432 
Q 1894 3584 2278 3584 
Q 2916 3584 3314 3078 
Q 3713 2572 3713 1747 
Q 3713 922 3314 415 
Q 2916 -91 2278 -91 
Q 1894 -91 1617 61 
Q 1341 213 1159 525 
L 1159 0 
L 581 0 
L 581 4863 
L 1159 4863 
L 1159 2969 
z
" id="DejaVuSans-62" transform="scale(0.015625)"/>
     <path d="M 2631 2963 
Q 2534 3019 2420 3045 
Q 2306 3072 2169 3072 
Q 1681 3072 1420 2755 
Q 1159 2438 1159 1844 
L 1159 0 
L 581 0 
L 581 3500 
L 1159 3500 
L 1159 2956 
Q 1341 3275 1631 3429 
Q 1922 3584 2338 3584 
Q 2397 3584 2469 3576 
Q 2541 3569 2628 3553 
L 2631 2963 
z
" id="DejaVuSans-72" transform="scale(0.015625)"/>
     <path d="M 1172 4494 
L 1172 3500 
L 2356 3500 
L 2356 3053 
L 1172 3053 
L 1172 1153 
Q 1172 725 1289 603 
Q 1406 481 1766 481 
L 2356 481 
L 2356 0 
L 1766 0 
Q 1100 0 847 248 
Q 594 497 594 1153 
L 594 3053 
L 172 3053 
L 172 3500 
L 594 3500 
L 594 4494 
L 1172 4494 
z
" id="DejaVuSans-74" transform="scale(0.015625)"/>
     <path d="M 1959 3097 
Q 1497 3097 1228 2736 
Q 959 2375 959 1747 
Q 959 1119 1226 758 
Q 1494 397 1959 397 
Q 2419 397 2687 759 
Q 2956 1122 2956 1747 
Q 2956 2369 2687 2733 
Q 2419 3097 1959 3097 
z
M 1959 3584 
Q 2709 3584 3137 3096 
Q 3566 2609 3566 1747 
Q 3566 888 3137 398 
Q 2709 -91 1959 -91 
Q 1206 -91 779 398 
Q 353 888 353 1747 
Q 353 2609 779 3096 
Q 1206 3584 1959 3584 
z
" id="DejaVuSans-6f" transform="scale(0.015625)"/>
     <path d="M 3513 2113 
L 3513 0 
L 2938 0 
L 2938 2094 
Q 2938 2591 2744 2837 
Q 2550 3084 2163 3084 
Q 1697 3084 1428 2787 
Q 1159 2491 1159 1978 
L 1159 0 
L 581 0 
L 581 3500 
L 1159 3500 
L 1159 2956 
Q 1366 3272 1645 3428 
Q 1925 3584 2291 3584 
Q 2894 3584 3203 3211 
Q 3513 2838 3513 2113 
z
" id="DejaVuSans-6e" transform="scale(0.015625)"/>
     <path id="DejaVuSans-20" transform="scale(0.015625)"/>
     <path d="M -19 4666 
L 3928 4666 
L 3928 4134 
L 2272 4134 
L 2272 0 
L 1638 0 
L 1638 4134 
L -19 4134 
L -19 4666 
z
" id="DejaVuSans-54" transform="scale(0.015625)"/>
     <path d="M 3597 1894 
L 3597 1613 
L 953 1613 
Q 991 1019 1311 708 
Q 1631 397 2203 397 
Q 2534 397 2845 478 
Q 3156 559 3463 722 
L 3463 178 
Q 3153 47 2828 -22 
Q 2503 -91 2169 -91 
Q 1331 -91 842 396 
Q 353 884 353 1716 
Q 353 2575 817 3079 
Q 1281 3584 2069 3584 
Q 2775 3584 3186 3129 
Q 3597 2675 3597 1894 
z
M 3022 2063 
Q 3016 2534 2758 2815 
Q 2500 3097 2075 3097 
Q 1594 3097 1305 2825 
Q 1016 2553 972 2059 
L 3022 2063 
z
" id="DejaVuSans-65" transform="scale(0.015625)"/>
    </defs>
    <use xlink:href="#DejaVuSans-43"/>
    <use x="69.824219" xlink:href="#DejaVuSans-61"/>
    <use x="131.103516" xlink:href="#DejaVuSans-6c"/>
    <use x="158.886719" xlink:href="#DejaVuSans-69"/>
    <use x="186.669922" xlink:href="#DejaVuSans-62"/>
    <use x="250.146484" xlink:href="#DejaVuSans-72"/>
    <use x="291.259766" xlink:href="#DejaVuSans-61"/>
    <use x="352.539062" xlink:href="#DejaVuSans-74"/>
    <use x="391.748047" xlink:href="#DejaVuSans-69"/>
    <use x="419.53125" xlink:href="#DejaVuSans-6f"/>
    <use x="480.712891" xlink:href="#DejaVuSans-6e"/>
    <use x="544.091797" xlink:href="#DejaVuSans-20"/>
    <use x="575.878906" xlink:href="#DejaVuSans-54"/>
    <use x="620.462891" xlink:href="#DejaVuSans-61"/>
    <use x="681.742188" xlink:href="#DejaVuSans-62"/>
    <use x="745.21875" xlink:href="#DejaVuSans-6c"/>
    <use x="773.001953" xlink:href="#DejaVuSans-65"/>
   </g>
  </g>
 </g>
 <defs>
  <clipPath id="p82356710d7">
   <rect height="217.520471" width="1388.304" x="223.92" y="115.2576"/>
  </clipPath>
  <clipPath id="p9f7110d4ac">
   <rect height="217.520471" width="1388.304" x="223.92" y="376.282165"/>
  </clipPath>
  <clipPath id="p6f4050e205">
   <rect height="217.520471" width="1388.304" x="223.92" y="637.306729"/>
  </clipPath>
 </defs>
</svg>
