<?xml version="1.0" encoding="utf-8" standalone="no"?>
<!DOCTYPE svg PUBLIC "-//W3C//DTD SVG 1.1//EN"
  "http://www.w3.org/Graphics/SVG/1.1/DTD/svg11.dtd">
<svg height="960.48pt" version="1.1" viewBox="0 0 1791.36 960.48" width="1791.36pt" xmlns="http://www.w3.org/2000/svg" xmlns:xlink="http://www.w3.org/1999/xlink">
 <metadata>
  <rdf:RDF xmlns:cc="http://creativecommons.org/ns#" xmlns:dc="http://purl.org/dc/elements/1.1/" xmlns:rdf="http://www.w3.org/1999/02/22-rdf-syntax-ns#">
   <cc:Work>
    <dc:type rdf:resource="http://purl.org/dc/dcmitype/StillImage"/>
    <dc:date>2022-04-27T10:46:30.431282</dc:date>
    <dc:format>image/svg+xml</dc:format>
    <dc:creator>
     <cc:Agent>
      <dc:title>Matplotlib v3.4.3, https://matplotlib.org/</dc:title>
     </cc:Agent>
    </dc:creator>
   </cc:Work>
  </rdf:RDF>
 </metadata>
 <defs>
  <style type="text/css">*{stroke-linecap:butt;stroke-linejoin:round;}</style>
 </defs>
 <g id="figure_1">
  <g id="patch_1">
   <path d="M 0 960.48 
L 1791.36 960.48 
L 1791.36 0 
L 0 0 
z
" style="fill:#ffffff;"/>
  </g>
  <g id="axes_1">
   <g id="patch_2">
    <path d="M 223.92 854.8272 
L 1612.224 854.8272 
L 1612.224 115.2576 
L 223.92 115.2576 
z
" style="fill:#ffffff;"/>
   </g>
   <g id="matplotlib.axis_1">
    <g id="xtick_1">
     <g id="line2d_1">
      <defs>
       <path d="M 0 0 
L 0 3.5 
" id="md681df3feb" style="stroke:#000000;stroke-width:0.8;"/>
      </defs>
      <g>
       <use style="stroke:#000000;stroke-width:0.8;" x="387.794988" xlink:href="#md681df3feb" y="854.8272"/>
      </g>
     </g>
     <g id="text_1">
      <!-- 250 -->
      <g transform="translate(378.251238 869.425637)scale(0.1 -0.1)">
       <defs>
        <path d="M 1228 531 
L 3431 531 
L 3431 0 
L 469 0 
L 469 531 
Q 828 903 1448 1529 
Q 2069 2156 2228 2338 
Q 2531 2678 2651 2914 
Q 2772 3150 2772 3378 
Q 2772 3750 2511 3984 
Q 2250 4219 1831 4219 
Q 1534 4219 1204 4116 
Q 875 4013 500 3803 
L 500 4441 
Q 881 4594 1212 4672 
Q 1544 4750 1819 4750 
Q 2544 4750 2975 4387 
Q 3406 4025 3406 3419 
Q 3406 3131 3298 2873 
Q 3191 2616 2906 2266 
Q 2828 2175 2409 1742 
Q 1991 1309 1228 531 
z
" id="DejaVuSans-32" transform="scale(0.015625)"/>
        <path d="M 691 4666 
L 3169 4666 
L 3169 4134 
L 1269 4134 
L 1269 2991 
Q 1406 3038 1543 3061 
Q 1681 3084 1819 3084 
Q 2600 3084 3056 2656 
Q 3513 2228 3513 1497 
Q 3513 744 3044 326 
Q 2575 -91 1722 -91 
Q 1428 -91 1123 -41 
Q 819 9 494 109 
L 494 744 
Q 775 591 1075 516 
Q 1375 441 1709 441 
Q 2250 441 2565 725 
Q 2881 1009 2881 1497 
Q 2881 1984 2565 2268 
Q 2250 2553 1709 2553 
Q 1456 2553 1204 2497 
Q 953 2441 691 2322 
L 691 4666 
z
" id="DejaVuSans-35" transform="scale(0.015625)"/>
        <path d="M 2034 4250 
Q 1547 4250 1301 3770 
Q 1056 3291 1056 2328 
Q 1056 1369 1301 889 
Q 1547 409 2034 409 
Q 2525 409 2770 889 
Q 3016 1369 3016 2328 
Q 3016 3291 2770 3770 
Q 2525 4250 2034 4250 
z
M 2034 4750 
Q 2819 4750 3233 4129 
Q 3647 3509 3647 2328 
Q 3647 1150 3233 529 
Q 2819 -91 2034 -91 
Q 1250 -91 836 529 
Q 422 1150 422 2328 
Q 422 3509 836 4129 
Q 1250 4750 2034 4750 
z
" id="DejaVuSans-30" transform="scale(0.015625)"/>
       </defs>
       <use xlink:href="#DejaVuSans-32"/>
       <use x="63.623047" xlink:href="#DejaVuSans-35"/>
       <use x="127.246094" xlink:href="#DejaVuSans-30"/>
      </g>
     </g>
    </g>
    <g id="xtick_2">
     <g id="line2d_2">
      <g>
       <use style="stroke:#000000;stroke-width:0.8;" x="565.914295" xlink:href="#md681df3feb" y="854.8272"/>
      </g>
     </g>
     <g id="text_2">
      <!-- 500 -->
      <g transform="translate(556.370545 869.425637)scale(0.1 -0.1)">
       <use xlink:href="#DejaVuSans-35"/>
       <use x="63.623047" xlink:href="#DejaVuSans-30"/>
       <use x="127.246094" xlink:href="#DejaVuSans-30"/>
      </g>
     </g>
    </g>
    <g id="xtick_3">
     <g id="line2d_3">
      <g>
       <use style="stroke:#000000;stroke-width:0.8;" x="744.033602" xlink:href="#md681df3feb" y="854.8272"/>
      </g>
     </g>
     <g id="text_3">
      <!-- 750 -->
      <g transform="translate(734.489852 869.425637)scale(0.1 -0.1)">
       <defs>
        <path d="M 525 4666 
L 3525 4666 
L 3525 4397 
L 1831 0 
L 1172 0 
L 2766 4134 
L 525 4134 
L 525 4666 
z
" id="DejaVuSans-37" transform="scale(0.015625)"/>
       </defs>
       <use xlink:href="#DejaVuSans-37"/>
       <use x="63.623047" xlink:href="#DejaVuSans-35"/>
       <use x="127.246094" xlink:href="#DejaVuSans-30"/>
      </g>
     </g>
    </g>
    <g id="xtick_4">
     <g id="line2d_4">
      <g>
       <use style="stroke:#000000;stroke-width:0.8;" x="922.152908" xlink:href="#md681df3feb" y="854.8272"/>
      </g>
     </g>
     <g id="text_4">
      <!-- 1000 -->
      <g transform="translate(909.427908 869.425637)scale(0.1 -0.1)">
       <defs>
        <path d="M 794 531 
L 1825 531 
L 1825 4091 
L 703 3866 
L 703 4441 
L 1819 4666 
L 2450 4666 
L 2450 531 
L 3481 531 
L 3481 0 
L 794 0 
L 794 531 
z
" id="DejaVuSans-31" transform="scale(0.015625)"/>
       </defs>
       <use xlink:href="#DejaVuSans-31"/>
       <use x="63.623047" xlink:href="#DejaVuSans-30"/>
       <use x="127.246094" xlink:href="#DejaVuSans-30"/>
       <use x="190.869141" xlink:href="#DejaVuSans-30"/>
      </g>
     </g>
    </g>
    <g id="xtick_5">
     <g id="line2d_5">
      <g>
       <use style="stroke:#000000;stroke-width:0.8;" x="1100.272215" xlink:href="#md681df3feb" y="854.8272"/>
      </g>
     </g>
     <g id="text_5">
      <!-- 1250 -->
      <g transform="translate(1087.547215 869.425637)scale(0.1 -0.1)">
       <use xlink:href="#DejaVuSans-31"/>
       <use x="63.623047" xlink:href="#DejaVuSans-32"/>
       <use x="127.246094" xlink:href="#DejaVuSans-35"/>
       <use x="190.869141" xlink:href="#DejaVuSans-30"/>
      </g>
     </g>
    </g>
    <g id="xtick_6">
     <g id="line2d_6">
      <g>
       <use style="stroke:#000000;stroke-width:0.8;" x="1278.391522" xlink:href="#md681df3feb" y="854.8272"/>
      </g>
     </g>
     <g id="text_6">
      <!-- 1500 -->
      <g transform="translate(1265.666522 869.425637)scale(0.1 -0.1)">
       <use xlink:href="#DejaVuSans-31"/>
       <use x="63.623047" xlink:href="#DejaVuSans-35"/>
       <use x="127.246094" xlink:href="#DejaVuSans-30"/>
       <use x="190.869141" xlink:href="#DejaVuSans-30"/>
      </g>
     </g>
    </g>
    <g id="xtick_7">
     <g id="line2d_7">
      <g>
       <use style="stroke:#000000;stroke-width:0.8;" x="1456.510828" xlink:href="#md681df3feb" y="854.8272"/>
      </g>
     </g>
     <g id="text_7">
      <!-- 1750 -->
      <g transform="translate(1443.785828 869.425637)scale(0.1 -0.1)">
       <use xlink:href="#DejaVuSans-31"/>
       <use x="63.623047" xlink:href="#DejaVuSans-37"/>
       <use x="127.246094" xlink:href="#DejaVuSans-35"/>
       <use x="190.869141" xlink:href="#DejaVuSans-30"/>
      </g>
     </g>
    </g>
   </g>
   <g id="matplotlib.axis_2">
    <g id="ytick_1">
     <g id="line2d_8">
      <defs>
       <path d="M 0 0 
L -3.5 0 
" id="m6a73ca8ff4" style="stroke:#000000;stroke-width:0.8;"/>
      </defs>
      <g>
       <use style="stroke:#000000;stroke-width:0.8;" x="223.92" xlink:href="#m6a73ca8ff4" y="820.996445"/>
      </g>
     </g>
     <g id="text_8">
      <!-- 0.0 -->
      <g transform="translate(201.016875 824.795664)scale(0.1 -0.1)">
       <defs>
        <path d="M 684 794 
L 1344 794 
L 1344 0 
L 684 0 
L 684 794 
z
" id="DejaVuSans-2e" transform="scale(0.015625)"/>
       </defs>
       <use xlink:href="#DejaVuSans-30"/>
       <use x="63.623047" xlink:href="#DejaVuSans-2e"/>
       <use x="95.410156" xlink:href="#DejaVuSans-30"/>
      </g>
     </g>
    </g>
    <g id="ytick_2">
     <g id="line2d_9">
      <g>
       <use style="stroke:#000000;stroke-width:0.8;" x="223.92" xlink:href="#m6a73ca8ff4" y="710.703014"/>
      </g>
     </g>
     <g id="text_9">
      <!-- 0.2 -->
      <g transform="translate(201.016875 714.502233)scale(0.1 -0.1)">
       <use xlink:href="#DejaVuSans-30"/>
       <use x="63.623047" xlink:href="#DejaVuSans-2e"/>
       <use x="95.410156" xlink:href="#DejaVuSans-32"/>
      </g>
     </g>
    </g>
    <g id="ytick_3">
     <g id="line2d_10">
      <g>
       <use style="stroke:#000000;stroke-width:0.8;" x="223.92" xlink:href="#m6a73ca8ff4" y="600.409584"/>
      </g>
     </g>
     <g id="text_10">
      <!-- 0.4 -->
      <g transform="translate(201.016875 604.208803)scale(0.1 -0.1)">
       <defs>
        <path d="M 2419 4116 
L 825 1625 
L 2419 1625 
L 2419 4116 
z
M 2253 4666 
L 3047 4666 
L 3047 1625 
L 3713 1625 
L 3713 1100 
L 3047 1100 
L 3047 0 
L 2419 0 
L 2419 1100 
L 313 1100 
L 313 1709 
L 2253 4666 
z
" id="DejaVuSans-34" transform="scale(0.015625)"/>
       </defs>
       <use xlink:href="#DejaVuSans-30"/>
       <use x="63.623047" xlink:href="#DejaVuSans-2e"/>
       <use x="95.410156" xlink:href="#DejaVuSans-34"/>
      </g>
     </g>
    </g>
    <g id="ytick_4">
     <g id="line2d_11">
      <g>
       <use style="stroke:#000000;stroke-width:0.8;" x="223.92" xlink:href="#m6a73ca8ff4" y="490.116154"/>
      </g>
     </g>
     <g id="text_11">
      <!-- 0.6 -->
      <g transform="translate(201.016875 493.915373)scale(0.1 -0.1)">
       <defs>
        <path d="M 2113 2584 
Q 1688 2584 1439 2293 
Q 1191 2003 1191 1497 
Q 1191 994 1439 701 
Q 1688 409 2113 409 
Q 2538 409 2786 701 
Q 3034 994 3034 1497 
Q 3034 2003 2786 2293 
Q 2538 2584 2113 2584 
z
M 3366 4563 
L 3366 3988 
Q 3128 4100 2886 4159 
Q 2644 4219 2406 4219 
Q 1781 4219 1451 3797 
Q 1122 3375 1075 2522 
Q 1259 2794 1537 2939 
Q 1816 3084 2150 3084 
Q 2853 3084 3261 2657 
Q 3669 2231 3669 1497 
Q 3669 778 3244 343 
Q 2819 -91 2113 -91 
Q 1303 -91 875 529 
Q 447 1150 447 2328 
Q 447 3434 972 4092 
Q 1497 4750 2381 4750 
Q 2619 4750 2861 4703 
Q 3103 4656 3366 4563 
z
" id="DejaVuSans-36" transform="scale(0.015625)"/>
       </defs>
       <use xlink:href="#DejaVuSans-30"/>
       <use x="63.623047" xlink:href="#DejaVuSans-2e"/>
       <use x="95.410156" xlink:href="#DejaVuSans-36"/>
      </g>
     </g>
    </g>
    <g id="ytick_5">
     <g id="line2d_12">
      <g>
       <use style="stroke:#000000;stroke-width:0.8;" x="223.92" xlink:href="#m6a73ca8ff4" y="379.822723"/>
      </g>
     </g>
     <g id="text_12">
      <!-- 0.8 -->
      <g transform="translate(201.016875 383.621942)scale(0.1 -0.1)">
       <defs>
        <path d="M 2034 2216 
Q 1584 2216 1326 1975 
Q 1069 1734 1069 1313 
Q 1069 891 1326 650 
Q 1584 409 2034 409 
Q 2484 409 2743 651 
Q 3003 894 3003 1313 
Q 3003 1734 2745 1975 
Q 2488 2216 2034 2216 
z
M 1403 2484 
Q 997 2584 770 2862 
Q 544 3141 544 3541 
Q 544 4100 942 4425 
Q 1341 4750 2034 4750 
Q 2731 4750 3128 4425 
Q 3525 4100 3525 3541 
Q 3525 3141 3298 2862 
Q 3072 2584 2669 2484 
Q 3125 2378 3379 2068 
Q 3634 1759 3634 1313 
Q 3634 634 3220 271 
Q 2806 -91 2034 -91 
Q 1263 -91 848 271 
Q 434 634 434 1313 
Q 434 1759 690 2068 
Q 947 2378 1403 2484 
z
M 1172 3481 
Q 1172 3119 1398 2916 
Q 1625 2713 2034 2713 
Q 2441 2713 2670 2916 
Q 2900 3119 2900 3481 
Q 2900 3844 2670 4047 
Q 2441 4250 2034 4250 
Q 1625 4250 1398 4047 
Q 1172 3844 1172 3481 
z
" id="DejaVuSans-38" transform="scale(0.015625)"/>
       </defs>
       <use xlink:href="#DejaVuSans-30"/>
       <use x="63.623047" xlink:href="#DejaVuSans-2e"/>
       <use x="95.410156" xlink:href="#DejaVuSans-38"/>
      </g>
     </g>
    </g>
    <g id="ytick_6">
     <g id="line2d_13">
      <g>
       <use style="stroke:#000000;stroke-width:0.8;" x="223.92" xlink:href="#m6a73ca8ff4" y="269.529293"/>
      </g>
     </g>
     <g id="text_13">
      <!-- 1.0 -->
      <g transform="translate(201.016875 273.328512)scale(0.1 -0.1)">
       <use xlink:href="#DejaVuSans-31"/>
       <use x="63.623047" xlink:href="#DejaVuSans-2e"/>
       <use x="95.410156" xlink:href="#DejaVuSans-30"/>
      </g>
     </g>
    </g>
    <g id="ytick_7">
     <g id="line2d_14">
      <g>
       <use style="stroke:#000000;stroke-width:0.8;" x="223.92" xlink:href="#m6a73ca8ff4" y="159.235863"/>
      </g>
     </g>
     <g id="text_14">
      <!-- 1.2 -->
      <g transform="translate(201.016875 163.035082)scale(0.1 -0.1)">
       <use xlink:href="#DejaVuSans-31"/>
       <use x="63.623047" xlink:href="#DejaVuSans-2e"/>
       <use x="95.410156" xlink:href="#DejaVuSans-32"/>
      </g>
     </g>
    </g>
    <g id="text_15">
     <!-- 1e6 -->
     <g transform="translate(223.92 112.2576)scale(0.1 -0.1)">
      <defs>
       <path d="M 3597 1894 
L 3597 1613 
L 953 1613 
Q 991 1019 1311 708 
Q 1631 397 2203 397 
Q 2534 397 2845 478 
Q 3156 559 3463 722 
L 3463 178 
Q 3153 47 2828 -22 
Q 2503 -91 2169 -91 
Q 1331 -91 842 396 
Q 353 884 353 1716 
Q 353 2575 817 3079 
Q 1281 3584 2069 3584 
Q 2775 3584 3186 3129 
Q 3597 2675 3597 1894 
z
M 3022 2063 
Q 3016 2534 2758 2815 
Q 2500 3097 2075 3097 
Q 1594 3097 1305 2825 
Q 1016 2553 972 2059 
L 3022 2063 
z
" id="DejaVuSans-65" transform="scale(0.015625)"/>
      </defs>
      <use xlink:href="#DejaVuSans-31"/>
      <use x="63.623047" xlink:href="#DejaVuSans-65"/>
      <use x="125.146484" xlink:href="#DejaVuSans-36"/>
     </g>
    </g>
   </g>
   <g id="line2d_15">
    <path clip-path="url(#pe9eb4039f5)" d="M 223.212749 820.996445 
L 325.096992 820.888909 
L 325.809469 820.820527 
L 327.946901 820.919239 
L 332.934242 820.8856 
L 333.646719 820.812806 
L 334.359196 820.934129 
L 337.209105 820.993136 
L 337.921582 820.822733 
L 339.346537 820.995893 
L 350.746172 820.96832 
L 354.308558 820.976041 
L 357.158467 820.993687 
L 379.957739 820.935783 
L 383.520125 820.971077 
L 385.657556 820.857475 
L 386.370034 820.966114 
L 387.794988 820.94185 
L 391.357374 820.9231 
L 392.069851 820.853063 
L 393.494806 820.928063 
L 394.91976 820.886703 
L 396.344715 820.958945 
L 398.482146 820.933578 
L 399.194624 820.450492 
L 399.907101 820.864644 
L 400.619578 820.717402 
L 401.332055 820.741667 
L 402.044533 820.445529 
L 402.75701 820.846997 
L 403.469487 820.646263 
L 404.181964 820.921997 
L 407.031873 820.961702 
L 407.74435 820.728983 
L 408.456828 820.94571 
L 411.306737 820.873468 
L 412.019214 820.922548 
L 413.444168 820.707476 
L 414.156645 820.947364 
L 414.869123 820.262442 
L 415.5816 820.536521 
L 416.294077 820.629168 
L 417.006554 820.58119 
L 417.719032 820.201781 
L 418.431509 820.255273 
L 419.143986 820.751042 
L 419.856463 820.463176 
L 420.568941 820.906556 
L 421.281418 820.583396 
L 421.993895 820.921997 
L 422.706372 820.68652 
L 423.418849 820.897181 
L 426.268758 820.887254 
L 429.831144 820.792402 
L 430.543622 820.596631 
L 431.256099 820.841483 
L 434.106008 820.910416 
L 434.818485 820.951776 
L 435.530962 820.872365 
L 436.24344 820.94571 
L 437.668394 820.945158 
L 441.23078 820.90821 
L 443.368212 820.93082 
L 448.355552 820.950673 
L 451.205461 820.89332 
L 451.917938 820.959497 
L 453.342893 820.899938 
L 454.05537 820.959497 
L 455.480325 820.93082 
L 458.330234 820.947916 
L 461.180142 820.921445 
L 462.605097 820.944055 
L 469.729869 820.945158 
L 471.154824 820.855821 
L 474.004733 820.920894 
L 475.429687 820.679903 
L 476.142164 820.903247 
L 479.70455 820.960048 
L 482.554459 820.913725 
L 484.691891 820.924203 
L 485.404368 820.954533 
L 486.116845 820.694792 
L 486.829323 820.715197 
L 487.5418 820.936335 
L 488.254277 819.991672 
L 488.966754 820.428985 
L 489.679232 820.363361 
L 490.391709 819.611711 
L 491.104186 819.29186 
L 491.816663 819.956929 
L 492.52914 820.276229 
L 493.241618 820.859681 
L 493.954095 820.685969 
L 494.666572 820.820527 
L 495.379049 820.435603 
L 496.091527 820.192406 
L 496.804004 819.746269 
L 497.516481 820.240383 
L 498.228958 820.392037 
L 498.941435 820.361155 
L 499.653913 819.44241 
L 500.36639 820.818872 
L 501.078867 820.490198 
L 501.791344 819.584689 
L 502.503822 820.439463 
L 503.216299 820.6788 
L 503.928776 819.46116 
L 504.641253 820.512257 
L 505.353731 820.063362 
L 506.066208 819.284139 
L 506.778685 820.415198 
L 507.491162 819.918878 
L 508.203639 818.9687 
L 508.916117 820.808946 
L 509.628594 815.059901 
L 510.341071 818.752525 
L 511.053548 820.435051 
L 511.766026 816.20971 
L 512.478503 815.654383 
L 513.19098 820.090384 
L 513.903457 818.894803 
L 514.615934 819.846084 
L 515.328412 817.748303 
L 516.040889 819.458954 
L 516.753366 820.420162 
L 517.465843 819.982848 
L 518.178321 820.574572 
L 518.890798 820.883946 
L 521.02823 820.511705 
L 522.453184 820.87071 
L 523.165661 810.457356 
L 523.878138 810.751288 
L 524.590616 809.957727 
L 525.303093 806.144883 
L 526.01557 815.27001 
L 526.728047 816.151254 
L 527.440525 794.128414 
L 528.153002 802.434612 
L 528.865479 789.644434 
L 529.577956 817.160439 
L 530.290433 819.289654 
L 531.002911 806.347823 
L 531.715388 818.949399 
L 532.427865 817.741134 
L 533.140342 820.915379 
L 533.85282 820.830453 
L 534.565297 819.959687 
L 535.277774 820.93468 
L 535.990251 820.827696 
L 536.702728 806.214368 
L 537.415206 820.914828 
L 538.127683 820.963357 
L 540.265115 820.823836 
L 541.690069 820.907659 
L 543.115024 820.78413 
L 545.252455 820.881188 
L 545.964932 820.667219 
L 547.389887 820.960048 
L 548.814841 820.726226 
L 550.239796 820.918136 
L 550.952273 820.70527 
L 551.66475 820.901592 
L 552.377227 820.941298 
L 553.802182 820.648469 
L 554.514659 820.961702 
L 555.227136 820.719608 
L 555.939614 820.875673 
L 556.652091 820.676594 
L 557.364568 820.593322 
L 558.077045 820.93468 
L 558.789523 815.292069 
L 559.502 820.917034 
L 560.214477 820.907659 
L 560.926954 820.468139 
L 561.639431 820.795711 
L 562.351909 814.789131 
L 563.064386 820.737255 
L 563.776863 809.815448 
L 564.48934 820.684314 
L 565.201818 790.805824 
L 565.914295 809.336775 
L 566.626772 809.326848 
L 567.339249 820.609866 
L 568.051726 809.227033 
L 568.764204 809.302584 
L 569.476681 796.978396 
L 570.189158 798.823605 
L 570.901635 808.010496 
L 571.614113 812.032346 
L 572.32659 820.265751 
L 573.039067 819.943694 
L 573.751544 808.968946 
L 574.464022 820.224391 
L 575.176499 820.839828 
L 575.888976 820.346816 
L 577.31393 820.199023 
L 578.026408 820.776409 
L 578.738885 819.943694 
L 579.451362 820.770343 
L 580.163839 820.17531 
L 580.876317 820.698101 
L 581.588794 814.640786 
L 582.301271 820.508396 
L 583.013748 820.358397 
L 583.726225 820.37439 
L 584.438703 820.749939 
L 585.15118 820.845894 
L 585.863657 820.544242 
L 586.576134 817.764847 
L 587.288612 820.710233 
L 588.001089 820.942401 
L 588.713566 820.717954 
L 589.426043 820.818321 
L 590.138521 816.386179 
L 590.850998 808.603875 
L 591.563475 820.85196 
L 592.275952 817.996463 
L 592.988429 809.255709 
L 593.700907 807.46675 
L 594.413384 813.799247 
L 595.125861 798.252285 
L 595.838338 811.006066 
L 596.550816 815.389127 
L 597.263293 810.847795 
L 597.97577 813.689505 
L 598.688247 810.964154 
L 599.400724 799.781503 
L 600.113202 820.78027 
L 600.825679 797.272879 
L 601.538156 798.34052 
L 602.250633 806.615284 
L 602.963111 810.484929 
L 603.675588 816.165593 
L 604.388065 820.700858 
L 605.100542 811.548158 
L 605.81302 820.828799 
L 606.525497 816.440223 
L 607.237974 820.793505 
L 608.662928 820.538176 
L 609.375406 820.79185 
L 610.087883 819.915569 
L 610.80036 811.485842 
L 611.512837 820.699755 
L 612.225315 820.810049 
L 612.937792 820.663359 
L 613.650269 808.531633 
L 614.362746 820.759865 
L 615.075223 820.574572 
L 616.500178 820.738358 
L 617.212655 820.660601 
L 617.925132 818.088559 
L 618.63761 820.813909 
L 619.350087 820.623102 
L 620.062564 813.368551 
L 620.775041 817.02919 
L 621.487518 818.899215 
L 622.199996 816.026623 
L 622.912473 812.248521 
L 623.62495 819.670718 
L 624.337427 819.551601 
L 625.049905 818.394071 
L 625.762382 818.189477 
L 626.474859 820.642403 
L 627.187336 820.639094 
L 627.899814 820.523286 
L 628.612291 820.730638 
L 629.324768 820.73891 
L 630.037245 820.304905 
L 630.749722 803.841405 
L 631.4622 820.491301 
L 632.887154 820.695344 
L 633.599631 789.528626 
L 634.312109 820.245898 
L 635.024586 820.731189 
L 635.737063 812.466351 
L 636.44954 773.970083 
L 637.162017 777.164733 
L 637.874495 765.786862 
L 638.586972 767.70652 
L 639.299449 820.515014 
L 640.011926 820.486889 
L 640.724404 780.238611 
L 641.436881 805.435145 
L 642.149358 782.544295 
L 642.861835 805.502424 
L 643.574313 798.127653 
L 644.28679 812.546314 
L 644.999267 790.203622 
L 645.711744 820.530455 
L 646.424221 819.98726 
L 647.136699 817.167608 
L 647.849176 819.753438 
L 648.561653 819.985606 
L 649.27413 804.863273 
L 649.986608 820.235972 
L 650.699085 802.241047 
L 651.411562 819.862628 
L 652.124039 819.019987 
L 652.836516 819.44241 
L 653.548994 819.721453 
L 654.261471 819.19039 
L 654.973948 819.549946 
L 655.686425 811.237682 
L 656.398903 819.23947 
L 657.11138 819.58524 
L 657.823857 820.162075 
L 658.536334 820.247001 
L 659.248812 820.059502 
L 659.961289 819.475498 
L 660.673766 819.29186 
L 661.386243 819.931562 
L 662.09872 819.894062 
L 663.523675 820.15656 
L 664.236152 818.981384 
L 664.948629 815.059349 
L 665.661107 819.451234 
L 666.373584 820.034686 
L 667.798538 819.21686 
L 668.511015 819.713181 
L 669.223493 819.394433 
L 669.93597 819.537263 
L 670.648447 820.017591 
L 671.360924 815.697397 
L 672.073402 819.174397 
L 672.785879 807.947629 
L 673.498356 819.419249 
L 674.210833 820.126781 
L 674.923311 819.119251 
L 675.635788 812.597049 
L 676.348265 799.09217 
L 677.060742 810.322247 
L 677.773219 789.498847 
L 678.485697 810.42482 
L 679.198174 819.03267 
L 679.910651 819.110979 
L 680.623128 804.059234 
L 681.335606 810.240078 
L 682.048083 819.557116 
L 682.76056 819.523476 
L 683.473037 815.181224 
L 684.185514 811.628121 
L 684.897992 806.062714 
L 685.610469 814.9656 
L 686.322946 813.864872 
L 687.035423 800.827637 
L 687.747901 811.40974 
L 688.460378 815.358796 
L 689.172855 817.938559 
L 689.885332 809.701295 
L 690.59781 818.968149 
L 691.310287 810.732538 
L 692.022764 810.900184 
L 692.735241 819.589652 
L 693.447718 816.098865 
L 694.160196 807.54947 
L 695.58515 819.02881 
L 696.297627 757.599781 
L 697.010105 817.246468 
L 697.722582 811.903854 
L 698.435059 812.13161 
L 699.147536 819.120354 
L 699.860013 818.14922 
L 700.572491 811.009926 
L 701.284968 817.368894 
L 701.997445 799.255404 
L 702.709922 805.554262 
L 703.4224 799.737386 
L 704.134877 808.671154 
L 704.847354 810.050925 
L 705.559831 810.238975 
L 706.272308 816.440223 
L 706.984786 813.222412 
L 707.697263 802.442884 
L 708.40974 811.24816 
L 709.122217 808.708654 
L 709.834695 807.916195 
L 710.547172 697.684529 
L 711.259649 698.979926 
L 711.972126 699.196101 
L 712.684604 577.379213 
L 713.397081 474.902278 
L 714.109558 471.689982 
L 714.822035 721.166001 
L 715.534512 753.81065 
L 716.24699 752.516908 
L 716.959467 809.176849 
L 717.671944 807.207009 
L 718.384421 694.64374 
L 719.096899 746.421542 
L 719.809376 811.781429 
L 720.521853 805.883488 
L 721.23433 798.794929 
L 721.946807 789.700132 
L 722.659285 789.726051 
L 723.371762 783.956051 
L 724.084239 797.251372 
L 724.796716 696.644462 
L 725.509194 793.770512 
L 726.221671 802.489759 
L 726.934148 812.584365 
L 727.646625 794.760947 
L 728.359103 806.21878 
L 729.07158 805.764371 
L 729.784057 806.963812 
L 730.496534 799.623784 
L 731.209011 764.090549 
L 731.921489 794.496242 
L 732.633966 771.443261 
L 733.346443 780.322434 
L 734.05892 795.612963 
L 734.771398 779.866922 
L 735.483875 779.488615 
L 736.196352 809.634016 
L 736.908829 768.61644 
L 737.621306 807.79377 
L 738.333784 789.495538 
L 739.046261 743.33498 
L 739.758738 799.987752 
L 740.471215 802.070644 
L 741.183693 754.923511 
L 741.89617 698.003277 
L 742.608647 768.957247 
L 743.321124 789.484509 
L 744.033602 756.142253 
L 744.746079 667.957693 
L 745.458556 729.823484 
L 746.171033 676.713337 
L 746.88351 741.313302 
L 748.308465 790.814096 
L 749.020942 796.297885 
L 749.733419 699.081947 
L 750.445897 796.776559 
L 751.158374 645.525663 
L 751.870851 704.998638 
L 752.583328 702.140384 
L 753.295805 743.246745 
L 754.008283 581.637642 
L 754.72076 494.872558 
L 755.433237 795.601382 
L 756.145714 792.761327 
L 756.858192 738.000638 
L 757.570669 637.940784 
L 758.283146 744.075049 
L 758.995623 692.923713 
L 759.708101 790.692222 
L 760.420578 656.579271 
L 761.133055 791.810597 
L 761.845532 793.485403 
L 762.558009 774.527065 
L 763.270487 783.177379 
L 763.982964 734.123273 
L 764.695441 723.948153 
L 765.407918 752.912862 
L 766.120396 681.65724 
L 766.832873 718.709766 
L 767.54535 780.00534 
L 768.257827 762.259678 
L 768.970304 640.482496 
L 769.682782 748.030172 
L 770.395259 524.80068 
L 771.107736 719.920788 
L 771.820213 720.696151 
L 772.532691 690.782918 
L 773.245168 769.872131 
L 773.957645 789.803808 
L 774.670122 760.484506 
L 775.382599 785.93306 
L 776.095077 773.662365 
L 776.807554 754.326823 
L 778.232508 738.953574 
L 778.944986 765.145506 
L 779.657463 781.138605 
L 780.36994 738.176005 
L 781.082417 716.742683 
L 781.794895 754.876085 
L 782.507372 660.841009 
L 783.219849 747.309955 
L 783.932326 741.311096 
L 784.644803 765.786862 
L 785.357281 762.467582 
L 786.069758 760.124398 
L 786.782235 753.3783 
L 787.494712 744.167144 
L 788.20719 750.104791 
L 788.919667 786.453645 
L 789.632144 729.423118 
L 790.344621 756.081592 
L 791.057098 734.680255 
L 791.769576 734.060957 
L 792.482053 727.271845 
L 793.19453 726.947582 
L 793.907007 751.634009 
L 794.619485 708.981885 
L 795.331962 748.581087 
L 796.044439 762.987064 
L 796.756916 754.336198 
L 797.469394 702.99957 
L 798.181871 710.365517 
L 798.894348 738.244387 
L 799.606825 680.548239 
L 800.319302 747.806827 
L 801.03178 694.396682 
L 801.744257 709.827285 
L 802.456734 748.768035 
L 803.169211 730.881198 
L 803.881689 656.863276 
L 804.594166 696.617992 
L 805.306643 660.149469 
L 806.01912 715.672836 
L 806.731597 715.852063 
L 807.444075 695.290611 
L 808.156552 699.216505 
L 808.869029 693.610842 
L 809.581506 703.774381 
L 810.293984 692.747795 
L 811.006461 676.707822 
L 811.718938 710.146033 
L 812.431415 687.032941 
L 813.143893 718.729619 
L 813.85637 688.021722 
L 814.568847 740.799886 
L 815.281324 707.94623 
L 815.993801 705.911316 
L 816.706279 736.829322 
L 817.418756 716.039011 
L 818.131233 709.709271 
L 818.84371 734.258934 
L 819.556188 712.120285 
L 820.268665 712.912192 
L 820.981142 732.769421 
L 821.693619 713.254102 
L 822.406096 677.050283 
L 823.118574 619.16057 
L 823.831051 699.390217 
L 824.543528 680.865333 
L 825.256005 635.549071 
L 825.968483 660.207373 
L 826.68096 662.204787 
L 827.393437 665.560465 
L 828.105914 686.459967 
L 828.818392 681.383712 
L 829.530869 623.343449 
L 830.243346 629.86179 
L 830.955823 658.455914 
L 831.6683 599.100401 
L 832.380778 644.674749 
L 833.093255 590.141817 
L 833.805732 657.249855 
L 834.518209 680.494195 
L 835.230687 618.46903 
L 835.943164 668.82129 
L 836.655641 650.738131 
L 837.368118 661.207735 
L 838.080595 649.166449 
L 838.793073 678.726192 
L 839.50555 647.901384 
L 840.218027 622.801356 
L 840.930504 644.833572 
L 841.642982 636.895754 
L 842.355459 622.156691 
L 843.067936 622.312205 
L 843.780413 643.249207 
L 844.492891 624.822483 
L 845.205368 671.980094 
L 845.917845 644.753058 
L 846.630322 633.604046 
L 847.342799 601.032191 
L 848.055277 610.018348 
L 848.767754 541.589546 
L 849.480231 620.944015 
L 850.192708 617.362787 
L 850.905186 504.940694 
L 851.617663 595.94656 
L 852.33014 497.530078 
L 853.042617 415.155224 
L 853.755094 433.328272 
L 854.467572 448.514575 
L 855.180049 396.144497 
L 855.892526 508.445268 
L 856.605003 533.681507 
L 857.317481 489.974978 
L 858.029958 531.681887 
L 858.742435 490.339498 
L 859.454912 432.178463 
L 860.167389 492.920364 
L 860.879867 421.802057 
L 861.592344 498.656174 
L 862.304821 485.497065 
L 863.017298 429.266165 
L 863.729776 505.990136 
L 864.442253 442.805235 
L 865.15473 503.978935 
L 865.867207 473.987394 
L 866.579685 515.711399 
L 867.292162 521.208423 
L 868.004639 284.858426 
L 868.717116 365.69965 
L 869.429593 397.961581 
L 870.142071 542.449835 
L 870.854548 237.960005 
L 871.567025 364.902228 
L 872.279502 271.232775 
L 872.99198 428.055695 
L 873.704457 464.369255 
L 874.416934 371.430496 
L 875.129411 437.219976 
L 875.841888 222.397602 
L 876.554366 263.023084 
L 877.266843 406.857298 
L 877.97932 191.833638 
L 878.691797 140.592413 
L 879.404275 203.199376 
L 880.829229 477.796378 
L 881.541706 450.237358 
L 882.254184 178.993828 
L 882.966661 347.840386 
L 883.679138 325.291446 
L 884.391615 457.867458 
L 885.104092 317.947558 
L 885.81657 398.619481 
L 886.529047 241.631121 
L 887.241524 266.869567 
L 887.954001 385.267359 
L 888.666479 275.034038 
L 889.378956 245.018233 
L 890.091433 533.721213 
L 890.80391 397.627392 
L 891.516387 403.210997 
L 892.228865 420.791218 
L 892.941342 471.329322 
L 893.653819 400.282706 
L 894.366296 494.400502 
L 895.791251 292.435033 
L 896.503728 366.402219 
L 897.216205 407.182663 
L 897.928683 328.030032 
L 898.64116 277.995417 
L 899.353637 290.349935 
L 900.066114 399.702563 
L 900.778591 293.062602 
L 901.491069 408.92916 
L 902.203546 379.868495 
L 902.916023 290.285414 
L 903.6285 389.142518 
L 904.340978 417.971567 
L 905.053455 457.75937 
L 905.765932 477.651342 
L 906.478409 553.250871 
L 907.190886 378.667951 
L 907.903364 533.873969 
L 908.615841 538.822284 
L 909.328318 515.943566 
L 910.040795 541.570796 
L 910.753273 448.741228 
L 911.46575 471.900642 
L 912.178227 438.550115 
L 912.890704 519.110642 
L 913.603182 505.548962 
L 914.315659 467.617948 
L 915.028136 538.844343 
L 915.740613 512.331457 
L 916.45309 522.720546 
L 917.165568 514.176114 
L 917.878045 444.807613 
L 918.590522 515.176476 
L 919.302999 478.184059 
L 920.015477 505.700616 
L 920.727954 564.871938 
L 921.440431 419.38994 
L 922.865385 572.028879 
L 923.577863 615.14975 
L 924.29034 574.642281 
L 925.002817 500.589066 
L 925.715294 391.400776 
L 926.427772 429.155872 
L 927.140249 541.031462 
L 927.852726 470.50543 
L 928.565203 421.910696 
L 929.277681 565.368258 
L 929.990158 510.323565 
L 930.702635 383.076931 
L 931.415112 565.953365 
L 932.127589 577.239692 
L 932.840067 567.939198 
L 933.552544 591.219936 
L 934.265021 462.470554 
L 934.977498 553.330833 
L 935.689976 517.040435 
L 936.402453 608.073875 
L 937.11493 604.197061 
L 937.827407 560.298621 
L 938.539884 563.86551 
L 939.252362 637.63086 
L 940.677316 581.517974 
L 941.389793 588.089256 
L 942.102271 544.020965 
L 942.814748 631.174834 
L 943.527225 667.067073 
L 944.239702 590.701005 
L 944.952179 618.71333 
L 945.664657 635.88712 
L 946.377134 598.510331 
L 947.802088 552.133047 
L 948.514566 655.806665 
L 949.227043 605.260841 
L 949.93952 586.160224 
L 950.651997 616.683931 
L 951.364475 605.180326 
L 952.076952 628.242683 
L 952.789429 541.057932 
L 954.214383 651.082246 
L 954.926861 546.53014 
L 955.639338 597.769159 
L 956.351815 599.767676 
L 957.064292 575.300182 
L 957.77677 499.422162 
L 958.489247 547.059549 
L 959.201724 520.801441 
L 959.914201 428.647971 
L 960.626678 557.332831 
L 961.339156 498.969959 
L 962.051633 575.631062 
L 962.76411 570.418595 
L 963.476587 504.314227 
L 964.189065 482.601311 
L 964.901542 576.163228 
L 965.614019 431.117992 
L 966.326496 647.734289 
L 967.038974 588.565724 
L 967.751451 628.066213 
L 968.463928 579.21615 
L 969.176405 633.196512 
L 969.888882 599.137901 
L 970.60136 612.897558 
L 971.313837 635.880503 
L 972.026314 644.775116 
L 972.738791 626.271739 
L 973.451269 647.513702 
L 974.163746 581.5654 
L 974.876223 630.192119 
L 975.5887 651.520111 
L 976.301177 684.275054 
L 977.013655 616.212427 
L 977.726132 683.034805 
L 978.438609 676.57547 
L 979.151086 680.053573 
L 979.863564 668.634343 
L 980.576041 631.704242 
L 981.288518 711.932235 
L 982.000995 663.512867 
L 982.713473 577.421124 
L 983.42595 558.330435 
L 984.138427 641.095728 
L 984.850904 665.02113 
L 985.563381 660.660679 
L 986.275859 702.985783 
L 986.988336 685.432032 
L 987.700813 688.857195 
L 988.41329 700.322748 
L 989.125768 714.419903 
L 989.838245 724.767633 
L 990.550722 719.867847 
L 991.263199 743.311819 
L 991.975676 708.66424 
L 993.400631 728.062649 
L 994.113108 702.06373 
L 994.825585 715.195817 
L 995.538063 743.822477 
L 996.25054 726.11597 
L 996.963017 705.039447 
L 997.675494 747.700946 
L 998.387972 698.527171 
L 999.100449 755.568728 
L 999.812926 718.573554 
L 1000.525403 746.217499 
L 1001.23788 700.940391 
L 1001.950358 740.885363 
L 1002.662835 721.519491 
L 1003.375312 750.088247 
L 1004.087789 737.155791 
L 1004.800267 718.103704 
L 1005.512744 747.323191 
L 1006.225221 654.453365 
L 1006.937698 698.573494 
L 1007.650175 640.054558 
L 1008.362653 670.849586 
L 1009.07513 656.159053 
L 1009.787607 649.494021 
L 1011.212562 677.434104 
L 1012.637516 727.597762 
L 1013.349993 704.097541 
L 1014.062471 673.668686 
L 1014.774948 753.855871 
L 1015.487425 720.292477 
L 1016.199902 704.233202 
L 1016.912379 710.907057 
L 1017.624857 700.397196 
L 1019.049811 761.584131 
L 1019.762288 690.528692 
L 1020.474766 699.509334 
L 1021.187243 680.200263 
L 1021.89972 687.891024 
L 1022.612197 647.857818 
L 1023.324674 702.010789 
L 1024.037152 698.109711 
L 1024.749629 691.992837 
L 1025.462106 716.007577 
L 1026.174583 631.45167 
L 1026.887061 720.162331 
L 1027.599538 732.205822 
L 1028.312015 726.821296 
L 1029.024492 769.28151 
L 1029.736969 773.116412 
L 1030.449447 717.917859 
L 1031.161924 768.88335 
L 1031.874401 766.297521 
L 1032.586878 769.220848 
L 1033.299356 749.195422 
L 1034.011833 763.441473 
L 1034.72431 750.20957 
L 1035.436787 766.964796 
L 1036.149265 774.691402 
L 1036.861742 745.916949 
L 1037.574219 750.669493 
L 1038.286696 776.217312 
L 1038.999173 723.911204 
L 1040.424128 678.387591 
L 1041.136605 705.162975 
L 1041.849082 710.481325 
L 1042.56156 764.46665 
L 1043.274037 774.380375 
L 1043.986514 741.746203 
L 1044.698991 789.548479 
L 1045.411468 772.688474 
L 1046.123946 773.940304 
L 1046.836423 796.523436 
L 1048.261377 782.391538 
L 1048.973855 777.469694 
L 1049.686332 773.474866 
L 1050.398809 776.072828 
L 1051.111286 791.16869 
L 1051.823764 796.799721 
L 1052.536241 793.135773 
L 1053.248718 769.642721 
L 1054.673672 794.372714 
L 1055.38615 773.999863 
L 1056.098627 791.549753 
L 1056.811104 777.450393 
L 1057.523581 794.168671 
L 1058.236059 790.549943 
L 1058.948536 784.920015 
L 1059.661013 803.563465 
L 1060.37349 796.226746 
L 1061.085967 795.341641 
L 1061.798445 788.387641 
L 1062.510922 779.634203 
L 1063.223399 757.647759 
L 1063.935876 771.523224 
L 1064.648354 761.235604 
L 1065.360831 739.511658 
L 1066.073308 779.217845 
L 1066.785785 764.452863 
L 1067.498263 788.170914 
L 1068.21074 748.350023 
L 1068.923217 797.760928 
L 1069.635694 792.070338 
L 1070.348171 795.118297 
L 1071.060649 784.153476 
L 1071.773126 787.001804 
L 1072.485603 804.516952 
L 1073.19808 800.52819 
L 1073.910558 797.986478 
L 1074.623035 809.56784 
L 1075.335512 804.130373 
L 1076.760466 785.896112 
L 1077.472944 807.007929 
L 1078.185421 807.971342 
L 1078.897898 805.081103 
L 1079.610375 803.952801 
L 1080.322853 809.602031 
L 1081.03533 790.204173 
L 1081.747807 766.796599 
L 1082.460284 731.632296 
L 1083.172762 768.736109 
L 1083.885239 757.877169 
L 1085.310193 767.20689 
L 1086.02267 753.998701 
L 1086.735148 772.611268 
L 1087.447625 753.97223 
L 1088.160102 741.291794 
L 1088.872579 700.801422 
L 1089.585057 745.139932 
L 1090.297534 771.747119 
L 1091.010011 790.182115 
L 1091.722488 771.284438 
L 1092.434965 738.546591 
L 1093.147443 711.846206 
L 1093.85992 775.91952 
L 1094.572397 767.73685 
L 1095.284874 755.728102 
L 1095.997352 770.301172 
L 1096.709829 799.884628 
L 1097.422306 770.30007 
L 1098.134783 790.463363 
L 1098.847261 805.204631 
L 1099.559738 793.486506 
L 1100.272215 804.193792 
L 1100.984692 804.318975 
L 1101.697169 785.306042 
L 1102.409647 807.745241 
L 1103.122124 797.974897 
L 1103.834601 803.755927 
L 1104.547078 801.97138 
L 1105.259556 800.876166 
L 1105.972033 811.628121 
L 1106.68451 809.583281 
L 1107.396987 792.96923 
L 1108.109464 804.489379 
L 1108.821942 812.832525 
L 1109.534419 814.497404 
L 1110.246896 813.081237 
L 1110.959373 802.913285 
L 1111.671851 800.046208 
L 1112.384328 800.730578 
L 1113.096805 807.829615 
L 1113.809282 803.32468 
L 1114.521759 810.660296 
L 1115.234237 810.212505 
L 1115.946714 812.892635 
L 1116.659191 805.014927 
L 1117.371668 808.481449 
L 1118.084146 814.937475 
L 1118.796623 809.307547 
L 1119.5091 817.693708 
L 1120.221577 812.907525 
L 1120.934055 811.885105 
L 1121.646532 809.453134 
L 1122.359009 817.671098 
L 1123.783963 818.044993 
L 1124.496441 817.024778 
L 1125.208918 817.055661 
L 1125.921395 819.128626 
L 1126.633872 806.772453 
L 1127.34635 812.122235 
L 1128.058827 814.255862 
L 1128.771304 799.941429 
L 1129.483781 809.671515 
L 1130.196258 817.792421 
L 1130.908736 814.220568 
L 1131.621213 813.992261 
L 1132.33369 812.892635 
L 1133.046167 817.29996 
L 1133.758645 817.928082 
L 1134.471122 812.868922 
L 1135.183599 812.617453 
L 1135.896076 818.792231 
L 1136.608554 818.913002 
L 1137.321031 813.030502 
L 1138.033508 815.105121 
L 1138.745985 815.150342 
L 1139.458462 818.693518 
L 1140.17094 817.565768 
L 1140.883417 819.22789 
L 1141.595894 819.288 
L 1142.308371 819.512447 
L 1143.020849 816.494818 
L 1143.733326 814.078289 
L 1144.445803 818.606386 
L 1145.15828 819.745717 
L 1145.870757 818.285984 
L 1146.583235 818.936164 
L 1147.295712 820.111891 
L 1148.008189 819.407116 
L 1148.720666 819.961341 
L 1149.433144 820.201229 
L 1150.145621 819.690019 
L 1150.858098 820.530455 
L 1151.570575 819.371271 
L 1152.283053 820.540933 
L 1152.99553 818.953259 
L 1153.708007 818.994619 
L 1154.420484 819.480462 
L 1155.132961 817.361725 
L 1155.845439 817.8222 
L 1156.557916 817.752164 
L 1157.270393 818.230837 
L 1157.98287 818.542967 
L 1158.695348 819.277522 
L 1159.407825 819.529542 
L 1160.120302 820.024208 
L 1160.832779 819.702703 
L 1161.545256 819.725864 
L 1162.257734 820.507845 
L 1162.970211 820.92696 
L 1163.682688 820.394243 
L 1164.395165 820.406375 
L 1166.532597 820.830453 
L 1167.245074 820.455456 
L 1167.957552 820.612624 
L 1168.670029 820.618138 
L 1169.382506 820.245347 
L 1170.094983 820.474205 
L 1170.80746 819.846084 
L 1171.519938 820.630271 
L 1172.232415 820.007664 
L 1172.944892 820.666116 
L 1173.657369 820.812806 
L 1174.369847 819.772739 
L 1175.082324 819.503623 
L 1175.794801 819.932665 
L 1176.507278 819.632115 
L 1177.932233 820.716851 
L 1178.64471 820.286155 
L 1179.357187 820.768137 
L 1180.782142 820.785233 
L 1181.494619 820.913173 
L 1182.919573 820.811152 
L 1183.63205 820.902695 
L 1184.344528 820.880637 
L 1185.057005 820.540933 
L 1185.769482 820.515565 
L 1186.481959 820.751593 
L 1187.194437 820.828799 
L 1187.906914 820.627513 
L 1188.619391 820.781924 
L 1189.331868 820.79185 
L 1190.044346 820.673837 
L 1190.756823 820.909864 
L 1192.894254 820.765932 
L 1193.606732 820.894975 
L 1195.031686 820.792402 
L 1195.744163 820.9231 
L 1207.143799 820.852512 
L 1207.856276 820.924754 
L 1208.568753 820.731741 
L 1209.993708 820.95343 
L 1211.418662 820.881188 
L 1212.13114 820.814461 
L 1213.556094 820.927511 
L 1215.693526 820.879534 
L 1216.406003 820.976041 
L 1217.830957 820.891666 
L 1219.255912 820.922548 
L 1221.393344 820.827696 
L 1222.818298 820.899387 
L 1223.530775 820.851409 
L 1224.243252 820.931372 
L 1224.95573 820.891115 
L 1226.380684 820.993136 
L 1227.805639 820.971077 
L 1231.368025 820.988724 
L 1237.78032 820.944607 
L 1239.917751 820.952327 
L 1243.480138 820.996445 
L 1245.617569 820.991482 
L 1254.167296 820.958945 
L 1254.879773 820.805637 
L 1255.59225 820.942952 
L 1258.442159 820.995893 
L 1402.362559 820.996445 
L 1612.543341 820.996445 
L 1612.543341 820.996445 
" style="fill:none;stroke:#1f77b4;stroke-linecap:square;stroke-width:1.5;"/>
   </g>
   <g id="patch_3">
    <path d="M 223.92 854.8272 
L 223.92 115.2576 
" style="fill:none;stroke:#000000;stroke-linecap:square;stroke-linejoin:miter;stroke-width:0.8;"/>
   </g>
   <g id="patch_4">
    <path d="M 1612.224 854.8272 
L 1612.224 115.2576 
" style="fill:none;stroke:#000000;stroke-linecap:square;stroke-linejoin:miter;stroke-width:0.8;"/>
   </g>
   <g id="patch_5">
    <path d="M 223.92 854.8272 
L 1612.224 854.8272 
" style="fill:none;stroke:#000000;stroke-linecap:square;stroke-linejoin:miter;stroke-width:0.8;"/>
   </g>
   <g id="patch_6">
    <path d="M 223.92 115.2576 
L 1612.224 115.2576 
" style="fill:none;stroke:#000000;stroke-linecap:square;stroke-linejoin:miter;stroke-width:0.8;"/>
   </g>
  </g>
 </g>
 <defs>
  <clipPath id="pe9eb4039f5">
   <rect height="739.5696" width="1388.304" x="223.92" y="115.2576"/>
  </clipPath>
 </defs>
</svg>
