<?xml version="1.0" encoding="utf-8" standalone="no"?>
<!DOCTYPE svg PUBLIC "-//W3C//DTD SVG 1.1//EN"
  "http://www.w3.org/Graphics/SVG/1.1/DTD/svg11.dtd">
<svg height="960.48pt" version="1.1" viewBox="0 0 1791.36 960.48" width="1791.36pt" xmlns="http://www.w3.org/2000/svg" xmlns:xlink="http://www.w3.org/1999/xlink">
 <metadata>
  <rdf:RDF xmlns:cc="http://creativecommons.org/ns#" xmlns:dc="http://purl.org/dc/elements/1.1/" xmlns:rdf="http://www.w3.org/1999/02/22-rdf-syntax-ns#">
   <cc:Work>
    <dc:type rdf:resource="http://purl.org/dc/dcmitype/StillImage"/>
    <dc:date>2022-04-27T10:44:20.934895</dc:date>
    <dc:format>image/svg+xml</dc:format>
    <dc:creator>
     <cc:Agent>
      <dc:title>Matplotlib v3.4.3, https://matplotlib.org/</dc:title>
     </cc:Agent>
    </dc:creator>
   </cc:Work>
  </rdf:RDF>
 </metadata>
 <defs>
  <style type="text/css">*{stroke-linecap:butt;stroke-linejoin:round;}</style>
 </defs>
 <g id="figure_1">
  <g id="patch_1">
   <path d="M 0 960.48 
L 1791.36 960.48 
L 1791.36 0 
L 0 0 
z
" style="fill:#ffffff;"/>
  </g>
  <g id="axes_1">
   <g id="patch_2">
    <path d="M 223.92 854.8272 
L 1612.224 854.8272 
L 1612.224 115.2576 
L 223.92 115.2576 
z
" style="fill:#ffffff;"/>
   </g>
   <g id="matplotlib.axis_1">
    <g id="xtick_1">
     <g id="line2d_1">
      <defs>
       <path d="M 0 0 
L 0 3.5 
" id="m780e050de5" style="stroke:#000000;stroke-width:0.8;"/>
      </defs>
      <g>
       <use style="stroke:#000000;stroke-width:0.8;" x="301.065669" xlink:href="#m780e050de5" y="854.8272"/>
      </g>
     </g>
     <g id="text_1">
      <!-- 0 -->
      <g transform="translate(297.884419 869.425637)scale(0.1 -0.1)">
       <defs>
        <path d="M 2034 4250 
Q 1547 4250 1301 3770 
Q 1056 3291 1056 2328 
Q 1056 1369 1301 889 
Q 1547 409 2034 409 
Q 2525 409 2770 889 
Q 3016 1369 3016 2328 
Q 3016 3291 2770 3770 
Q 2525 4250 2034 4250 
z
M 2034 4750 
Q 2819 4750 3233 4129 
Q 3647 3509 3647 2328 
Q 3647 1150 3233 529 
Q 2819 -91 2034 -91 
Q 1250 -91 836 529 
Q 422 1150 422 2328 
Q 422 3509 836 4129 
Q 1250 4750 2034 4750 
z
" id="DejaVuSans-30" transform="scale(0.015625)"/>
       </defs>
       <use xlink:href="#DejaVuSans-30"/>
      </g>
     </g>
    </g>
    <g id="xtick_2">
     <g id="line2d_2">
      <g>
       <use style="stroke:#000000;stroke-width:0.8;" x="561.682339" xlink:href="#m780e050de5" y="854.8272"/>
      </g>
     </g>
     <g id="text_2">
      <!-- 50 -->
      <g transform="translate(555.319839 869.425637)scale(0.1 -0.1)">
       <defs>
        <path d="M 691 4666 
L 3169 4666 
L 3169 4134 
L 1269 4134 
L 1269 2991 
Q 1406 3038 1543 3061 
Q 1681 3084 1819 3084 
Q 2600 3084 3056 2656 
Q 3513 2228 3513 1497 
Q 3513 744 3044 326 
Q 2575 -91 1722 -91 
Q 1428 -91 1123 -41 
Q 819 9 494 109 
L 494 744 
Q 775 591 1075 516 
Q 1375 441 1709 441 
Q 2250 441 2565 725 
Q 2881 1009 2881 1497 
Q 2881 1984 2565 2268 
Q 2250 2553 1709 2553 
Q 1456 2553 1204 2497 
Q 953 2441 691 2322 
L 691 4666 
z
" id="DejaVuSans-35" transform="scale(0.015625)"/>
       </defs>
       <use xlink:href="#DejaVuSans-35"/>
       <use x="63.623047" xlink:href="#DejaVuSans-30"/>
      </g>
     </g>
    </g>
    <g id="xtick_3">
     <g id="line2d_3">
      <g>
       <use style="stroke:#000000;stroke-width:0.8;" x="822.299009" xlink:href="#m780e050de5" y="854.8272"/>
      </g>
     </g>
     <g id="text_3">
      <!-- 100 -->
      <g transform="translate(812.755259 869.425637)scale(0.1 -0.1)">
       <defs>
        <path d="M 794 531 
L 1825 531 
L 1825 4091 
L 703 3866 
L 703 4441 
L 1819 4666 
L 2450 4666 
L 2450 531 
L 3481 531 
L 3481 0 
L 794 0 
L 794 531 
z
" id="DejaVuSans-31" transform="scale(0.015625)"/>
       </defs>
       <use xlink:href="#DejaVuSans-31"/>
       <use x="63.623047" xlink:href="#DejaVuSans-30"/>
       <use x="127.246094" xlink:href="#DejaVuSans-30"/>
      </g>
     </g>
    </g>
    <g id="xtick_4">
     <g id="line2d_4">
      <g>
       <use style="stroke:#000000;stroke-width:0.8;" x="1082.915678" xlink:href="#m780e050de5" y="854.8272"/>
      </g>
     </g>
     <g id="text_4">
      <!-- 150 -->
      <g transform="translate(1073.371928 869.425637)scale(0.1 -0.1)">
       <use xlink:href="#DejaVuSans-31"/>
       <use x="63.623047" xlink:href="#DejaVuSans-35"/>
       <use x="127.246094" xlink:href="#DejaVuSans-30"/>
      </g>
     </g>
    </g>
    <g id="xtick_5">
     <g id="line2d_5">
      <g>
       <use style="stroke:#000000;stroke-width:0.8;" x="1343.532348" xlink:href="#m780e050de5" y="854.8272"/>
      </g>
     </g>
     <g id="text_5">
      <!-- 200 -->
      <g transform="translate(1333.988598 869.425637)scale(0.1 -0.1)">
       <defs>
        <path d="M 1228 531 
L 3431 531 
L 3431 0 
L 469 0 
L 469 531 
Q 828 903 1448 1529 
Q 2069 2156 2228 2338 
Q 2531 2678 2651 2914 
Q 2772 3150 2772 3378 
Q 2772 3750 2511 3984 
Q 2250 4219 1831 4219 
Q 1534 4219 1204 4116 
Q 875 4013 500 3803 
L 500 4441 
Q 881 4594 1212 4672 
Q 1544 4750 1819 4750 
Q 2544 4750 2975 4387 
Q 3406 4025 3406 3419 
Q 3406 3131 3298 2873 
Q 3191 2616 2906 2266 
Q 2828 2175 2409 1742 
Q 1991 1309 1228 531 
z
" id="DejaVuSans-32" transform="scale(0.015625)"/>
       </defs>
       <use xlink:href="#DejaVuSans-32"/>
       <use x="63.623047" xlink:href="#DejaVuSans-30"/>
       <use x="127.246094" xlink:href="#DejaVuSans-30"/>
      </g>
     </g>
    </g>
    <g id="xtick_6">
     <g id="line2d_6">
      <g>
       <use style="stroke:#000000;stroke-width:0.8;" x="1604.149018" xlink:href="#m780e050de5" y="854.8272"/>
      </g>
     </g>
     <g id="text_6">
      <!-- 250 -->
      <g transform="translate(1594.605268 869.425637)scale(0.1 -0.1)">
       <use xlink:href="#DejaVuSans-32"/>
       <use x="63.623047" xlink:href="#DejaVuSans-35"/>
       <use x="127.246094" xlink:href="#DejaVuSans-30"/>
      </g>
     </g>
    </g>
   </g>
   <g id="matplotlib.axis_2">
    <g id="ytick_1">
     <g id="line2d_7">
      <defs>
       <path d="M 0 0 
L -3.5 0 
" id="mc32a070919" style="stroke:#000000;stroke-width:0.8;"/>
      </defs>
      <g>
       <use style="stroke:#000000;stroke-width:0.8;" x="223.92" xlink:href="#mc32a070919" y="840.686975"/>
      </g>
     </g>
     <g id="text_7">
      <!-- 0 -->
      <g transform="translate(210.5575 844.486194)scale(0.1 -0.1)">
       <use xlink:href="#DejaVuSans-30"/>
      </g>
     </g>
    </g>
    <g id="ytick_2">
     <g id="line2d_8">
      <g>
       <use style="stroke:#000000;stroke-width:0.8;" x="223.92" xlink:href="#mc32a070919" y="680.521798"/>
      </g>
     </g>
     <g id="text_8">
      <!-- 2 -->
      <g transform="translate(210.5575 684.321017)scale(0.1 -0.1)">
       <use xlink:href="#DejaVuSans-32"/>
      </g>
     </g>
    </g>
    <g id="ytick_3">
     <g id="line2d_9">
      <g>
       <use style="stroke:#000000;stroke-width:0.8;" x="223.92" xlink:href="#mc32a070919" y="520.356621"/>
      </g>
     </g>
     <g id="text_9">
      <!-- 4 -->
      <g transform="translate(210.5575 524.15584)scale(0.1 -0.1)">
       <defs>
        <path d="M 2419 4116 
L 825 1625 
L 2419 1625 
L 2419 4116 
z
M 2253 4666 
L 3047 4666 
L 3047 1625 
L 3713 1625 
L 3713 1100 
L 3047 1100 
L 3047 0 
L 2419 0 
L 2419 1100 
L 313 1100 
L 313 1709 
L 2253 4666 
z
" id="DejaVuSans-34" transform="scale(0.015625)"/>
       </defs>
       <use xlink:href="#DejaVuSans-34"/>
      </g>
     </g>
    </g>
    <g id="ytick_4">
     <g id="line2d_10">
      <g>
       <use style="stroke:#000000;stroke-width:0.8;" x="223.92" xlink:href="#mc32a070919" y="360.191445"/>
      </g>
     </g>
     <g id="text_10">
      <!-- 6 -->
      <g transform="translate(210.5575 363.990663)scale(0.1 -0.1)">
       <defs>
        <path d="M 2113 2584 
Q 1688 2584 1439 2293 
Q 1191 2003 1191 1497 
Q 1191 994 1439 701 
Q 1688 409 2113 409 
Q 2538 409 2786 701 
Q 3034 994 3034 1497 
Q 3034 2003 2786 2293 
Q 2538 2584 2113 2584 
z
M 3366 4563 
L 3366 3988 
Q 3128 4100 2886 4159 
Q 2644 4219 2406 4219 
Q 1781 4219 1451 3797 
Q 1122 3375 1075 2522 
Q 1259 2794 1537 2939 
Q 1816 3084 2150 3084 
Q 2853 3084 3261 2657 
Q 3669 2231 3669 1497 
Q 3669 778 3244 343 
Q 2819 -91 2113 -91 
Q 1303 -91 875 529 
Q 447 1150 447 2328 
Q 447 3434 972 4092 
Q 1497 4750 2381 4750 
Q 2619 4750 2861 4703 
Q 3103 4656 3366 4563 
z
" id="DejaVuSans-36" transform="scale(0.015625)"/>
       </defs>
       <use xlink:href="#DejaVuSans-36"/>
      </g>
     </g>
    </g>
    <g id="ytick_5">
     <g id="line2d_11">
      <g>
       <use style="stroke:#000000;stroke-width:0.8;" x="223.92" xlink:href="#mc32a070919" y="200.026268"/>
      </g>
     </g>
     <g id="text_11">
      <!-- 8 -->
      <g transform="translate(210.5575 203.825486)scale(0.1 -0.1)">
       <defs>
        <path d="M 2034 2216 
Q 1584 2216 1326 1975 
Q 1069 1734 1069 1313 
Q 1069 891 1326 650 
Q 1584 409 2034 409 
Q 2484 409 2743 651 
Q 3003 894 3003 1313 
Q 3003 1734 2745 1975 
Q 2488 2216 2034 2216 
z
M 1403 2484 
Q 997 2584 770 2862 
Q 544 3141 544 3541 
Q 544 4100 942 4425 
Q 1341 4750 2034 4750 
Q 2731 4750 3128 4425 
Q 3525 4100 3525 3541 
Q 3525 3141 3298 2862 
Q 3072 2584 2669 2484 
Q 3125 2378 3379 2068 
Q 3634 1759 3634 1313 
Q 3634 634 3220 271 
Q 2806 -91 2034 -91 
Q 1263 -91 848 271 
Q 434 634 434 1313 
Q 434 1759 690 2068 
Q 947 2378 1403 2484 
z
M 1172 3481 
Q 1172 3119 1398 2916 
Q 1625 2713 2034 2713 
Q 2441 2713 2670 2916 
Q 2900 3119 2900 3481 
Q 2900 3844 2670 4047 
Q 2441 4250 2034 4250 
Q 1625 4250 1398 4047 
Q 1172 3844 1172 3481 
z
" id="DejaVuSans-38" transform="scale(0.015625)"/>
       </defs>
       <use xlink:href="#DejaVuSans-38"/>
      </g>
     </g>
    </g>
    <g id="text_12">
     <!-- 1e6 -->
     <g transform="translate(223.92 112.2576)scale(0.1 -0.1)">
      <defs>
       <path d="M 3597 1894 
L 3597 1613 
L 953 1613 
Q 991 1019 1311 708 
Q 1631 397 2203 397 
Q 2534 397 2845 478 
Q 3156 559 3463 722 
L 3463 178 
Q 3153 47 2828 -22 
Q 2503 -91 2169 -91 
Q 1331 -91 842 396 
Q 353 884 353 1716 
Q 353 2575 817 3079 
Q 1281 3584 2069 3584 
Q 2775 3584 3186 3129 
Q 3597 2675 3597 1894 
z
M 3022 2063 
Q 3016 2534 2758 2815 
Q 2500 3097 2075 3097 
Q 1594 3097 1305 2825 
Q 1016 2553 972 2059 
L 3022 2063 
z
" id="DejaVuSans-65" transform="scale(0.015625)"/>
      </defs>
      <use xlink:href="#DejaVuSans-31"/>
      <use x="63.623047" xlink:href="#DejaVuSans-65"/>
      <use x="125.146484" xlink:href="#DejaVuSans-36"/>
     </g>
    </g>
   </g>
   <g id="line2d_12">
    <path clip-path="url(#pc230731942)" d="M 301.065669 840.686975 
L 473.072671 840.620106 
L 478.285004 840.488531 
L 488.709671 840.554278 
L 493.922005 840.307304 
L 499.134338 840.353832 
L 509.559005 840.581346 
L 556.470005 840.478761 
L 561.682339 839.910254 
L 566.894672 839.609064 
L 572.107006 837.748505 
L 577.319339 838.848519 
L 587.744006 835.536944 
L 592.956339 832.079779 
L 598.168673 835.008879 
L 603.381006 835.923823 
L 608.593339 834.726909 
L 613.805673 840.518161 
L 619.018006 840.443604 
L 624.230339 834.945214 
L 629.442673 829.985058 
L 634.655006 824.559864 
L 639.86734 836.18241 
L 645.079673 840.027015 
L 650.292006 840.372331 
L 655.50434 832.477389 
L 660.716673 820.932363 
L 665.929007 825.159442 
L 671.14134 836.912843 
L 676.353673 837.824583 
L 681.566007 837.092789 
L 686.77834 835.423467 
L 691.990674 818.677237 
L 697.203007 808.585469 
L 702.41534 820.956307 
L 707.627674 829.633656 
L 712.840007 833.494598 
L 718.052341 837.931093 
L 723.264674 834.644183 
L 728.477007 827.276585 
L 733.689341 835.927427 
L 738.901674 829.24982 
L 744.114008 831.06265 
L 749.326341 829.347921 
L 754.538674 825.624401 
L 759.751008 813.96798 
L 764.963341 657.714838 
L 770.175675 760.342677 
L 775.388008 762.963139 
L 780.600341 765.40718 
L 785.812675 786.163866 
L 791.025008 767.808376 
L 796.237342 764.428971 
L 801.449675 695.304003 
L 806.662008 663.298116 
L 811.874342 711.548756 
L 817.086675 690.74402 
L 822.299009 718.366107 
L 827.511342 724.767829 
L 832.723675 752.867608 
L 837.936009 720.160117 
L 843.148342 684.901755 
L 848.360676 667.184764 
L 853.573009 664.790775 
L 858.785342 668.012418 
L 863.997676 656.268546 
L 869.210009 599.462042 
L 874.422343 599.309164 
L 879.634676 577.109871 
L 884.847009 584.430861 
L 890.059343 471.043045 
L 895.271676 399.077307 
L 900.48401 316.460425 
L 905.696343 293.431235 
L 910.908676 126.50901 
L 916.12101 181.213346 
L 921.333343 184.326957 
L 926.545676 230.304774 
L 931.75801 249.026081 
L 936.970343 205.182545 
L 942.182677 276.076698 
L 947.39501 381.392829 
L 952.607343 424.830346 
L 957.819677 415.112644 
L 963.03201 429.092982 
L 968.244344 462.607145 
L 973.456677 537.877571 
L 978.66901 539.576122 
L 983.881344 540.178824 
L 989.093677 451.700937 
L 994.306011 472.191109 
L 999.518344 566.661095 
L 1004.730677 586.769512 
L 1009.943011 624.356596 
L 1015.155344 650.326258 
L 1020.367678 669.622158 
L 1025.580011 720.028541 
L 1030.792344 683.435203 
L 1036.004678 667.26821 
L 1041.217011 695.015626 
L 1046.429345 661.439879 
L 1051.641678 716.8857 
L 1056.854011 729.840821 
L 1062.066345 725.313271 
L 1067.278678 755.324301 
L 1072.491012 776.966461 
L 1077.703345 794.585912 
L 1082.915678 774.408303 
L 1088.128012 787.977577 
L 1093.340345 805.28951 
L 1098.552679 800.672188 
L 1103.765012 775.276238 
L 1108.977345 764.739932 
L 1114.189679 775.766904 
L 1119.402012 790.799607 
L 1124.614346 818.276023 
L 1129.826679 817.885861 
L 1135.039012 827.129714 
L 1140.251346 831.029015 
L 1145.463679 830.972156 
L 1150.676013 834.198284 
L 1155.888346 836.747312 
L 1166.313013 838.495755 
L 1171.525346 838.697403 
L 1176.73768 839.606741 
L 1181.950013 839.975922 
L 1187.162346 839.801022 
L 1197.587013 840.422462 
L 1208.01168 840.552036 
L 1218.436347 840.518962 
L 1228.861013 840.616102 
L 1280.984347 840.683852 
L 1614.573685 840.686975 
L 1614.573685 840.686975 
" style="fill:none;stroke:#1f77b4;stroke-linecap:square;stroke-width:1.5;"/>
   </g>
   <g id="patch_3">
    <path d="M 223.92 854.8272 
L 223.92 115.2576 
" style="fill:none;stroke:#000000;stroke-linecap:square;stroke-linejoin:miter;stroke-width:0.8;"/>
   </g>
   <g id="patch_4">
    <path d="M 1612.224 854.8272 
L 1612.224 115.2576 
" style="fill:none;stroke:#000000;stroke-linecap:square;stroke-linejoin:miter;stroke-width:0.8;"/>
   </g>
   <g id="patch_5">
    <path d="M 223.92 854.8272 
L 1612.224 854.8272 
" style="fill:none;stroke:#000000;stroke-linecap:square;stroke-linejoin:miter;stroke-width:0.8;"/>
   </g>
   <g id="patch_6">
    <path d="M 223.92 115.2576 
L 1612.224 115.2576 
" style="fill:none;stroke:#000000;stroke-linecap:square;stroke-linejoin:miter;stroke-width:0.8;"/>
   </g>
  </g>
 </g>
 <defs>
  <clipPath id="pc230731942">
   <rect height="739.5696" width="1388.304" x="223.92" y="115.2576"/>
  </clipPath>
 </defs>
</svg>
