<?xml version="1.0" encoding="utf-8" standalone="no"?>
<!DOCTYPE svg PUBLIC "-//W3C//DTD SVG 1.1//EN"
  "http://www.w3.org/Graphics/SVG/1.1/DTD/svg11.dtd">
<svg height="960.48pt" version="1.1" viewBox="0 0 1791.36 960.48" width="1791.36pt" xmlns="http://www.w3.org/2000/svg" xmlns:xlink="http://www.w3.org/1999/xlink">
 <metadata>
  <rdf:RDF xmlns:cc="http://creativecommons.org/ns#" xmlns:dc="http://purl.org/dc/elements/1.1/" xmlns:rdf="http://www.w3.org/1999/02/22-rdf-syntax-ns#">
   <cc:Work>
    <dc:type rdf:resource="http://purl.org/dc/dcmitype/StillImage"/>
    <dc:date>2022-04-14T15:51:13.193643</dc:date>
    <dc:format>image/svg+xml</dc:format>
    <dc:creator>
     <cc:Agent>
      <dc:title>Matplotlib v3.4.3, https://matplotlib.org/</dc:title>
     </cc:Agent>
    </dc:creator>
   </cc:Work>
  </rdf:RDF>
 </metadata>
 <defs>
  <style type="text/css">*{stroke-linecap:butt;stroke-linejoin:round;}</style>
 </defs>
 <g id="figure_1">
  <g id="patch_1">
   <path d="M 0 960.48 
L 1791.36 960.48 
L 1791.36 0 
L 0 0 
z
" style="fill:#ffffff;"/>
  </g>
  <g id="axes_1">
   <g id="patch_2">
    <path d="M 223.92 332.778071 
L 1612.224 332.778071 
L 1612.224 115.2576 
L 223.92 115.2576 
z
" style="fill:#ffffff;"/>
   </g>
   <g id="matplotlib.axis_1">
    <g id="xtick_1">
     <g id="line2d_1">
      <defs>
       <path d="M 0 0 
L 0 3.5 
" id="m9658a0e876" style="stroke:#000000;stroke-width:0.8;"/>
      </defs>
      <g>
       <use style="stroke:#000000;stroke-width:0.8;" x="285.789801" xlink:href="#m9658a0e876" y="332.778071"/>
      </g>
     </g>
     <g id="text_1">
      <!-- 0 -->
      <g transform="translate(282.608551 347.376508)scale(0.1 -0.1)">
       <defs>
        <path d="M 2034 4250 
Q 1547 4250 1301 3770 
Q 1056 3291 1056 2328 
Q 1056 1369 1301 889 
Q 1547 409 2034 409 
Q 2525 409 2770 889 
Q 3016 1369 3016 2328 
Q 3016 3291 2770 3770 
Q 2525 4250 2034 4250 
z
M 2034 4750 
Q 2819 4750 3233 4129 
Q 3647 3509 3647 2328 
Q 3647 1150 3233 529 
Q 2819 -91 2034 -91 
Q 1250 -91 836 529 
Q 422 1150 422 2328 
Q 422 3509 836 4129 
Q 1250 4750 2034 4750 
z
" id="DejaVuSans-30" transform="scale(0.015625)"/>
       </defs>
       <use xlink:href="#DejaVuSans-30"/>
      </g>
     </g>
    </g>
    <g id="xtick_2">
     <g id="line2d_2">
      <g>
       <use style="stroke:#000000;stroke-width:0.8;" x="532.775035" xlink:href="#m9658a0e876" y="332.778071"/>
      </g>
     </g>
     <g id="text_2">
      <!-- 200 -->
      <g transform="translate(523.231285 347.376508)scale(0.1 -0.1)">
       <defs>
        <path d="M 1228 531 
L 3431 531 
L 3431 0 
L 469 0 
L 469 531 
Q 828 903 1448 1529 
Q 2069 2156 2228 2338 
Q 2531 2678 2651 2914 
Q 2772 3150 2772 3378 
Q 2772 3750 2511 3984 
Q 2250 4219 1831 4219 
Q 1534 4219 1204 4116 
Q 875 4013 500 3803 
L 500 4441 
Q 881 4594 1212 4672 
Q 1544 4750 1819 4750 
Q 2544 4750 2975 4387 
Q 3406 4025 3406 3419 
Q 3406 3131 3298 2873 
Q 3191 2616 2906 2266 
Q 2828 2175 2409 1742 
Q 1991 1309 1228 531 
z
" id="DejaVuSans-32" transform="scale(0.015625)"/>
       </defs>
       <use xlink:href="#DejaVuSans-32"/>
       <use x="63.623047" xlink:href="#DejaVuSans-30"/>
       <use x="127.246094" xlink:href="#DejaVuSans-30"/>
      </g>
     </g>
    </g>
    <g id="xtick_3">
     <g id="line2d_3">
      <g>
       <use style="stroke:#000000;stroke-width:0.8;" x="779.760269" xlink:href="#m9658a0e876" y="332.778071"/>
      </g>
     </g>
     <g id="text_3">
      <!-- 400 -->
      <g transform="translate(770.216519 347.376508)scale(0.1 -0.1)">
       <defs>
        <path d="M 2419 4116 
L 825 1625 
L 2419 1625 
L 2419 4116 
z
M 2253 4666 
L 3047 4666 
L 3047 1625 
L 3713 1625 
L 3713 1100 
L 3047 1100 
L 3047 0 
L 2419 0 
L 2419 1100 
L 313 1100 
L 313 1709 
L 2253 4666 
z
" id="DejaVuSans-34" transform="scale(0.015625)"/>
       </defs>
       <use xlink:href="#DejaVuSans-34"/>
       <use x="63.623047" xlink:href="#DejaVuSans-30"/>
       <use x="127.246094" xlink:href="#DejaVuSans-30"/>
      </g>
     </g>
    </g>
    <g id="xtick_4">
     <g id="line2d_4">
      <g>
       <use style="stroke:#000000;stroke-width:0.8;" x="1026.745503" xlink:href="#m9658a0e876" y="332.778071"/>
      </g>
     </g>
     <g id="text_4">
      <!-- 600 -->
      <g transform="translate(1017.201753 347.376508)scale(0.1 -0.1)">
       <defs>
        <path d="M 2113 2584 
Q 1688 2584 1439 2293 
Q 1191 2003 1191 1497 
Q 1191 994 1439 701 
Q 1688 409 2113 409 
Q 2538 409 2786 701 
Q 3034 994 3034 1497 
Q 3034 2003 2786 2293 
Q 2538 2584 2113 2584 
z
M 3366 4563 
L 3366 3988 
Q 3128 4100 2886 4159 
Q 2644 4219 2406 4219 
Q 1781 4219 1451 3797 
Q 1122 3375 1075 2522 
Q 1259 2794 1537 2939 
Q 1816 3084 2150 3084 
Q 2853 3084 3261 2657 
Q 3669 2231 3669 1497 
Q 3669 778 3244 343 
Q 2819 -91 2113 -91 
Q 1303 -91 875 529 
Q 447 1150 447 2328 
Q 447 3434 972 4092 
Q 1497 4750 2381 4750 
Q 2619 4750 2861 4703 
Q 3103 4656 3366 4563 
z
" id="DejaVuSans-36" transform="scale(0.015625)"/>
       </defs>
       <use xlink:href="#DejaVuSans-36"/>
       <use x="63.623047" xlink:href="#DejaVuSans-30"/>
       <use x="127.246094" xlink:href="#DejaVuSans-30"/>
      </g>
     </g>
    </g>
    <g id="xtick_5">
     <g id="line2d_5">
      <g>
       <use style="stroke:#000000;stroke-width:0.8;" x="1273.730737" xlink:href="#m9658a0e876" y="332.778071"/>
      </g>
     </g>
     <g id="text_5">
      <!-- 800 -->
      <g transform="translate(1264.186987 347.376508)scale(0.1 -0.1)">
       <defs>
        <path d="M 2034 2216 
Q 1584 2216 1326 1975 
Q 1069 1734 1069 1313 
Q 1069 891 1326 650 
Q 1584 409 2034 409 
Q 2484 409 2743 651 
Q 3003 894 3003 1313 
Q 3003 1734 2745 1975 
Q 2488 2216 2034 2216 
z
M 1403 2484 
Q 997 2584 770 2862 
Q 544 3141 544 3541 
Q 544 4100 942 4425 
Q 1341 4750 2034 4750 
Q 2731 4750 3128 4425 
Q 3525 4100 3525 3541 
Q 3525 3141 3298 2862 
Q 3072 2584 2669 2484 
Q 3125 2378 3379 2068 
Q 3634 1759 3634 1313 
Q 3634 634 3220 271 
Q 2806 -91 2034 -91 
Q 1263 -91 848 271 
Q 434 634 434 1313 
Q 434 1759 690 2068 
Q 947 2378 1403 2484 
z
M 1172 3481 
Q 1172 3119 1398 2916 
Q 1625 2713 2034 2713 
Q 2441 2713 2670 2916 
Q 2900 3119 2900 3481 
Q 2900 3844 2670 4047 
Q 2441 4250 2034 4250 
Q 1625 4250 1398 4047 
Q 1172 3844 1172 3481 
z
" id="DejaVuSans-38" transform="scale(0.015625)"/>
       </defs>
       <use xlink:href="#DejaVuSans-38"/>
       <use x="63.623047" xlink:href="#DejaVuSans-30"/>
       <use x="127.246094" xlink:href="#DejaVuSans-30"/>
      </g>
     </g>
    </g>
    <g id="xtick_6">
     <g id="line2d_6">
      <g>
       <use style="stroke:#000000;stroke-width:0.8;" x="1520.715971" xlink:href="#m9658a0e876" y="332.778071"/>
      </g>
     </g>
     <g id="text_6">
      <!-- 1000 -->
      <g transform="translate(1507.990971 347.376508)scale(0.1 -0.1)">
       <defs>
        <path d="M 794 531 
L 1825 531 
L 1825 4091 
L 703 3866 
L 703 4441 
L 1819 4666 
L 2450 4666 
L 2450 531 
L 3481 531 
L 3481 0 
L 794 0 
L 794 531 
z
" id="DejaVuSans-31" transform="scale(0.015625)"/>
       </defs>
       <use xlink:href="#DejaVuSans-31"/>
       <use x="63.623047" xlink:href="#DejaVuSans-30"/>
       <use x="127.246094" xlink:href="#DejaVuSans-30"/>
       <use x="190.869141" xlink:href="#DejaVuSans-30"/>
      </g>
     </g>
    </g>
   </g>
   <g id="matplotlib.axis_2">
    <g id="ytick_1">
     <g id="line2d_7">
      <defs>
       <path d="M 0 0 
L -3.5 0 
" id="mf33e767638" style="stroke:#000000;stroke-width:0.8;"/>
      </defs>
      <g>
       <use style="stroke:#000000;stroke-width:0.8;" x="223.92" xlink:href="#mf33e767638" y="322.890776"/>
      </g>
     </g>
     <g id="text_7">
      <!-- 0 -->
      <g transform="translate(210.5575 326.689995)scale(0.1 -0.1)">
       <use xlink:href="#DejaVuSans-30"/>
      </g>
     </g>
    </g>
    <g id="ytick_2">
     <g id="line2d_8">
      <g>
       <use style="stroke:#000000;stroke-width:0.8;" x="223.92" xlink:href="#mf33e767638" y="297.43381"/>
      </g>
     </g>
     <g id="text_8">
      <!-- 200 -->
      <g transform="translate(197.8325 301.233029)scale(0.1 -0.1)">
       <use xlink:href="#DejaVuSans-32"/>
       <use x="63.623047" xlink:href="#DejaVuSans-30"/>
       <use x="127.246094" xlink:href="#DejaVuSans-30"/>
      </g>
     </g>
    </g>
    <g id="ytick_3">
     <g id="line2d_9">
      <g>
       <use style="stroke:#000000;stroke-width:0.8;" x="223.92" xlink:href="#mf33e767638" y="271.976844"/>
      </g>
     </g>
     <g id="text_9">
      <!-- 400 -->
      <g transform="translate(197.8325 275.776062)scale(0.1 -0.1)">
       <use xlink:href="#DejaVuSans-34"/>
       <use x="63.623047" xlink:href="#DejaVuSans-30"/>
       <use x="127.246094" xlink:href="#DejaVuSans-30"/>
      </g>
     </g>
    </g>
    <g id="ytick_4">
     <g id="line2d_10">
      <g>
       <use style="stroke:#000000;stroke-width:0.8;" x="223.92" xlink:href="#mf33e767638" y="246.519877"/>
      </g>
     </g>
     <g id="text_10">
      <!-- 600 -->
      <g transform="translate(197.8325 250.319096)scale(0.1 -0.1)">
       <use xlink:href="#DejaVuSans-36"/>
       <use x="63.623047" xlink:href="#DejaVuSans-30"/>
       <use x="127.246094" xlink:href="#DejaVuSans-30"/>
      </g>
     </g>
    </g>
    <g id="ytick_5">
     <g id="line2d_11">
      <g>
       <use style="stroke:#000000;stroke-width:0.8;" x="223.92" xlink:href="#mf33e767638" y="221.062911"/>
      </g>
     </g>
     <g id="text_11">
      <!-- 800 -->
      <g transform="translate(197.8325 224.862129)scale(0.1 -0.1)">
       <use xlink:href="#DejaVuSans-38"/>
       <use x="63.623047" xlink:href="#DejaVuSans-30"/>
       <use x="127.246094" xlink:href="#DejaVuSans-30"/>
      </g>
     </g>
    </g>
    <g id="ytick_6">
     <g id="line2d_12">
      <g>
       <use style="stroke:#000000;stroke-width:0.8;" x="223.92" xlink:href="#mf33e767638" y="195.605944"/>
      </g>
     </g>
     <g id="text_12">
      <!-- 1000 -->
      <g transform="translate(191.47 199.405163)scale(0.1 -0.1)">
       <use xlink:href="#DejaVuSans-31"/>
       <use x="63.623047" xlink:href="#DejaVuSans-30"/>
       <use x="127.246094" xlink:href="#DejaVuSans-30"/>
       <use x="190.869141" xlink:href="#DejaVuSans-30"/>
      </g>
     </g>
    </g>
    <g id="ytick_7">
     <g id="line2d_13">
      <g>
       <use style="stroke:#000000;stroke-width:0.8;" x="223.92" xlink:href="#mf33e767638" y="170.148978"/>
      </g>
     </g>
     <g id="text_13">
      <!-- 1200 -->
      <g transform="translate(191.47 173.948197)scale(0.1 -0.1)">
       <use xlink:href="#DejaVuSans-31"/>
       <use x="63.623047" xlink:href="#DejaVuSans-32"/>
       <use x="127.246094" xlink:href="#DejaVuSans-30"/>
       <use x="190.869141" xlink:href="#DejaVuSans-30"/>
      </g>
     </g>
    </g>
    <g id="ytick_8">
     <g id="line2d_14">
      <g>
       <use style="stroke:#000000;stroke-width:0.8;" x="223.92" xlink:href="#mf33e767638" y="144.692011"/>
      </g>
     </g>
     <g id="text_14">
      <!-- 1400 -->
      <g transform="translate(191.47 148.49123)scale(0.1 -0.1)">
       <use xlink:href="#DejaVuSans-31"/>
       <use x="63.623047" xlink:href="#DejaVuSans-34"/>
       <use x="127.246094" xlink:href="#DejaVuSans-30"/>
       <use x="190.869141" xlink:href="#DejaVuSans-30"/>
      </g>
     </g>
    </g>
    <g id="ytick_9">
     <g id="line2d_15">
      <g>
       <use style="stroke:#000000;stroke-width:0.8;" x="223.92" xlink:href="#mf33e767638" y="119.235045"/>
      </g>
     </g>
     <g id="text_15">
      <!-- 1600 -->
      <g transform="translate(191.47 123.034264)scale(0.1 -0.1)">
       <use xlink:href="#DejaVuSans-31"/>
       <use x="63.623047" xlink:href="#DejaVuSans-36"/>
       <use x="127.246094" xlink:href="#DejaVuSans-30"/>
       <use x="190.869141" xlink:href="#DejaVuSans-30"/>
      </g>
     </g>
    </g>
   </g>
   <g id="line2d_16">
    <path clip-path="url(#p1faae204f2)" d="M 287.024727 322.890776 
L 876.08451 322.890776 
L 877.319436 125.144894 
L 878.554363 322.890776 
L 1467.614146 322.890776 
L 1468.849072 215.153061 
L 1470.083998 322.890776 
L 1549.119273 322.890776 
L 1549.119273 322.890776 
" style="fill:none;stroke:#1f77b4;stroke-linecap:square;stroke-width:1.5;"/>
   </g>
   <g id="patch_3">
    <path d="M 223.92 332.778071 
L 223.92 115.2576 
" style="fill:none;stroke:#000000;stroke-linecap:square;stroke-linejoin:miter;stroke-width:0.8;"/>
   </g>
   <g id="patch_4">
    <path d="M 1612.224 332.778071 
L 1612.224 115.2576 
" style="fill:none;stroke:#000000;stroke-linecap:square;stroke-linejoin:miter;stroke-width:0.8;"/>
   </g>
   <g id="patch_5">
    <path d="M 223.92 332.778071 
L 1612.224 332.778071 
" style="fill:none;stroke:#000000;stroke-linecap:square;stroke-linejoin:miter;stroke-width:0.8;"/>
   </g>
   <g id="patch_6">
    <path d="M 223.92 115.2576 
L 1612.224 115.2576 
" style="fill:none;stroke:#000000;stroke-linecap:square;stroke-linejoin:miter;stroke-width:0.8;"/>
   </g>
  </g>
  <g id="axes_2">
   <g id="patch_7">
    <path d="M 223.92 593.802635 
L 1612.224 593.802635 
L 1612.224 376.282165 
L 223.92 376.282165 
z
" style="fill:#ffffff;"/>
   </g>
   <g id="matplotlib.axis_3">
    <g id="xtick_7">
     <g id="line2d_17">
      <g>
       <use style="stroke:#000000;stroke-width:0.8;" x="285.789801" xlink:href="#m9658a0e876" y="593.802635"/>
      </g>
     </g>
     <g id="text_16">
      <!-- 0 -->
      <g transform="translate(282.608551 608.401073)scale(0.1 -0.1)">
       <use xlink:href="#DejaVuSans-30"/>
      </g>
     </g>
    </g>
    <g id="xtick_8">
     <g id="line2d_18">
      <g>
       <use style="stroke:#000000;stroke-width:0.8;" x="532.775035" xlink:href="#m9658a0e876" y="593.802635"/>
      </g>
     </g>
     <g id="text_17">
      <!-- 200 -->
      <g transform="translate(523.231285 608.401073)scale(0.1 -0.1)">
       <use xlink:href="#DejaVuSans-32"/>
       <use x="63.623047" xlink:href="#DejaVuSans-30"/>
       <use x="127.246094" xlink:href="#DejaVuSans-30"/>
      </g>
     </g>
    </g>
    <g id="xtick_9">
     <g id="line2d_19">
      <g>
       <use style="stroke:#000000;stroke-width:0.8;" x="779.760269" xlink:href="#m9658a0e876" y="593.802635"/>
      </g>
     </g>
     <g id="text_18">
      <!-- 400 -->
      <g transform="translate(770.216519 608.401073)scale(0.1 -0.1)">
       <use xlink:href="#DejaVuSans-34"/>
       <use x="63.623047" xlink:href="#DejaVuSans-30"/>
       <use x="127.246094" xlink:href="#DejaVuSans-30"/>
      </g>
     </g>
    </g>
    <g id="xtick_10">
     <g id="line2d_20">
      <g>
       <use style="stroke:#000000;stroke-width:0.8;" x="1026.745503" xlink:href="#m9658a0e876" y="593.802635"/>
      </g>
     </g>
     <g id="text_19">
      <!-- 600 -->
      <g transform="translate(1017.201753 608.401073)scale(0.1 -0.1)">
       <use xlink:href="#DejaVuSans-36"/>
       <use x="63.623047" xlink:href="#DejaVuSans-30"/>
       <use x="127.246094" xlink:href="#DejaVuSans-30"/>
      </g>
     </g>
    </g>
    <g id="xtick_11">
     <g id="line2d_21">
      <g>
       <use style="stroke:#000000;stroke-width:0.8;" x="1273.730737" xlink:href="#m9658a0e876" y="593.802635"/>
      </g>
     </g>
     <g id="text_20">
      <!-- 800 -->
      <g transform="translate(1264.186987 608.401073)scale(0.1 -0.1)">
       <use xlink:href="#DejaVuSans-38"/>
       <use x="63.623047" xlink:href="#DejaVuSans-30"/>
       <use x="127.246094" xlink:href="#DejaVuSans-30"/>
      </g>
     </g>
    </g>
    <g id="xtick_12">
     <g id="line2d_22">
      <g>
       <use style="stroke:#000000;stroke-width:0.8;" x="1520.715971" xlink:href="#m9658a0e876" y="593.802635"/>
      </g>
     </g>
     <g id="text_21">
      <!-- 1000 -->
      <g transform="translate(1507.990971 608.401073)scale(0.1 -0.1)">
       <use xlink:href="#DejaVuSans-31"/>
       <use x="63.623047" xlink:href="#DejaVuSans-30"/>
       <use x="127.246094" xlink:href="#DejaVuSans-30"/>
       <use x="190.869141" xlink:href="#DejaVuSans-30"/>
      </g>
     </g>
    </g>
   </g>
   <g id="matplotlib.axis_4">
    <g id="ytick_10">
     <g id="line2d_23">
      <g>
       <use style="stroke:#000000;stroke-width:0.8;" x="223.92" xlink:href="#mf33e767638" y="583.915341"/>
      </g>
     </g>
     <g id="text_22">
      <!-- 0 -->
      <g transform="translate(210.5575 587.71456)scale(0.1 -0.1)">
       <use xlink:href="#DejaVuSans-30"/>
      </g>
     </g>
    </g>
    <g id="ytick_11">
     <g id="line2d_24">
      <g>
       <use style="stroke:#000000;stroke-width:0.8;" x="223.92" xlink:href="#mf33e767638" y="542.718282"/>
      </g>
     </g>
     <g id="text_23">
      <!-- 500 -->
      <g transform="translate(197.8325 546.517501)scale(0.1 -0.1)">
       <defs>
        <path d="M 691 4666 
L 3169 4666 
L 3169 4134 
L 1269 4134 
L 1269 2991 
Q 1406 3038 1543 3061 
Q 1681 3084 1819 3084 
Q 2600 3084 3056 2656 
Q 3513 2228 3513 1497 
Q 3513 744 3044 326 
Q 2575 -91 1722 -91 
Q 1428 -91 1123 -41 
Q 819 9 494 109 
L 494 744 
Q 775 591 1075 516 
Q 1375 441 1709 441 
Q 2250 441 2565 725 
Q 2881 1009 2881 1497 
Q 2881 1984 2565 2268 
Q 2250 2553 1709 2553 
Q 1456 2553 1204 2497 
Q 953 2441 691 2322 
L 691 4666 
z
" id="DejaVuSans-35" transform="scale(0.015625)"/>
       </defs>
       <use xlink:href="#DejaVuSans-35"/>
       <use x="63.623047" xlink:href="#DejaVuSans-30"/>
       <use x="127.246094" xlink:href="#DejaVuSans-30"/>
      </g>
     </g>
    </g>
    <g id="ytick_12">
     <g id="line2d_25">
      <g>
       <use style="stroke:#000000;stroke-width:0.8;" x="223.92" xlink:href="#mf33e767638" y="501.521224"/>
      </g>
     </g>
     <g id="text_24">
      <!-- 1000 -->
      <g transform="translate(191.47 505.320442)scale(0.1 -0.1)">
       <use xlink:href="#DejaVuSans-31"/>
       <use x="63.623047" xlink:href="#DejaVuSans-30"/>
       <use x="127.246094" xlink:href="#DejaVuSans-30"/>
       <use x="190.869141" xlink:href="#DejaVuSans-30"/>
      </g>
     </g>
    </g>
    <g id="ytick_13">
     <g id="line2d_26">
      <g>
       <use style="stroke:#000000;stroke-width:0.8;" x="223.92" xlink:href="#mf33e767638" y="460.324165"/>
      </g>
     </g>
     <g id="text_25">
      <!-- 1500 -->
      <g transform="translate(191.47 464.123383)scale(0.1 -0.1)">
       <use xlink:href="#DejaVuSans-31"/>
       <use x="63.623047" xlink:href="#DejaVuSans-35"/>
       <use x="127.246094" xlink:href="#DejaVuSans-30"/>
       <use x="190.869141" xlink:href="#DejaVuSans-30"/>
      </g>
     </g>
    </g>
    <g id="ytick_14">
     <g id="line2d_27">
      <g>
       <use style="stroke:#000000;stroke-width:0.8;" x="223.92" xlink:href="#mf33e767638" y="419.127106"/>
      </g>
     </g>
     <g id="text_26">
      <!-- 2000 -->
      <g transform="translate(191.47 422.926325)scale(0.1 -0.1)">
       <use xlink:href="#DejaVuSans-32"/>
       <use x="63.623047" xlink:href="#DejaVuSans-30"/>
       <use x="127.246094" xlink:href="#DejaVuSans-30"/>
       <use x="190.869141" xlink:href="#DejaVuSans-30"/>
      </g>
     </g>
    </g>
    <g id="ytick_15">
     <g id="line2d_28">
      <g>
       <use style="stroke:#000000;stroke-width:0.8;" x="223.92" xlink:href="#mf33e767638" y="377.930047"/>
      </g>
     </g>
     <g id="text_27">
      <!-- 2500 -->
      <g transform="translate(191.47 381.729266)scale(0.1 -0.1)">
       <use xlink:href="#DejaVuSans-32"/>
       <use x="63.623047" xlink:href="#DejaVuSans-35"/>
       <use x="127.246094" xlink:href="#DejaVuSans-30"/>
       <use x="190.869141" xlink:href="#DejaVuSans-30"/>
      </g>
     </g>
    </g>
   </g>
   <g id="line2d_29">
    <path clip-path="url(#pde38263f73)" d="M 287.024727 583.915341 
L 876.08451 583.915341 
L 877.319436 386.169459 
L 878.554363 583.915341 
L 1549.119273 583.915341 
L 1549.119273 583.915341 
" style="fill:none;stroke:#1f77b4;stroke-linecap:square;stroke-width:1.5;"/>
   </g>
   <g id="patch_8">
    <path d="M 223.92 593.802635 
L 223.92 376.282165 
" style="fill:none;stroke:#000000;stroke-linecap:square;stroke-linejoin:miter;stroke-width:0.8;"/>
   </g>
   <g id="patch_9">
    <path d="M 1612.224 593.802635 
L 1612.224 376.282165 
" style="fill:none;stroke:#000000;stroke-linecap:square;stroke-linejoin:miter;stroke-width:0.8;"/>
   </g>
   <g id="patch_10">
    <path d="M 223.92 593.802635 
L 1612.224 593.802635 
" style="fill:none;stroke:#000000;stroke-linecap:square;stroke-linejoin:miter;stroke-width:0.8;"/>
   </g>
   <g id="patch_11">
    <path d="M 223.92 376.282165 
L 1612.224 376.282165 
" style="fill:none;stroke:#000000;stroke-linecap:square;stroke-linejoin:miter;stroke-width:0.8;"/>
   </g>
  </g>
  <g id="axes_3">
   <g id="patch_12">
    <path d="M 223.92 854.8272 
L 1612.224 854.8272 
L 1612.224 637.306729 
L 223.92 637.306729 
z
" style="fill:#ffffff;"/>
   </g>
   <g id="matplotlib.axis_5">
    <g id="xtick_13">
     <g id="line2d_30">
      <g>
       <use style="stroke:#000000;stroke-width:0.8;" x="268.31346" xlink:href="#m9658a0e876" y="854.8272"/>
      </g>
     </g>
     <g id="text_28">
      <!-- 0 -->
      <g transform="translate(265.13221 869.425637)scale(0.1 -0.1)">
       <use xlink:href="#DejaVuSans-30"/>
      </g>
     </g>
    </g>
    <g id="xtick_14">
     <g id="line2d_31">
      <g>
       <use style="stroke:#000000;stroke-width:0.8;" x="535.262411" xlink:href="#m9658a0e876" y="854.8272"/>
      </g>
     </g>
     <g id="text_29">
      <!-- 100 -->
      <g transform="translate(525.718661 869.425637)scale(0.1 -0.1)">
       <use xlink:href="#DejaVuSans-31"/>
       <use x="63.623047" xlink:href="#DejaVuSans-30"/>
       <use x="127.246094" xlink:href="#DejaVuSans-30"/>
      </g>
     </g>
    </g>
    <g id="xtick_15">
     <g id="line2d_32">
      <g>
       <use style="stroke:#000000;stroke-width:0.8;" x="802.211362" xlink:href="#m9658a0e876" y="854.8272"/>
      </g>
     </g>
     <g id="text_30">
      <!-- 200 -->
      <g transform="translate(792.667612 869.425637)scale(0.1 -0.1)">
       <use xlink:href="#DejaVuSans-32"/>
       <use x="63.623047" xlink:href="#DejaVuSans-30"/>
       <use x="127.246094" xlink:href="#DejaVuSans-30"/>
      </g>
     </g>
    </g>
    <g id="xtick_16">
     <g id="line2d_33">
      <g>
       <use style="stroke:#000000;stroke-width:0.8;" x="1069.160312" xlink:href="#m9658a0e876" y="854.8272"/>
      </g>
     </g>
     <g id="text_31">
      <!-- 300 -->
      <g transform="translate(1059.616562 869.425637)scale(0.1 -0.1)">
       <defs>
        <path d="M 2597 2516 
Q 3050 2419 3304 2112 
Q 3559 1806 3559 1356 
Q 3559 666 3084 287 
Q 2609 -91 1734 -91 
Q 1441 -91 1130 -33 
Q 819 25 488 141 
L 488 750 
Q 750 597 1062 519 
Q 1375 441 1716 441 
Q 2309 441 2620 675 
Q 2931 909 2931 1356 
Q 2931 1769 2642 2001 
Q 2353 2234 1838 2234 
L 1294 2234 
L 1294 2753 
L 1863 2753 
Q 2328 2753 2575 2939 
Q 2822 3125 2822 3475 
Q 2822 3834 2567 4026 
Q 2313 4219 1838 4219 
Q 1578 4219 1281 4162 
Q 984 4106 628 3988 
L 628 4550 
Q 988 4650 1302 4700 
Q 1616 4750 1894 4750 
Q 2613 4750 3031 4423 
Q 3450 4097 3450 3541 
Q 3450 3153 3228 2886 
Q 3006 2619 2597 2516 
z
" id="DejaVuSans-33" transform="scale(0.015625)"/>
       </defs>
       <use xlink:href="#DejaVuSans-33"/>
       <use x="63.623047" xlink:href="#DejaVuSans-30"/>
       <use x="127.246094" xlink:href="#DejaVuSans-30"/>
      </g>
     </g>
    </g>
    <g id="xtick_17">
     <g id="line2d_34">
      <g>
       <use style="stroke:#000000;stroke-width:0.8;" x="1336.109263" xlink:href="#m9658a0e876" y="854.8272"/>
      </g>
     </g>
     <g id="text_32">
      <!-- 400 -->
      <g transform="translate(1326.565513 869.425637)scale(0.1 -0.1)">
       <use xlink:href="#DejaVuSans-34"/>
       <use x="63.623047" xlink:href="#DejaVuSans-30"/>
       <use x="127.246094" xlink:href="#DejaVuSans-30"/>
      </g>
     </g>
    </g>
    <g id="xtick_18">
     <g id="line2d_35">
      <g>
       <use style="stroke:#000000;stroke-width:0.8;" x="1603.058214" xlink:href="#m9658a0e876" y="854.8272"/>
      </g>
     </g>
     <g id="text_33">
      <!-- 500 -->
      <g transform="translate(1593.514464 869.425637)scale(0.1 -0.1)">
       <use xlink:href="#DejaVuSans-35"/>
       <use x="63.623047" xlink:href="#DejaVuSans-30"/>
       <use x="127.246094" xlink:href="#DejaVuSans-30"/>
      </g>
     </g>
    </g>
   </g>
   <g id="matplotlib.axis_6">
    <g id="ytick_16">
     <g id="line2d_36">
      <g>
       <use style="stroke:#000000;stroke-width:0.8;" x="223.92" xlink:href="#mf33e767638" y="840.025636"/>
      </g>
     </g>
     <g id="text_34">
      <!-- 0 -->
      <g transform="translate(210.5575 843.824855)scale(0.1 -0.1)">
       <use xlink:href="#DejaVuSans-30"/>
      </g>
     </g>
    </g>
    <g id="ytick_17">
     <g id="line2d_37">
      <g>
       <use style="stroke:#000000;stroke-width:0.8;" x="223.92" xlink:href="#mf33e767638" y="815.151432"/>
      </g>
     </g>
     <g id="text_35">
      <!-- 20 -->
      <g transform="translate(204.195 818.950651)scale(0.1 -0.1)">
       <use xlink:href="#DejaVuSans-32"/>
       <use x="63.623047" xlink:href="#DejaVuSans-30"/>
      </g>
     </g>
    </g>
    <g id="ytick_18">
     <g id="line2d_38">
      <g>
       <use style="stroke:#000000;stroke-width:0.8;" x="223.92" xlink:href="#mf33e767638" y="790.277228"/>
      </g>
     </g>
     <g id="text_36">
      <!-- 40 -->
      <g transform="translate(204.195 794.076447)scale(0.1 -0.1)">
       <use xlink:href="#DejaVuSans-34"/>
       <use x="63.623047" xlink:href="#DejaVuSans-30"/>
      </g>
     </g>
    </g>
    <g id="ytick_19">
     <g id="line2d_39">
      <g>
       <use style="stroke:#000000;stroke-width:0.8;" x="223.92" xlink:href="#mf33e767638" y="765.403024"/>
      </g>
     </g>
     <g id="text_37">
      <!-- 60 -->
      <g transform="translate(204.195 769.202243)scale(0.1 -0.1)">
       <use xlink:href="#DejaVuSans-36"/>
       <use x="63.623047" xlink:href="#DejaVuSans-30"/>
      </g>
     </g>
    </g>
    <g id="ytick_20">
     <g id="line2d_40">
      <g>
       <use style="stroke:#000000;stroke-width:0.8;" x="223.92" xlink:href="#mf33e767638" y="740.52882"/>
      </g>
     </g>
     <g id="text_38">
      <!-- 80 -->
      <g transform="translate(204.195 744.328039)scale(0.1 -0.1)">
       <use xlink:href="#DejaVuSans-38"/>
       <use x="63.623047" xlink:href="#DejaVuSans-30"/>
      </g>
     </g>
    </g>
    <g id="ytick_21">
     <g id="line2d_41">
      <g>
       <use style="stroke:#000000;stroke-width:0.8;" x="223.92" xlink:href="#mf33e767638" y="715.654616"/>
      </g>
     </g>
     <g id="text_39">
      <!-- 100 -->
      <g transform="translate(197.8325 719.453835)scale(0.1 -0.1)">
       <use xlink:href="#DejaVuSans-31"/>
       <use x="63.623047" xlink:href="#DejaVuSans-30"/>
       <use x="127.246094" xlink:href="#DejaVuSans-30"/>
      </g>
     </g>
    </g>
    <g id="ytick_22">
     <g id="line2d_42">
      <g>
       <use style="stroke:#000000;stroke-width:0.8;" x="223.92" xlink:href="#mf33e767638" y="690.780412"/>
      </g>
     </g>
     <g id="text_40">
      <!-- 120 -->
      <g transform="translate(197.8325 694.579631)scale(0.1 -0.1)">
       <use xlink:href="#DejaVuSans-31"/>
       <use x="63.623047" xlink:href="#DejaVuSans-32"/>
       <use x="127.246094" xlink:href="#DejaVuSans-30"/>
      </g>
     </g>
    </g>
    <g id="ytick_23">
     <g id="line2d_43">
      <g>
       <use style="stroke:#000000;stroke-width:0.8;" x="223.92" xlink:href="#mf33e767638" y="665.906208"/>
      </g>
     </g>
     <g id="text_41">
      <!-- 140 -->
      <g transform="translate(197.8325 669.705427)scale(0.1 -0.1)">
       <use xlink:href="#DejaVuSans-31"/>
       <use x="63.623047" xlink:href="#DejaVuSans-34"/>
       <use x="127.246094" xlink:href="#DejaVuSans-30"/>
      </g>
     </g>
    </g>
    <g id="ytick_24">
     <g id="line2d_44">
      <g>
       <use style="stroke:#000000;stroke-width:0.8;" x="223.92" xlink:href="#mf33e767638" y="641.032005"/>
      </g>
     </g>
     <g id="text_42">
      <!-- 160 -->
      <g transform="translate(197.8325 644.831223)scale(0.1 -0.1)">
       <use xlink:href="#DejaVuSans-31"/>
       <use x="63.623047" xlink:href="#DejaVuSans-36"/>
       <use x="127.246094" xlink:href="#DejaVuSans-30"/>
      </g>
     </g>
    </g>
   </g>
   <g id="line2d_45">
    <path clip-path="url(#p1808f93239)" d="M 270.98295 819.69066 
L 273.652439 829.376391 
L 276.321929 798.857952 
L 278.991418 836.841247 
L 281.660908 838.926325 
L 284.330397 837.057876 
L 286.999887 820.624885 
L 289.669376 839.659706 
L 292.338866 838.554499 
L 295.008355 839.255358 
L 297.677845 839.617674 
L 300.347334 839.555861 
L 303.016824 839.644301 
L 305.686313 837.992861 
L 308.355803 838.839027 
L 311.025292 839.354448 
L 313.694782 839.537983 
L 316.364271 839.579635 
L 319.033761 839.013813 
L 321.70325 839.457342 
L 324.37274 839.640497 
L 327.042229 839.224927 
L 329.711719 839.60436 
L 332.381208 839.623189 
L 335.050698 839.008488 
L 337.720187 837.928576 
L 340.389677 837.152782 
L 343.059166 838.013973 
L 345.728656 839.711248 
L 351.067635 839.421395 
L 356.406614 839.661418 
L 359.076103 839.241474 
L 361.745593 837.907655 
L 364.415082 839.44574 
L 369.754061 839.737115 
L 375.09304 839.652099 
L 377.76253 839.365859 
L 380.432019 839.256879 
L 383.101509 839.725323 
L 385.770999 839.576022 
L 388.440488 836.851518 
L 391.109978 837.422094 
L 393.779467 719.4776 
L 396.448957 810.215853 
L 399.118446 811.462373 
L 401.787936 833.785428 
L 404.457425 787.528389 
L 407.126915 837.807044 
L 409.796404 838.440954 
L 412.465894 838.498392 
L 415.135383 824.695189 
L 417.804873 837.051029 
L 420.474362 839.530376 
L 423.143852 836.944331 
L 425.813341 839.532468 
L 428.482831 838.392455 
L 431.15232 839.576592 
L 433.82181 839.51478 
L 436.491299 839.708586 
L 447.169257 839.760318 
L 449.838747 839.68272 
L 452.508236 838.302685 
L 455.177726 839.5047 
L 457.847215 839.479975 
L 460.516705 838.257989 
L 463.186194 839.244326 
L 465.855684 837.643668 
L 468.525173 837.142892 
L 471.194663 838.708365 
L 473.864152 838.550505 
L 476.533642 839.456961 
L 479.203131 837.904422 
L 481.872621 839.578494 
L 484.54211 838.878967 
L 487.2116 839.621287 
L 489.881089 839.418543 
L 492.550579 839.558144 
L 495.220068 838.311053 
L 497.889558 839.617103 
L 500.559047 839.011911 
L 503.228537 839.31755 
L 505.898026 839.492717 
L 508.567516 838.648454 
L 511.237005 839.60398 
L 516.575984 839.004304 
L 519.245474 839.230442 
L 521.914963 722.668836 
L 524.584453 809.554745 
L 527.253942 820.98644 
L 529.923432 829.994326 
L 532.592921 801.462444 
L 535.262411 837.911839 
L 537.9319 835.268738 
L 540.60139 838.670136 
L 543.270879 820.827059 
L 545.940369 836.721616 
L 548.609858 836.3496 
L 553.948837 839.246989 
L 556.618327 838.477852 
L 559.287816 839.432046 
L 561.957306 838.586261 
L 564.626795 835.910446 
L 567.296285 835.294033 
L 569.965775 839.542928 
L 572.635264 839.253075 
L 577.974243 839.127739 
L 580.643733 837.784791 
L 583.313222 839.649246 
L 585.982712 839.665032 
L 588.652201 837.38805 
L 591.321691 839.409603 
L 593.99118 838.384087 
L 596.66067 839.411315 
L 599.330159 838.01131 
L 601.999649 837.143653 
L 604.669138 838.907116 
L 607.338628 839.718286 
L 612.677607 839.73217 
L 618.016586 839.599415 
L 620.686075 839.630987 
L 623.355565 839.444218 
L 626.025054 839.610066 
L 634.033523 839.60379 
L 636.703012 839.455059 
L 639.372502 839.078669 
L 642.041991 839.153605 
L 644.711481 836.057655 
L 647.38097 838.860518 
L 650.05046 702.114949 
L 652.719949 819.219174 
L 655.389439 805.467893 
L 658.058928 838.880489 
L 660.728418 786.429268 
L 663.397907 839.246038 
L 666.067397 836.356637 
L 668.736886 837.766342 
L 671.406376 824.32964 
L 674.075865 838.457501 
L 676.745355 839.363577 
L 679.414844 839.359203 
L 682.084334 838.425359 
L 684.753823 837.618943 
L 687.423313 839.371185 
L 692.762292 839.283696 
L 695.431781 838.66386 
L 698.101271 838.969118 
L 700.77076 837.244074 
L 703.44025 839.051662 
L 706.109739 839.644111 
L 708.779229 839.325919 
L 711.448718 839.598655 
L 714.118208 838.528253 
L 716.787697 838.522357 
L 719.457187 839.345128 
L 722.126676 837.898526 
L 724.796166 839.050711 
L 727.465655 839.358061 
L 730.135145 838.454648 
L 732.804634 839.503939 
L 735.474124 838.683069 
L 738.143613 839.391916 
L 740.813103 838.691247 
L 743.482592 839.675302 
L 746.152082 839.709346 
L 748.821571 839.54502 
L 751.491061 838.123523 
L 754.160551 839.611588 
L 756.83004 839.647724 
L 759.49953 839.124886 
L 762.169019 839.332195 
L 764.838509 838.755913 
L 767.507998 839.288831 
L 770.177488 839.145617 
L 772.846977 839.210662 
L 775.516467 834.432272 
L 778.185956 707.520593 
L 780.855446 820.260286 
L 783.524935 808.989874 
L 786.194425 839.246228 
L 788.863914 794.585473 
L 791.533404 839.476741 
L 794.202893 839.71315 
L 796.872383 835.928895 
L 799.541872 830.148572 
L 802.211362 837.528982 
L 804.880851 839.71277 
L 807.550341 839.718286 
L 810.21983 839.27761 
L 812.88932 838.163654 
L 815.558809 839.721329 
L 818.228299 838.135125 
L 820.897788 835.417468 
L 823.567278 838.610796 
L 826.236767 839.521627 
L 828.906257 839.185937 
L 831.575746 839.662749 
L 834.245236 839.355399 
L 836.914725 839.233485 
L 842.253704 839.584771 
L 844.923194 838.765422 
L 847.592683 839.179661 
L 850.262173 839.741489 
L 852.931662 839.71277 
L 855.601152 839.333336 
L 858.270641 836.337048 
L 860.940131 839.570696 
L 863.60962 839.61425 
L 866.27911 838.283665 
L 868.948599 839.331434 
L 871.618089 839.252505 
L 874.287578 839.67283 
L 879.626557 839.626993 
L 884.965536 839.682529 
L 887.635026 839.553769 
L 892.974005 838.138929 
L 895.643494 835.712837 
L 898.312984 839.444409 
L 900.982473 838.984143 
L 903.651963 835.108215 
L 906.321452 739.641212 
L 908.990942 820.318105 
L 911.660431 811.616999 
L 914.329921 832.417185 
L 916.99941 796.420257 
L 919.6689 838.500484 
L 922.338389 837.939227 
L 925.007879 839.616152 
L 927.677368 817.007809 
L 930.346858 839.548254 
L 933.016347 835.767802 
L 935.685837 839.5047 
L 938.355327 839.578684 
L 941.024816 838.250762 
L 943.694306 839.616723 
L 946.363795 839.670167 
L 949.033285 839.394959 
L 951.702774 839.56442 
L 954.372264 839.115186 
L 957.041753 839.501086 
L 959.711243 839.273806 
L 962.380732 839.66351 
L 967.719711 839.695843 
L 970.389201 839.646012 
L 973.05869 838.621637 
L 975.72818 838.722058 
L 978.397669 839.424058 
L 981.067159 837.989818 
L 983.736648 839.071632 
L 986.406138 839.581537 
L 989.075627 839.500135 
L 991.745117 838.233264 
L 994.414606 839.490625 
L 997.084096 839.227019 
L 999.753585 839.729507 
L 1010.431543 839.766785 
L 1013.101033 839.42577 
L 1015.770522 839.686523 
L 1021.109501 839.73217 
L 1023.778991 839.542738 
L 1026.44848 838.197318 
L 1029.11797 837.39832 
L 1031.787459 839.40637 
L 1034.456949 706.955532 
L 1037.126438 817.47378 
L 1039.795928 815.029809 
L 1042.465417 830.236821 
L 1045.134907 797.548478 
L 1047.804396 835.614127 
L 1050.473886 836.696701 
L 1053.143375 839.001071 
L 1055.812865 819.605074 
L 1058.482354 839.233105 
L 1061.151844 838.586832 
L 1063.821333 839.571647 
L 1069.160312 839.626232 
L 1071.829802 838.088718 
L 1074.499291 839.041391 
L 1077.168781 839.75233 
L 1079.83827 839.713341 
L 1082.50776 838.896275 
L 1085.177249 838.732139 
L 1087.846739 839.335809 
L 1093.185718 839.537222 
L 1095.855207 839.303666 
L 1098.524697 837.98126 
L 1101.194186 839.422156 
L 1103.863676 837.331753 
L 1106.533165 837.075944 
L 1109.202655 839.63403 
L 1111.872144 839.071632 
L 1114.541634 839.525621 
L 1117.211123 839.549014 
L 1122.550103 839.796455 
L 1127.889082 839.720378 
L 1130.558571 839.502988 
L 1133.228061 839.737685 
L 1138.56704 839.721899 
L 1141.236529 839.278181 
L 1143.906019 839.646012 
L 1146.575508 839.648295 
L 1149.244998 838.921951 
L 1151.914487 839.699647 
L 1157.253466 839.684621 
L 1159.922956 838.983953 
L 1162.592445 623.571442 
L 1165.261935 821.593724 
L 1167.931424 813.688003 
L 1170.600914 838.649215 
L 1173.270403 791.528893 
L 1175.939893 838.84264 
L 1178.609382 837.272223 
L 1181.278872 835.920146 
L 1183.948361 822.009484 
L 1186.617851 836.407229 
L 1189.28734 838.90122 
L 1191.95683 839.674351 
L 1194.626319 839.663891 
L 1199.965298 838.56515 
L 1202.634788 838.892661 
L 1205.304277 838.83237 
L 1207.973767 839.217129 
L 1210.643256 838.690106 
L 1213.312746 839.595421 
L 1221.321214 839.689186 
L 1223.990704 838.553548 
L 1226.660193 839.498613 
L 1229.329683 837.949307 
L 1231.999172 838.950289 
L 1237.338151 838.448372 
L 1240.007641 839.192784 
L 1242.67713 838.156237 
L 1245.34662 839.517442 
L 1248.016109 839.215037 
L 1250.685599 839.649626 
L 1256.024578 839.700598 
L 1258.694067 839.423868 
L 1261.363557 836.119277 
L 1264.033046 839.727034 
L 1269.372025 839.721519 
L 1274.711004 838.171642 
L 1277.380494 839.425389 
L 1280.049983 837.306648 
L 1282.719473 839.234817 
L 1285.388962 835.833989 
L 1288.058452 835.029666 
L 1290.727941 754.075473 
L 1293.397431 816.450926 
L 1296.06692 813.22983 
L 1298.73641 825.861638 
L 1301.405899 791.465179 
L 1304.075389 839.244517 
L 1306.744879 834.747991 
L 1309.414368 837.035243 
L 1312.083858 827.265067 
L 1314.753347 836.357779 
L 1317.422837 839.379553 
L 1320.092326 839.581537 
L 1322.761816 839.074485 
L 1325.431305 839.53456 
L 1328.100795 838.793951 
L 1330.770284 839.508503 
L 1333.439774 839.523909 
L 1336.109263 839.658565 
L 1338.778753 839.522768 
L 1341.448242 839.185747 
L 1344.117732 838.537192 
L 1346.787221 838.704371 
L 1349.456711 839.472937 
L 1352.1262 837.539253 
L 1354.79569 838.936595 
L 1357.465179 839.404849 
L 1360.134669 839.469704 
L 1362.804158 835.662436 
L 1365.473648 839.639546 
L 1368.143137 839.539885 
L 1370.812627 838.936215 
L 1373.482116 839.697174 
L 1376.151606 839.708205 
L 1378.821095 838.853101 
L 1381.490585 839.716954 
L 1386.829564 839.670547 
L 1389.499053 839.529234 
L 1392.168543 838.09081 
L 1394.838032 839.491576 
L 1397.507522 839.416641 
L 1402.846501 839.696794 
L 1405.51599 839.650957 
L 1408.18548 838.699426 
L 1410.854969 835.860045 
L 1413.524459 839.548444 
L 1416.193948 838.836174 
L 1418.863438 720.224104 
L 1421.532927 808.398756 
L 1424.202417 815.237879 
L 1426.871906 834.925631 
L 1429.541396 795.554122 
L 1432.210885 833.041016 
L 1434.880375 839.437752 
L 1437.549864 835.00399 
L 1440.219354 822.210328 
L 1442.888843 838.731568 
L 1445.558333 839.566892 
L 1448.227822 838.449133 
L 1450.897312 839.246419 
L 1453.566801 839.545591 
L 1456.236291 839.19849 
L 1458.90578 837.870378 
L 1461.57527 838.873642 
L 1466.914249 839.57393 
L 1469.583738 839.68291 
L 1472.253228 839.545211 
L 1474.922717 838.458832 
L 1477.592207 839.497472 
L 1480.261696 839.422346 
L 1482.931186 839.614631 
L 1485.600675 839.206478 
L 1488.270165 839.478073 
L 1490.939655 839.120892 
L 1493.609144 837.285917 
L 1496.278634 837.265947 
L 1498.948123 839.167679 
L 1501.617613 839.666553 
L 1506.956592 838.734611 
L 1509.626081 839.397241 
L 1512.295571 839.754422 
L 1520.304039 839.806154 
L 1522.973529 839.786755 
L 1525.643018 839.495 
L 1528.312508 837.184354 
L 1530.981997 839.367191 
L 1533.651487 834.609721 
L 1536.320976 839.128119 
L 1538.990466 839.619195 
L 1541.659955 839.385069 
L 1544.329445 838.4071 
L 1546.998934 678.014166 
L 1549.668424 840.025636 
L 1613.736172 840.025636 
L 1613.736172 840.025636 
" style="fill:none;stroke:#1f77b4;stroke-linecap:square;stroke-width:1.5;"/>
   </g>
   <g id="patch_13">
    <path d="M 223.92 854.8272 
L 223.92 637.306729 
" style="fill:none;stroke:#000000;stroke-linecap:square;stroke-linejoin:miter;stroke-width:0.8;"/>
   </g>
   <g id="patch_14">
    <path d="M 1612.224 854.8272 
L 1612.224 637.306729 
" style="fill:none;stroke:#000000;stroke-linecap:square;stroke-linejoin:miter;stroke-width:0.8;"/>
   </g>
   <g id="patch_15">
    <path d="M 223.92 854.8272 
L 1612.224 854.8272 
" style="fill:none;stroke:#000000;stroke-linecap:square;stroke-linejoin:miter;stroke-width:0.8;"/>
   </g>
   <g id="patch_16">
    <path d="M 223.92 637.306729 
L 1612.224 637.306729 
" style="fill:none;stroke:#000000;stroke-linecap:square;stroke-linejoin:miter;stroke-width:0.8;"/>
   </g>
  </g>
  <g id="text_43">
   <!-- Calibration Table -->
   <g transform="translate(845.608125 28.327725)scale(0.12 -0.12)">
    <defs>
     <path d="M 4122 4306 
L 4122 3641 
Q 3803 3938 3442 4084 
Q 3081 4231 2675 4231 
Q 1875 4231 1450 3742 
Q 1025 3253 1025 2328 
Q 1025 1406 1450 917 
Q 1875 428 2675 428 
Q 3081 428 3442 575 
Q 3803 722 4122 1019 
L 4122 359 
Q 3791 134 3420 21 
Q 3050 -91 2638 -91 
Q 1578 -91 968 557 
Q 359 1206 359 2328 
Q 359 3453 968 4101 
Q 1578 4750 2638 4750 
Q 3056 4750 3426 4639 
Q 3797 4528 4122 4306 
z
" id="DejaVuSans-43" transform="scale(0.015625)"/>
     <path d="M 2194 1759 
Q 1497 1759 1228 1600 
Q 959 1441 959 1056 
Q 959 750 1161 570 
Q 1363 391 1709 391 
Q 2188 391 2477 730 
Q 2766 1069 2766 1631 
L 2766 1759 
L 2194 1759 
z
M 3341 1997 
L 3341 0 
L 2766 0 
L 2766 531 
Q 2569 213 2275 61 
Q 1981 -91 1556 -91 
Q 1019 -91 701 211 
Q 384 513 384 1019 
Q 384 1609 779 1909 
Q 1175 2209 1959 2209 
L 2766 2209 
L 2766 2266 
Q 2766 2663 2505 2880 
Q 2244 3097 1772 3097 
Q 1472 3097 1187 3025 
Q 903 2953 641 2809 
L 641 3341 
Q 956 3463 1253 3523 
Q 1550 3584 1831 3584 
Q 2591 3584 2966 3190 
Q 3341 2797 3341 1997 
z
" id="DejaVuSans-61" transform="scale(0.015625)"/>
     <path d="M 603 4863 
L 1178 4863 
L 1178 0 
L 603 0 
L 603 4863 
z
" id="DejaVuSans-6c" transform="scale(0.015625)"/>
     <path d="M 603 3500 
L 1178 3500 
L 1178 0 
L 603 0 
L 603 3500 
z
M 603 4863 
L 1178 4863 
L 1178 4134 
L 603 4134 
L 603 4863 
z
" id="DejaVuSans-69" transform="scale(0.015625)"/>
     <path d="M 3116 1747 
Q 3116 2381 2855 2742 
Q 2594 3103 2138 3103 
Q 1681 3103 1420 2742 
Q 1159 2381 1159 1747 
Q 1159 1113 1420 752 
Q 1681 391 2138 391 
Q 2594 391 2855 752 
Q 3116 1113 3116 1747 
z
M 1159 2969 
Q 1341 3281 1617 3432 
Q 1894 3584 2278 3584 
Q 2916 3584 3314 3078 
Q 3713 2572 3713 1747 
Q 3713 922 3314 415 
Q 2916 -91 2278 -91 
Q 1894 -91 1617 61 
Q 1341 213 1159 525 
L 1159 0 
L 581 0 
L 581 4863 
L 1159 4863 
L 1159 2969 
z
" id="DejaVuSans-62" transform="scale(0.015625)"/>
     <path d="M 2631 2963 
Q 2534 3019 2420 3045 
Q 2306 3072 2169 3072 
Q 1681 3072 1420 2755 
Q 1159 2438 1159 1844 
L 1159 0 
L 581 0 
L 581 3500 
L 1159 3500 
L 1159 2956 
Q 1341 3275 1631 3429 
Q 1922 3584 2338 3584 
Q 2397 3584 2469 3576 
Q 2541 3569 2628 3553 
L 2631 2963 
z
" id="DejaVuSans-72" transform="scale(0.015625)"/>
     <path d="M 1172 4494 
L 1172 3500 
L 2356 3500 
L 2356 3053 
L 1172 3053 
L 1172 1153 
Q 1172 725 1289 603 
Q 1406 481 1766 481 
L 2356 481 
L 2356 0 
L 1766 0 
Q 1100 0 847 248 
Q 594 497 594 1153 
L 594 3053 
L 172 3053 
L 172 3500 
L 594 3500 
L 594 4494 
L 1172 4494 
z
" id="DejaVuSans-74" transform="scale(0.015625)"/>
     <path d="M 1959 3097 
Q 1497 3097 1228 2736 
Q 959 2375 959 1747 
Q 959 1119 1226 758 
Q 1494 397 1959 397 
Q 2419 397 2687 759 
Q 2956 1122 2956 1747 
Q 2956 2369 2687 2733 
Q 2419 3097 1959 3097 
z
M 1959 3584 
Q 2709 3584 3137 3096 
Q 3566 2609 3566 1747 
Q 3566 888 3137 398 
Q 2709 -91 1959 -91 
Q 1206 -91 779 398 
Q 353 888 353 1747 
Q 353 2609 779 3096 
Q 1206 3584 1959 3584 
z
" id="DejaVuSans-6f" transform="scale(0.015625)"/>
     <path d="M 3513 2113 
L 3513 0 
L 2938 0 
L 2938 2094 
Q 2938 2591 2744 2837 
Q 2550 3084 2163 3084 
Q 1697 3084 1428 2787 
Q 1159 2491 1159 1978 
L 1159 0 
L 581 0 
L 581 3500 
L 1159 3500 
L 1159 2956 
Q 1366 3272 1645 3428 
Q 1925 3584 2291 3584 
Q 2894 3584 3203 3211 
Q 3513 2838 3513 2113 
z
" id="DejaVuSans-6e" transform="scale(0.015625)"/>
     <path id="DejaVuSans-20" transform="scale(0.015625)"/>
     <path d="M -19 4666 
L 3928 4666 
L 3928 4134 
L 2272 4134 
L 2272 0 
L 1638 0 
L 1638 4134 
L -19 4134 
L -19 4666 
z
" id="DejaVuSans-54" transform="scale(0.015625)"/>
     <path d="M 3597 1894 
L 3597 1613 
L 953 1613 
Q 991 1019 1311 708 
Q 1631 397 2203 397 
Q 2534 397 2845 478 
Q 3156 559 3463 722 
L 3463 178 
Q 3153 47 2828 -22 
Q 2503 -91 2169 -91 
Q 1331 -91 842 396 
Q 353 884 353 1716 
Q 353 2575 817 3079 
Q 1281 3584 2069 3584 
Q 2775 3584 3186 3129 
Q 3597 2675 3597 1894 
z
M 3022 2063 
Q 3016 2534 2758 2815 
Q 2500 3097 2075 3097 
Q 1594 3097 1305 2825 
Q 1016 2553 972 2059 
L 3022 2063 
z
" id="DejaVuSans-65" transform="scale(0.015625)"/>
    </defs>
    <use xlink:href="#DejaVuSans-43"/>
    <use x="69.824219" xlink:href="#DejaVuSans-61"/>
    <use x="131.103516" xlink:href="#DejaVuSans-6c"/>
    <use x="158.886719" xlink:href="#DejaVuSans-69"/>
    <use x="186.669922" xlink:href="#DejaVuSans-62"/>
    <use x="250.146484" xlink:href="#DejaVuSans-72"/>
    <use x="291.259766" xlink:href="#DejaVuSans-61"/>
    <use x="352.539062" xlink:href="#DejaVuSans-74"/>
    <use x="391.748047" xlink:href="#DejaVuSans-69"/>
    <use x="419.53125" xlink:href="#DejaVuSans-6f"/>
    <use x="480.712891" xlink:href="#DejaVuSans-6e"/>
    <use x="544.091797" xlink:href="#DejaVuSans-20"/>
    <use x="575.878906" xlink:href="#DejaVuSans-54"/>
    <use x="620.462891" xlink:href="#DejaVuSans-61"/>
    <use x="681.742188" xlink:href="#DejaVuSans-62"/>
    <use x="745.21875" xlink:href="#DejaVuSans-6c"/>
    <use x="773.001953" xlink:href="#DejaVuSans-65"/>
   </g>
  </g>
 </g>
 <defs>
  <clipPath id="p1faae204f2">
   <rect height="217.520471" width="1388.304" x="223.92" y="115.2576"/>
  </clipPath>
  <clipPath id="pde38263f73">
   <rect height="217.520471" width="1388.304" x="223.92" y="376.282165"/>
  </clipPath>
  <clipPath id="p1808f93239">
   <rect height="217.520471" width="1388.304" x="223.92" y="637.306729"/>
  </clipPath>
 </defs>
</svg>
