<?xml version="1.0" encoding="utf-8" standalone="no"?>
<!DOCTYPE svg PUBLIC "-//W3C//DTD SVG 1.1//EN"
  "http://www.w3.org/Graphics/SVG/1.1/DTD/svg11.dtd">
<svg height="960.48pt" version="1.1" viewBox="0 0 1791.36 960.48" width="1791.36pt" xmlns="http://www.w3.org/2000/svg" xmlns:xlink="http://www.w3.org/1999/xlink">
 <metadata>
  <rdf:RDF xmlns:cc="http://creativecommons.org/ns#" xmlns:dc="http://purl.org/dc/elements/1.1/" xmlns:rdf="http://www.w3.org/1999/02/22-rdf-syntax-ns#">
   <cc:Work>
    <dc:type rdf:resource="http://purl.org/dc/dcmitype/StillImage"/>
    <dc:date>2022-04-14T16:37:35.848092</dc:date>
    <dc:format>image/svg+xml</dc:format>
    <dc:creator>
     <cc:Agent>
      <dc:title>Matplotlib v3.4.3, https://matplotlib.org/</dc:title>
     </cc:Agent>
    </dc:creator>
   </cc:Work>
  </rdf:RDF>
 </metadata>
 <defs>
  <style type="text/css">*{stroke-linecap:butt;stroke-linejoin:round;}</style>
 </defs>
 <g id="figure_1">
  <g id="patch_1">
   <path d="M 0 960.48 
L 1791.36 960.48 
L 1791.36 0 
L 0 0 
z
" style="fill:#ffffff;"/>
  </g>
  <g id="axes_1">
   <g id="patch_2">
    <path d="M 223.92 854.8272 
L 1612.224 854.8272 
L 1612.224 115.2576 
L 223.92 115.2576 
z
" style="fill:#ffffff;"/>
   </g>
   <g id="matplotlib.axis_1">
    <g id="xtick_1">
     <g id="line2d_1">
      <defs>
       <path d="M 0 0 
L 0 3.5 
" id="m0b43b2ffa9" style="stroke:#000000;stroke-width:0.8;"/>
      </defs>
      <g>
       <use style="stroke:#000000;stroke-width:0.8;" x="449.120224" xlink:href="#m0b43b2ffa9" y="854.8272"/>
      </g>
     </g>
     <g id="text_1">
      <!-- 2500 -->
      <g transform="translate(436.395224 869.425637)scale(0.1 -0.1)">
       <defs>
        <path d="M 1228 531 
L 3431 531 
L 3431 0 
L 469 0 
L 469 531 
Q 828 903 1448 1529 
Q 2069 2156 2228 2338 
Q 2531 2678 2651 2914 
Q 2772 3150 2772 3378 
Q 2772 3750 2511 3984 
Q 2250 4219 1831 4219 
Q 1534 4219 1204 4116 
Q 875 4013 500 3803 
L 500 4441 
Q 881 4594 1212 4672 
Q 1544 4750 1819 4750 
Q 2544 4750 2975 4387 
Q 3406 4025 3406 3419 
Q 3406 3131 3298 2873 
Q 3191 2616 2906 2266 
Q 2828 2175 2409 1742 
Q 1991 1309 1228 531 
z
" id="DejaVuSans-32" transform="scale(0.015625)"/>
        <path d="M 691 4666 
L 3169 4666 
L 3169 4134 
L 1269 4134 
L 1269 2991 
Q 1406 3038 1543 3061 
Q 1681 3084 1819 3084 
Q 2600 3084 3056 2656 
Q 3513 2228 3513 1497 
Q 3513 744 3044 326 
Q 2575 -91 1722 -91 
Q 1428 -91 1123 -41 
Q 819 9 494 109 
L 494 744 
Q 775 591 1075 516 
Q 1375 441 1709 441 
Q 2250 441 2565 725 
Q 2881 1009 2881 1497 
Q 2881 1984 2565 2268 
Q 2250 2553 1709 2553 
Q 1456 2553 1204 2497 
Q 953 2441 691 2322 
L 691 4666 
z
" id="DejaVuSans-35" transform="scale(0.015625)"/>
        <path d="M 2034 4250 
Q 1547 4250 1301 3770 
Q 1056 3291 1056 2328 
Q 1056 1369 1301 889 
Q 1547 409 2034 409 
Q 2525 409 2770 889 
Q 3016 1369 3016 2328 
Q 3016 3291 2770 3770 
Q 2525 4250 2034 4250 
z
M 2034 4750 
Q 2819 4750 3233 4129 
Q 3647 3509 3647 2328 
Q 3647 1150 3233 529 
Q 2819 -91 2034 -91 
Q 1250 -91 836 529 
Q 422 1150 422 2328 
Q 422 3509 836 4129 
Q 1250 4750 2034 4750 
z
" id="DejaVuSans-30" transform="scale(0.015625)"/>
       </defs>
       <use xlink:href="#DejaVuSans-32"/>
       <use x="63.623047" xlink:href="#DejaVuSans-35"/>
       <use x="127.246094" xlink:href="#DejaVuSans-30"/>
       <use x="190.869141" xlink:href="#DejaVuSans-30"/>
      </g>
     </g>
    </g>
    <g id="xtick_2">
     <g id="line2d_2">
      <g>
       <use style="stroke:#000000;stroke-width:0.8;" x="675.932752" xlink:href="#m0b43b2ffa9" y="854.8272"/>
      </g>
     </g>
     <g id="text_2">
      <!-- 2600 -->
      <g transform="translate(663.207752 869.425637)scale(0.1 -0.1)">
       <defs>
        <path d="M 2113 2584 
Q 1688 2584 1439 2293 
Q 1191 2003 1191 1497 
Q 1191 994 1439 701 
Q 1688 409 2113 409 
Q 2538 409 2786 701 
Q 3034 994 3034 1497 
Q 3034 2003 2786 2293 
Q 2538 2584 2113 2584 
z
M 3366 4563 
L 3366 3988 
Q 3128 4100 2886 4159 
Q 2644 4219 2406 4219 
Q 1781 4219 1451 3797 
Q 1122 3375 1075 2522 
Q 1259 2794 1537 2939 
Q 1816 3084 2150 3084 
Q 2853 3084 3261 2657 
Q 3669 2231 3669 1497 
Q 3669 778 3244 343 
Q 2819 -91 2113 -91 
Q 1303 -91 875 529 
Q 447 1150 447 2328 
Q 447 3434 972 4092 
Q 1497 4750 2381 4750 
Q 2619 4750 2861 4703 
Q 3103 4656 3366 4563 
z
" id="DejaVuSans-36" transform="scale(0.015625)"/>
       </defs>
       <use xlink:href="#DejaVuSans-32"/>
       <use x="63.623047" xlink:href="#DejaVuSans-36"/>
       <use x="127.246094" xlink:href="#DejaVuSans-30"/>
       <use x="190.869141" xlink:href="#DejaVuSans-30"/>
      </g>
     </g>
    </g>
    <g id="xtick_3">
     <g id="line2d_3">
      <g>
       <use style="stroke:#000000;stroke-width:0.8;" x="902.74528" xlink:href="#m0b43b2ffa9" y="854.8272"/>
      </g>
     </g>
     <g id="text_3">
      <!-- 2700 -->
      <g transform="translate(890.02028 869.425637)scale(0.1 -0.1)">
       <defs>
        <path d="M 525 4666 
L 3525 4666 
L 3525 4397 
L 1831 0 
L 1172 0 
L 2766 4134 
L 525 4134 
L 525 4666 
z
" id="DejaVuSans-37" transform="scale(0.015625)"/>
       </defs>
       <use xlink:href="#DejaVuSans-32"/>
       <use x="63.623047" xlink:href="#DejaVuSans-37"/>
       <use x="127.246094" xlink:href="#DejaVuSans-30"/>
       <use x="190.869141" xlink:href="#DejaVuSans-30"/>
      </g>
     </g>
    </g>
    <g id="xtick_4">
     <g id="line2d_4">
      <g>
       <use style="stroke:#000000;stroke-width:0.8;" x="1129.557809" xlink:href="#m0b43b2ffa9" y="854.8272"/>
      </g>
     </g>
     <g id="text_4">
      <!-- 2800 -->
      <g transform="translate(1116.832809 869.425637)scale(0.1 -0.1)">
       <defs>
        <path d="M 2034 2216 
Q 1584 2216 1326 1975 
Q 1069 1734 1069 1313 
Q 1069 891 1326 650 
Q 1584 409 2034 409 
Q 2484 409 2743 651 
Q 3003 894 3003 1313 
Q 3003 1734 2745 1975 
Q 2488 2216 2034 2216 
z
M 1403 2484 
Q 997 2584 770 2862 
Q 544 3141 544 3541 
Q 544 4100 942 4425 
Q 1341 4750 2034 4750 
Q 2731 4750 3128 4425 
Q 3525 4100 3525 3541 
Q 3525 3141 3298 2862 
Q 3072 2584 2669 2484 
Q 3125 2378 3379 2068 
Q 3634 1759 3634 1313 
Q 3634 634 3220 271 
Q 2806 -91 2034 -91 
Q 1263 -91 848 271 
Q 434 634 434 1313 
Q 434 1759 690 2068 
Q 947 2378 1403 2484 
z
M 1172 3481 
Q 1172 3119 1398 2916 
Q 1625 2713 2034 2713 
Q 2441 2713 2670 2916 
Q 2900 3119 2900 3481 
Q 2900 3844 2670 4047 
Q 2441 4250 2034 4250 
Q 1625 4250 1398 4047 
Q 1172 3844 1172 3481 
z
" id="DejaVuSans-38" transform="scale(0.015625)"/>
       </defs>
       <use xlink:href="#DejaVuSans-32"/>
       <use x="63.623047" xlink:href="#DejaVuSans-38"/>
       <use x="127.246094" xlink:href="#DejaVuSans-30"/>
       <use x="190.869141" xlink:href="#DejaVuSans-30"/>
      </g>
     </g>
    </g>
    <g id="xtick_5">
     <g id="line2d_5">
      <g>
       <use style="stroke:#000000;stroke-width:0.8;" x="1356.370337" xlink:href="#m0b43b2ffa9" y="854.8272"/>
      </g>
     </g>
     <g id="text_5">
      <!-- 2900 -->
      <g transform="translate(1343.645337 869.425637)scale(0.1 -0.1)">
       <defs>
        <path d="M 703 97 
L 703 672 
Q 941 559 1184 500 
Q 1428 441 1663 441 
Q 2288 441 2617 861 
Q 2947 1281 2994 2138 
Q 2813 1869 2534 1725 
Q 2256 1581 1919 1581 
Q 1219 1581 811 2004 
Q 403 2428 403 3163 
Q 403 3881 828 4315 
Q 1253 4750 1959 4750 
Q 2769 4750 3195 4129 
Q 3622 3509 3622 2328 
Q 3622 1225 3098 567 
Q 2575 -91 1691 -91 
Q 1453 -91 1209 -44 
Q 966 3 703 97 
z
M 1959 2075 
Q 2384 2075 2632 2365 
Q 2881 2656 2881 3163 
Q 2881 3666 2632 3958 
Q 2384 4250 1959 4250 
Q 1534 4250 1286 3958 
Q 1038 3666 1038 3163 
Q 1038 2656 1286 2365 
Q 1534 2075 1959 2075 
z
" id="DejaVuSans-39" transform="scale(0.015625)"/>
       </defs>
       <use xlink:href="#DejaVuSans-32"/>
       <use x="63.623047" xlink:href="#DejaVuSans-39"/>
       <use x="127.246094" xlink:href="#DejaVuSans-30"/>
       <use x="190.869141" xlink:href="#DejaVuSans-30"/>
      </g>
     </g>
    </g>
    <g id="xtick_6">
     <g id="line2d_6">
      <g>
       <use style="stroke:#000000;stroke-width:0.8;" x="1583.182865" xlink:href="#m0b43b2ffa9" y="854.8272"/>
      </g>
     </g>
     <g id="text_6">
      <!-- 3000 -->
      <g transform="translate(1570.457865 869.425637)scale(0.1 -0.1)">
       <defs>
        <path d="M 2597 2516 
Q 3050 2419 3304 2112 
Q 3559 1806 3559 1356 
Q 3559 666 3084 287 
Q 2609 -91 1734 -91 
Q 1441 -91 1130 -33 
Q 819 25 488 141 
L 488 750 
Q 750 597 1062 519 
Q 1375 441 1716 441 
Q 2309 441 2620 675 
Q 2931 909 2931 1356 
Q 2931 1769 2642 2001 
Q 2353 2234 1838 2234 
L 1294 2234 
L 1294 2753 
L 1863 2753 
Q 2328 2753 2575 2939 
Q 2822 3125 2822 3475 
Q 2822 3834 2567 4026 
Q 2313 4219 1838 4219 
Q 1578 4219 1281 4162 
Q 984 4106 628 3988 
L 628 4550 
Q 988 4650 1302 4700 
Q 1616 4750 1894 4750 
Q 2613 4750 3031 4423 
Q 3450 4097 3450 3541 
Q 3450 3153 3228 2886 
Q 3006 2619 2597 2516 
z
" id="DejaVuSans-33" transform="scale(0.015625)"/>
       </defs>
       <use xlink:href="#DejaVuSans-33"/>
       <use x="63.623047" xlink:href="#DejaVuSans-30"/>
       <use x="127.246094" xlink:href="#DejaVuSans-30"/>
       <use x="190.869141" xlink:href="#DejaVuSans-30"/>
      </g>
     </g>
    </g>
   </g>
   <g id="matplotlib.axis_2">
    <g id="ytick_1">
     <g id="line2d_7">
      <defs>
       <path d="M 0 0 
L -3.5 0 
" id="m0c020d0e6c" style="stroke:#000000;stroke-width:0.8;"/>
      </defs>
      <g>
       <use style="stroke:#000000;stroke-width:0.8;" x="223.92" xlink:href="#m0c020d0e6c" y="830.798337"/>
      </g>
     </g>
     <g id="text_7">
      <!-- 0 -->
      <g transform="translate(210.5575 834.597556)scale(0.1 -0.1)">
       <use xlink:href="#DejaVuSans-30"/>
      </g>
     </g>
    </g>
    <g id="ytick_2">
     <g id="line2d_8">
      <g>
       <use style="stroke:#000000;stroke-width:0.8;" x="223.92" xlink:href="#m0c020d0e6c" y="691.358783"/>
      </g>
     </g>
     <g id="text_8">
      <!-- 100000 -->
      <g transform="translate(178.745 695.158002)scale(0.1 -0.1)">
       <defs>
        <path d="M 794 531 
L 1825 531 
L 1825 4091 
L 703 3866 
L 703 4441 
L 1819 4666 
L 2450 4666 
L 2450 531 
L 3481 531 
L 3481 0 
L 794 0 
L 794 531 
z
" id="DejaVuSans-31" transform="scale(0.015625)"/>
       </defs>
       <use xlink:href="#DejaVuSans-31"/>
       <use x="63.623047" xlink:href="#DejaVuSans-30"/>
       <use x="127.246094" xlink:href="#DejaVuSans-30"/>
       <use x="190.869141" xlink:href="#DejaVuSans-30"/>
       <use x="254.492188" xlink:href="#DejaVuSans-30"/>
       <use x="318.115234" xlink:href="#DejaVuSans-30"/>
      </g>
     </g>
    </g>
    <g id="ytick_3">
     <g id="line2d_9">
      <g>
       <use style="stroke:#000000;stroke-width:0.8;" x="223.92" xlink:href="#m0c020d0e6c" y="551.919229"/>
      </g>
     </g>
     <g id="text_9">
      <!-- 200000 -->
      <g transform="translate(178.745 555.718448)scale(0.1 -0.1)">
       <use xlink:href="#DejaVuSans-32"/>
       <use x="63.623047" xlink:href="#DejaVuSans-30"/>
       <use x="127.246094" xlink:href="#DejaVuSans-30"/>
       <use x="190.869141" xlink:href="#DejaVuSans-30"/>
       <use x="254.492188" xlink:href="#DejaVuSans-30"/>
       <use x="318.115234" xlink:href="#DejaVuSans-30"/>
      </g>
     </g>
    </g>
    <g id="ytick_4">
     <g id="line2d_10">
      <g>
       <use style="stroke:#000000;stroke-width:0.8;" x="223.92" xlink:href="#m0c020d0e6c" y="412.479675"/>
      </g>
     </g>
     <g id="text_10">
      <!-- 300000 -->
      <g transform="translate(178.745 416.278894)scale(0.1 -0.1)">
       <use xlink:href="#DejaVuSans-33"/>
       <use x="63.623047" xlink:href="#DejaVuSans-30"/>
       <use x="127.246094" xlink:href="#DejaVuSans-30"/>
       <use x="190.869141" xlink:href="#DejaVuSans-30"/>
       <use x="254.492188" xlink:href="#DejaVuSans-30"/>
       <use x="318.115234" xlink:href="#DejaVuSans-30"/>
      </g>
     </g>
    </g>
    <g id="ytick_5">
     <g id="line2d_11">
      <g>
       <use style="stroke:#000000;stroke-width:0.8;" x="223.92" xlink:href="#m0c020d0e6c" y="273.040121"/>
      </g>
     </g>
     <g id="text_11">
      <!-- 400000 -->
      <g transform="translate(178.745 276.83934)scale(0.1 -0.1)">
       <defs>
        <path d="M 2419 4116 
L 825 1625 
L 2419 1625 
L 2419 4116 
z
M 2253 4666 
L 3047 4666 
L 3047 1625 
L 3713 1625 
L 3713 1100 
L 3047 1100 
L 3047 0 
L 2419 0 
L 2419 1100 
L 313 1100 
L 313 1709 
L 2253 4666 
z
" id="DejaVuSans-34" transform="scale(0.015625)"/>
       </defs>
       <use xlink:href="#DejaVuSans-34"/>
       <use x="63.623047" xlink:href="#DejaVuSans-30"/>
       <use x="127.246094" xlink:href="#DejaVuSans-30"/>
       <use x="190.869141" xlink:href="#DejaVuSans-30"/>
       <use x="254.492188" xlink:href="#DejaVuSans-30"/>
       <use x="318.115234" xlink:href="#DejaVuSans-30"/>
      </g>
     </g>
    </g>
    <g id="ytick_6">
     <g id="line2d_12">
      <g>
       <use style="stroke:#000000;stroke-width:0.8;" x="223.92" xlink:href="#m0c020d0e6c" y="133.600567"/>
      </g>
     </g>
     <g id="text_12">
      <!-- 500000 -->
      <g transform="translate(178.745 137.399786)scale(0.1 -0.1)">
       <use xlink:href="#DejaVuSans-35"/>
       <use x="63.623047" xlink:href="#DejaVuSans-30"/>
       <use x="127.246094" xlink:href="#DejaVuSans-30"/>
       <use x="190.869141" xlink:href="#DejaVuSans-30"/>
       <use x="254.492188" xlink:href="#DejaVuSans-30"/>
       <use x="318.115234" xlink:href="#DejaVuSans-30"/>
      </g>
     </g>
    </g>
   </g>
   <g id="line2d_13">
    <path clip-path="url(#pda0f6cf6a4)" d="M 222.307695 830.798337 
L 483.142103 830.784393 
L 485.410228 830.4344 
L 487.678354 830.798337 
L 489.946479 830.702124 
L 494.482729 830.798337 
L 499.01898 830.777421 
L 501.287105 830.233607 
L 503.555231 830.796942 
L 510.359606 830.784393 
L 514.895857 830.798337 
L 517.163982 830.696546 
L 521.700233 830.787182 
L 533.040859 830.791365 
L 535.308984 830.643559 
L 537.57711 830.794154 
L 542.11336 830.795548 
L 546.649611 830.123449 
L 548.917736 826.429696 
L 551.185861 830.32982 
L 553.453987 830.650531 
L 555.722112 830.476231 
L 557.990237 829.120879 
L 560.258363 821.923009 
L 562.526488 829.22267 
L 564.794613 828.970284 
L 567.062738 830.39954 
L 569.330864 830.671447 
L 571.598989 829.569874 
L 573.867114 829.957516 
L 576.13524 830.781604 
L 578.403365 829.544775 
L 580.67149 830.431611 
L 582.939615 830.643559 
L 585.207741 827.946798 
L 587.475866 828.878254 
L 589.743991 829.4639 
L 592.012117 828.158746 
L 594.280242 827.462943 
L 596.548367 829.173866 
L 598.816492 826.896818 
L 601.084618 828.779252 
L 603.352743 830.30751 
L 605.620868 828.054166 
L 607.888994 828.818295 
L 610.157119 830.483203 
L 612.425244 825.091076 
L 614.693369 829.71768 
L 616.961495 827.320714 
L 619.22962 826.867536 
L 621.497745 825.344856 
L 623.765871 830.584994 
L 626.033996 828.616108 
L 628.302121 813.661216 
L 630.570246 825.309996 
L 632.838372 827.384857 
L 635.106497 829.215698 
L 637.374622 810.28399 
L 639.642748 816.162761 
L 641.910873 825.075738 
L 644.178998 821.607876 
L 646.447123 829.982615 
L 648.715249 799.629413 
L 650.983374 828.903353 
L 653.251499 810.554502 
L 655.519625 811.874995 
L 657.78775 820.407301 
L 660.055875 795.058585 
L 662.324 821.421027 
L 664.592126 801.648498 
L 666.860251 808.359724 
L 669.128376 827.023708 
L 671.396501 823.2937 
L 673.664627 809.676033 
L 675.932752 768.698931 
L 678.200877 812.763225 
L 680.469003 807.340421 
L 682.737128 773.516568 
L 685.005253 792.442699 
L 687.273378 785.486059 
L 689.541504 778.954711 
L 691.809629 821.266249 
L 694.077754 766.127666 
L 696.34588 797.166911 
L 698.614005 748.867838 
L 700.88213 789.830996 
L 703.150255 812.020012 
L 705.418381 786.616914 
L 707.686506 808.826846 
L 709.954631 783.080727 
L 712.222757 796.203383 
L 714.490882 761.959818 
L 716.759007 764.628691 
L 719.027132 759.546119 
L 721.295258 744.366729 
L 723.563383 780.477391 
L 725.831508 747.158309 
L 728.099634 796.480868 
L 730.367759 666.788139 
L 732.635884 659.743653 
L 734.904009 729.581953 
L 737.172135 762.781117 
L 739.44026 659.588875 
L 741.708385 732.698427 
L 743.976511 697.718621 
L 746.244636 728.869417 
L 748.512761 731.048857 
L 750.780886 762.516182 
L 753.049012 673.986009 
L 755.317137 764.475307 
L 757.585262 689.745467 
L 759.853388 733.392836 
L 762.121513 694.285619 
L 764.389638 642.996962 
L 766.657763 724.658343 
L 768.925889 762.930317 
L 771.194014 631.879447 
L 773.462139 755.488428 
L 775.730265 628.910779 
L 777.99839 557.608363 
L 780.266515 658.604432 
L 782.53464 667.251078 
L 784.802766 740.707835 
L 787.070891 563.837128 
L 789.339016 504.431694 
L 791.607142 666.581768 
L 793.875267 674.388989 
L 796.143392 528.15594 
L 798.411517 551.106296 
L 800.679643 433.357959 
L 802.947768 658.890283 
L 805.215893 618.540659 
L 807.484018 587.120744 
L 809.752144 625.461044 
L 812.020269 514.60381 
L 814.288394 457.419649 
L 816.55652 519.804905 
L 818.824645 514.875717 
L 821.09277 471.114007 
L 823.360895 588.255782 
L 825.629021 398.432534 
L 827.897146 648.741872 
L 830.165271 355.181173 
L 832.433397 501.146498 
L 834.701522 583.744913 
L 836.969647 566.294052 
L 839.237772 675.319051 
L 841.505898 406.369434 
L 843.774023 717.082592 
L 846.042148 151.961967 
L 848.310274 500.703081 
L 850.578399 569.347779 
L 852.846524 700.150447 
L 855.114649 467.996139 
L 857.382775 492.102449 
L 859.6509 351.8904 
L 861.919025 331.475055 
L 864.187151 633.534594 
L 866.455276 487.282024 
L 868.723401 502.493485 
L 870.991526 404.70592 
L 873.259652 597.276127 
L 875.527777 495.528479 
L 877.795902 487.686398 
L 880.064028 529.449939 
L 882.332153 442.680888 
L 884.600278 517.137426 
L 886.868403 574.794288 
L 889.136529 453.099811 
L 891.404654 556.483085 
L 893.672779 333.409081 
L 895.940905 508.768264 
L 898.20903 451.457213 
L 900.477155 439.602062 
L 902.74528 452.060987 
L 905.013406 210.643709 
L 907.281531 226.528663 
L 909.549656 539.397557 
L 911.817782 403.286425 
L 914.085907 567.666138 
L 916.354032 493.915163 
L 918.622157 409.57236 
L 920.890283 268.30057 
L 923.158408 396.202896 
L 925.426533 617.475341 
L 927.694659 361.948175 
L 929.962784 273.430552 
L 932.230909 501.336136 
L 934.499034 463.002808 
L 936.76716 228.344166 
L 939.035285 495.619115 
L 941.30341 382.102768 
L 943.571535 424.627649 
L 945.839661 203.603406 
L 948.107786 134.221073 
L 950.375911 477.161501 
L 952.644037 344.925394 
L 954.912162 429.117602 
L 957.180287 532.659838 
L 959.448412 583.537148 
L 961.716538 253.81559 
L 963.984663 395.336976 
L 966.252788 627.745064 
L 968.520914 442.897019 
L 970.789039 474.559559 
L 973.057164 574.007849 
L 975.325289 618.108396 
L 977.593415 504.653403 
L 979.86154 546.443438 
L 982.129665 611.875448 
L 984.397791 619.790037 
L 986.665916 558.025287 
L 988.934041 655.492141 
L 991.202166 595.604247 
L 993.470292 483.429309 
L 995.738417 532.679359 
L 998.006542 666.117435 
L 1000.274668 568.197402 
L 1002.542793 762.146667 
L 1004.810918 583.298706 
L 1007.079043 441.399438 
L 1009.347169 625.72319 
L 1011.615294 717.647322 
L 1013.883419 707.356683 
L 1016.151545 690.483102 
L 1018.41967 631.005161 
L 1020.687795 716.639174 
L 1022.95592 759.037165 
L 1025.224046 722.947419 
L 1027.492171 722.962758 
L 1029.760296 792.630942 
L 1032.028422 671.669918 
L 1034.296547 697.924991 
L 1036.564672 737.234396 
L 1038.832797 788.504926 
L 1041.100923 695.960288 
L 1043.369048 731.475542 
L 1045.637173 723.431275 
L 1047.905299 775.591429 
L 1050.173424 669.673143 
L 1052.441549 749.697503 
L 1054.709674 725.370879 
L 1056.9778 810.850114 
L 1059.245925 779.789954 
L 1061.51405 774.742242 
L 1063.782176 723.138452 
L 1066.050301 811.480381 
L 1068.318426 734.972687 
L 1070.586551 767.396566 
L 1072.854677 758.360883 
L 1075.122802 815.646835 
L 1077.390927 800.077014 
L 1079.659052 800.234581 
L 1081.927178 761.185928 
L 1084.195303 698.281957 
L 1086.463428 720.226954 
L 1088.731554 777.320479 
L 1090.999679 746.490394 
L 1093.267804 770.324797 
L 1095.535929 668.670573 
L 1097.804055 764.275909 
L 1100.07218 805.819135 
L 1102.340305 785.80677 
L 1104.608431 804.216975 
L 1106.876556 797.868292 
L 1109.144681 798.810903 
L 1111.412806 811.699301 
L 1113.680932 792.02438 
L 1115.949057 812.354667 
L 1118.217182 764.752792 
L 1120.485308 822.066632 
L 1122.753433 827.394617 
L 1125.021558 816.77769 
L 1127.289683 812.237538 
L 1129.557809 788.893962 
L 1131.825934 794.788072 
L 1134.094059 802.006858 
L 1136.362185 819.771457 
L 1138.63031 812.482951 
L 1140.898435 794.403219 
L 1143.16656 824.226551 
L 1145.434686 820.942749 
L 1147.702811 816.224115 
L 1149.970936 818.662912 
L 1152.239062 814.276144 
L 1154.507187 827.372307 
L 1156.775312 810.348132 
L 1159.043437 786.754959 
L 1161.311563 814.879917 
L 1163.579688 826.40878 
L 1165.847813 818.757731 
L 1168.115939 817.151388 
L 1170.384064 825.724131 
L 1172.652189 815.747231 
L 1174.920314 821.110077 
L 1177.18844 816.698209 
L 1179.456565 812.541516 
L 1181.72469 818.258538 
L 1183.992816 830.235001 
L 1186.260941 824.923748 
L 1188.529066 814.00842 
L 1190.797191 804.975526 
L 1193.065317 819.74078 
L 1195.333442 825.926319 
L 1197.601567 815.348434 
L 1199.869693 828.558938 
L 1202.137818 828.471091 
L 1204.405943 827.500591 
L 1206.674068 828.564515 
L 1208.942194 810.727407 
L 1211.210319 825.378321 
L 1213.478444 821.015258 
L 1215.746569 829.240797 
L 1218.014695 811.501297 
L 1220.28282 821.80588 
L 1222.550945 830.336792 
L 1224.819071 825.813373 
L 1227.087196 829.915684 
L 1229.355321 826.474316 
L 1231.623446 829.007933 
L 1233.891572 828.072294 
L 1236.159697 825.043666 
L 1238.427822 828.780646 
L 1240.695948 828.246593 
L 1242.964073 822.805662 
L 1245.232198 827.001398 
L 1247.500323 830.046758 
L 1249.768449 829.837598 
L 1252.036574 830.795548 
L 1254.304699 823.791499 
L 1256.572825 825.261192 
L 1258.84095 829.537803 
L 1261.109075 827.794809 
L 1263.3772 830.251734 
L 1265.645326 830.573839 
L 1267.913451 823.527958 
L 1270.181576 827.561945 
L 1272.449702 829.010722 
L 1274.717827 824.833113 
L 1276.985952 828.6677 
L 1279.254077 829.861303 
L 1281.522203 830.426033 
L 1283.790328 830.654714 
L 1288.326579 821.810063 
L 1290.594704 829.62565 
L 1292.862829 830.301932 
L 1295.130954 827.948192 
L 1297.39908 830.016081 
L 1299.667205 830.610093 
L 1301.93533 830.492964 
L 1304.203456 828.706743 
L 1306.471581 830.14576 
L 1308.739706 829.620073 
L 1313.275957 829.974249 
L 1315.544082 828.274481 
L 1317.812207 830.315876 
L 1320.080333 830.650531 
L 1322.348458 830.544557 
L 1324.616583 830.769054 
L 1326.884708 830.550134 
L 1329.152834 829.395575 
L 1331.420959 830.787182 
L 1333.689084 830.750927 
L 1335.95721 829.136217 
L 1338.225335 830.130421 
L 1342.761585 830.368863 
L 1345.029711 830.727223 
L 1349.565961 830.68818 
L 1354.102212 830.798337 
L 1356.370337 830.717462 
L 1358.638462 830.222451 
L 1360.906588 830.607305 
L 1363.174713 829.098569 
L 1365.442838 830.757899 
L 1367.710963 830.794154 
L 1369.979089 830.579417 
L 1372.247214 830.785787 
L 1374.515339 830.771843 
L 1376.783465 830.292171 
L 1379.05159 830.692363 
L 1381.319715 830.796942 
L 1383.58784 828.867099 
L 1385.855966 830.601727 
L 1388.124091 830.796942 
L 1392.660342 830.787182 
L 1394.928467 830.246156 
L 1397.196592 830.798337 
L 1401.732843 830.769054 
L 1404.000968 830.792759 
L 1406.269093 830.671447 
L 1408.537219 830.798337 
L 1587.719116 830.798337 
L 1612.668494 830.798337 
L 1612.668494 830.798337 
" style="fill:none;stroke:#1f77b4;stroke-linecap:square;stroke-width:1.5;"/>
   </g>
   <g id="patch_3">
    <path d="M 223.92 854.8272 
L 223.92 115.2576 
" style="fill:none;stroke:#000000;stroke-linecap:square;stroke-linejoin:miter;stroke-width:0.8;"/>
   </g>
   <g id="patch_4">
    <path d="M 1612.224 854.8272 
L 1612.224 115.2576 
" style="fill:none;stroke:#000000;stroke-linecap:square;stroke-linejoin:miter;stroke-width:0.8;"/>
   </g>
   <g id="patch_5">
    <path d="M 223.92 854.8272 
L 1612.224 854.8272 
" style="fill:none;stroke:#000000;stroke-linecap:square;stroke-linejoin:miter;stroke-width:0.8;"/>
   </g>
   <g id="patch_6">
    <path d="M 223.92 115.2576 
L 1612.224 115.2576 
" style="fill:none;stroke:#000000;stroke-linecap:square;stroke-linejoin:miter;stroke-width:0.8;"/>
   </g>
  </g>
 </g>
 <defs>
  <clipPath id="pda0f6cf6a4">
   <rect height="739.5696" width="1388.304" x="223.92" y="115.2576"/>
  </clipPath>
 </defs>
</svg>
